<svg class="main-svg" xmlns="http://www.w3.org/2000/svg" xmlns:xlink="http://www.w3.org/1999/xlink" width="700" height="500" style="" viewBox="0 0 700 500"><rect x="0" y="0" width="700" height="500" style="fill: rgb(255, 255, 255); fill-opacity: 1;"/><defs id="defs-e8e3a0"><g class="clips"><clipPath id="clipe8e3a0xyplot" class="plotclip"><rect width="652.2488334791484" height="420.5976596675415"/></clipPath><clipPath class="axesclip" id="clipe8e3a0x"><rect x="43.15799066783318" y="0" width="652.2488334791484" height="500"/></clipPath><clipPath class="axesclip" id="clipe8e3a0y"><rect x="0" y="24.527559055118104" width="700" height="420.5976596675415"/></clipPath><clipPath class="axesclip" id="clipe8e3a0xy"><rect x="43.15799066783318" y="24.527559055118104" width="652.2488334791484" height="420.5976596675415"/></clipPath></g><g class="gradients"/></defs><g class="bglayer"/><g class="layer-below"><g class="imagelayer"/><g class="shapelayer"/></g><g class="cartesianlayer"><g class="subplot xy"><g class="layer-subplot"><g class="shapelayer"/><g class="imagelayer"/></g><g class="gridlayer"><g class="x"/><g class="y"/></g><g class="zerolinelayer"/><path class="xlines-below"/><path class="ylines-below"/><g class="overlines-below"/><g class="xaxislayer-below"/><g class="yaxislayer-below"/><g class="overaxes-below"/><g class="plot" transform="translate(43.15799066783318,24.527559055118104)" clip-path="url('#clipe8e3a0xyplot')"><g class="scatterlayer mlayer"><g class="trace scatter trace5679de" style="stroke-miterlimit: 2; opacity: 1;"><g class="fills"/><g class="errorbars"/><g class="lines"><path class="js-line" d="M32.61,392.01L65.22,367.89L97.84,346.08L163.06,305.18L195.67,285.31L326.12,206.91L489.19,109.39L652.25,11.9" style="vector-effect: non-scaling-stroke; fill: none; stroke: rgb(0, 154, 250); stroke-opacity: 1; stroke-width: 0.2px; opacity: 1;"/></g><g class="points"/><g class="text"/></g><g class="trace scatter trace4130c6" style="stroke-miterlimit: 2; opacity: 1;"><g class="fills"/><g class="errorbars"/><g class="lines"><path class="js-line" d="M32.61,395.86L65.22,374.67L97.84,355.63L163.06,320.06L195.67,302.84L326.12,235.07L489.19,150.92L652.25,66.82" style="vector-effect: non-scaling-stroke; fill: none; stroke: rgb(227, 111, 71); stroke-opacity: 1; stroke-width: 0.2px; opacity: 1;"/></g><g class="points"/><g class="text"/></g><g class="trace scatter trace8fc6d0" style="stroke-miterlimit: 2; opacity: 1;"><g class="fills"/><g class="errorbars"/><g class="lines"><path class="js-line" d="M32.61,398.36L65.22,379.08L97.84,361.8L163.06,329.58L195.67,313.99L326.12,252.74L489.19,176.74L652.25,100.8" style="vector-effect: non-scaling-stroke; fill: none; stroke: rgb(62, 164, 78); stroke-opacity: 1; stroke-width: 0.2px; opacity: 1;"/></g><g class="points"/><g class="text"/></g><g class="trace scatter trace8520fb" style="stroke-miterlimit: 2; opacity: 1;"><g class="fills"/><g class="errorbars"/><g class="lines"><path class="js-line" d="M32.61,400.19L65.22,382.3L97.84,366.27L163.06,336.42L195.67,321.99L326.12,265.31L489.19,195.01L652.25,124.77" style="vector-effect: non-scaling-stroke; fill: none; stroke: rgb(195, 113, 210); stroke-opacity: 1; stroke-width: 0.2px; opacity: 1;"/></g><g class="points"/><g class="text"/></g><g class="trace scatter tracee6058e" style="stroke-miterlimit: 2; opacity: 1;"><g class="fills"/><g class="errorbars"/><g class="lines"><path class="js-line" d="M32.61,401.62L65.22,384.79L97.84,369.73L163.06,341.69L195.67,328.14L326.12,274.91L489.19,208.92L652.25,142.98" style="vector-effect: non-scaling-stroke; fill: none; stroke: rgb(172, 142, 24); stroke-opacity: 1; stroke-width: 0.2px; opacity: 1;"/></g><g class="points"/><g class="text"/></g><g class="trace scatter trace32dd31" style="stroke-miterlimit: 2; opacity: 1;"><g class="fills"/><g class="errorbars"/><g class="lines"><path class="js-line" d="M32.61,402.79L65.22,386.81L97.84,372.52L163.06,345.92L195.67,333.06L326.12,282.59L489.19,220.01L652.25,157.49" style="vector-effect: non-scaling-stroke; fill: none; stroke: rgb(0, 170, 174); stroke-opacity: 1; stroke-width: 0.2px; opacity: 1;"/></g><g class="points"/><g class="text"/></g><g class="trace scatter trace5f5a13" style="stroke-miterlimit: 2; opacity: 1;"><g class="fills"/><g class="errorbars"/><g class="lines"><path class="js-line" d="M32.61,403.76L65.22,388.49L97.84,374.84L163.06,349.43L195.67,337.14L326.12,288.92L489.19,229.15L652.25,169.43" style="vector-effect: non-scaling-stroke; fill: none; stroke: rgb(237, 94, 147); stroke-opacity: 1; stroke-width: 0.2px; opacity: 1;"/></g><g class="points"/><g class="text"/></g><g class="trace scatter tracedc0591" style="stroke-miterlimit: 2; opacity: 1;"><g class="fills"/><g class="errorbars"/><g class="lines"><path class="js-line" d="M32.61,404.6L65.22,389.92L97.84,376.81L163.06,352.4L195.67,340.6L326.12,294.28L489.19,236.87L652.25,179.51" style="vector-effect: non-scaling-stroke; fill: none; stroke: rgb(198, 130, 37); stroke-opacity: 1; stroke-width: 0.2px; opacity: 1;"/></g><g class="points"/><g class="text"/></g><g class="trace scatter trace4fc1ed" style="stroke-miterlimit: 2; opacity: 1;"><g class="fills"/><g class="errorbars"/><g class="lines"><path class="js-line" d="M32.61,405.32L65.22,391.17L97.84,378.52L163.06,354.97L195.67,343.59L326.12,298.9L489.19,243.51L652.25,188.18" style="vector-effect: non-scaling-stroke; fill: none; stroke: rgb(0, 169, 141); stroke-opacity: 1; stroke-width: 0.2px; opacity: 1;"/></g><g class="points"/><g class="text"/></g><g class="trace scatter tracefbf3b8" style="stroke-miterlimit: 2; opacity: 1;"><g class="fills"/><g class="errorbars"/><g class="lines"><path class="js-line" d="M32.61,405.96L65.22,392.26L97.84,380.02L163.06,357.22L195.67,346.2L326.12,302.94L489.19,249.32L652.25,195.76" style="vector-effect: non-scaling-stroke; fill: none; stroke: rgb(142, 151, 30); stroke-opacity: 1; stroke-width: 0.2px; opacity: 1;"/></g><g class="points"/><g class="text"/></g><g class="trace scatter trace7e3e61" style="stroke-miterlimit: 2; opacity: 1;"><g class="fills"/><g class="errorbars"/><g class="lines"><path class="js-line" d="M32.61,406.53L65.22,393.23L97.84,381.35L163.06,359.21L195.67,348.51L326.12,306.51L489.19,254.46L652.25,202.46" style="vector-effect: non-scaling-stroke; fill: none; stroke: rgb(0, 169, 204); stroke-opacity: 1; stroke-width: 0.2px; opacity: 1;"/></g><g class="points"/><g class="text"/></g><g class="trace scatter trace71523d" style="stroke-miterlimit: 2; opacity: 1;"><g class="fills"/><g class="errorbars"/><g class="lines"><path class="js-line" d="M32.61,407.05L65.22,394.1L97.84,382.54L163.06,361L195.67,350.59L326.12,309.71L489.19,259.05L652.25,208.45" style="vector-effect: non-scaling-stroke; fill: none; stroke: rgb(155, 127, 233); stroke-opacity: 1; stroke-width: 0.2px; opacity: 1;"/></g><g class="points"/><g class="text"/></g><g class="trace scatter tracef89817" style="stroke-miterlimit: 2; opacity: 1;"><g class="fills"/><g class="errorbars"/><g class="lines"><path class="js-line" d="M32.61,407.51L65.22,394.89L97.84,383.62L163.06,362.61L195.67,352.46L326.12,312.6L489.19,263.2L652.25,213.85" style="vector-effect: non-scaling-stroke; fill: none; stroke: rgb(97, 141, 246); stroke-opacity: 1; stroke-width: 0.2px; opacity: 1;"/></g><g class="points"/><g class="text"/></g><g class="trace scatter trace613b1e" style="stroke-miterlimit: 2; opacity: 1;"><g class="fills"/><g class="errorbars"/><g class="lines"><path class="js-line" d="M32.61,407.94L65.22,395.61L97.84,384.6L163.06,364.08L195.67,354.16L326.12,315.22L489.19,266.96L652.25,218.75" style="vector-effect: non-scaling-stroke; fill: none; stroke: rgb(240, 96, 115); stroke-opacity: 1; stroke-width: 0.2px; opacity: 1;"/></g><g class="points"/><g class="text"/></g><g class="trace scatter trace025aaf" style="stroke-miterlimit: 2; opacity: 1;"><g class="fills"/><g class="errorbars"/><g class="lines"><path class="js-line" d="M32.61,408.33L65.22,396.27L97.84,385.5L163.06,365.42L195.67,355.72L326.12,317.62L489.19,270.4L652.25,223.24" style="vector-effect: non-scaling-stroke; fill: none; stroke: rgb(221, 101, 182); stroke-opacity: 1; stroke-width: 0.2px; opacity: 1;"/></g><g class="points"/><g class="text"/></g><g class="trace scatter trace33d539" style="stroke-miterlimit: 2; opacity: 1;"><g class="fills"/><g class="errorbars"/><g class="lines"><path class="js-line" d="M32.61,408.69L65.22,396.88L97.84,386.33L163.06,366.66L195.67,357.15L326.12,319.82L489.19,273.56L652.25,227.36" style="vector-effect: non-scaling-stroke; fill: none; stroke: rgb(108, 159, 51); stroke-opacity: 1; stroke-width: 0.2px; opacity: 1;"/></g><g class="points"/><g class="text"/></g><g class="trace scatter trace2005ad" style="stroke-miterlimit: 2; opacity: 1;"><g class="fills"/><g class="errorbars"/><g class="lines"><path class="js-line" d="M32.61,401.15L65.22,383.28L97.84,367.13L163.06,336.84L195.67,322.12L326.12,264.05L489.19,191.83L652.25,119.63" style="vector-effect: non-scaling-stroke; fill: none; stroke: rgb(0, 154, 250); stroke-opacity: 1; stroke-width: 0.5px; opacity: 1;"/></g><g class="points"/><g class="text"/></g><g class="trace scatter tracedea83d" style="stroke-miterlimit: 2; opacity: 1;"><g class="fills"/><g class="errorbars"/><g class="lines"><path class="js-line" d="M32.61,400.45L65.22,382.37L97.84,366.12L163.06,335.77L195.67,321.07L326.12,263.23L489.19,191.41L652.25,119.63" style="vector-effect: non-scaling-stroke; fill: none; stroke: rgb(227, 111, 71); stroke-opacity: 1; stroke-width: 0.5px; opacity: 1;"/></g><g class="points"/><g class="text"/></g><g class="trace scatter trace1fbe73" style="stroke-miterlimit: 2; opacity: 1;"><g class="fills"/><g class="errorbars"/><g class="lines"><path class="js-line" d="M32.61,400.03L65.22,381.86L97.84,365.58L163.06,335.21L195.67,320.53L326.12,262.81L489.19,191.19L652.25,119.63" style="vector-effect: non-scaling-stroke; fill: none; stroke: rgb(62, 164, 78); stroke-opacity: 1; stroke-width: 0.5px; opacity: 1;"/></g><g class="points"/><g class="text"/></g><g class="trace scatter tracee59ac7" style="stroke-miterlimit: 2; opacity: 1;"><g class="fills"/><g class="errorbars"/><g class="lines"><path class="js-line" d="M32.61,399.73L65.22,381.53L97.84,365.24L163.06,334.88L195.67,320.21L326.12,262.56L489.19,191.06L652.25,119.63" style="vector-effect: non-scaling-stroke; fill: none; stroke: rgb(195, 113, 210); stroke-opacity: 1; stroke-width: 0.5px; opacity: 1;"/></g><g class="points"/><g class="text"/></g><g class="trace scatter trace23c1b3" style="stroke-miterlimit: 2; opacity: 1;"><g class="fills"/><g class="errorbars"/><g class="lines"><path class="js-line" d="M32.61,399.52L65.22,381.3L97.84,365.01L163.06,334.66L195.67,320L326.12,262.4L489.19,190.98L652.25,119.63" style="vector-effect: non-scaling-stroke; fill: none; stroke: rgb(172, 142, 24); stroke-opacity: 1; stroke-width: 0.5px; opacity: 1;"/></g><g class="points"/><g class="text"/></g><g class="trace scatter trace031f3b" style="stroke-miterlimit: 2; opacity: 1;"><g class="fills"/><g class="errorbars"/><g class="lines"><path class="js-line" d="M32.61,399.36L65.22,381.13L97.84,364.84L163.06,334.51L195.67,319.85L326.12,262.28L489.19,190.92L652.25,119.63" style="vector-effect: non-scaling-stroke; fill: none; stroke: rgb(0, 170, 174); stroke-opacity: 1; stroke-width: 0.5px; opacity: 1;"/></g><g class="points"/><g class="text"/></g><g class="trace scatter trace50baf5" style="stroke-miterlimit: 2; opacity: 1;"><g class="fills"/><g class="errorbars"/><g class="lines"><path class="js-line" d="M32.61,399.23L65.22,381L97.84,364.72L163.06,334.4L195.67,319.74L326.12,262.2L489.19,190.88L652.25,119.63" style="vector-effect: non-scaling-stroke; fill: none; stroke: rgb(237, 94, 147); stroke-opacity: 1; stroke-width: 0.5px; opacity: 1;"/></g><g class="points"/><g class="text"/></g><g class="trace scatter trace158c41" style="stroke-miterlimit: 2; opacity: 1;"><g class="fills"/><g class="errorbars"/><g class="lines"><path class="js-line" d="M32.61,399.12L65.22,380.9L97.84,364.63L163.06,334.31L195.67,319.66L326.12,262.14L489.19,190.85L652.25,119.63" style="vector-effect: non-scaling-stroke; fill: none; stroke: rgb(198, 130, 37); stroke-opacity: 1; stroke-width: 0.5px; opacity: 1;"/></g><g class="points"/><g class="text"/></g><g class="trace scatter trace198f45" style="stroke-miterlimit: 2; opacity: 1;"><g class="fills"/><g class="errorbars"/><g class="lines"><path class="js-line" d="M32.61,399.04L65.22,380.82L97.84,364.55L163.06,334.24L195.67,319.6L326.12,262.09L489.19,190.82L652.25,119.63" style="vector-effect: non-scaling-stroke; fill: none; stroke: rgb(0, 169, 141); stroke-opacity: 1; stroke-width: 0.5px; opacity: 1;"/></g><g class="points"/><g class="text"/></g><g class="trace scatter trace9ac98c" style="stroke-miterlimit: 2; opacity: 1;"><g class="fills"/><g class="errorbars"/><g class="lines"><path class="js-line" d="M32.61,398.97L65.22,380.76L97.84,364.49L163.06,334.19L195.67,319.55L326.12,262.06L489.19,190.8L652.25,119.63" style="vector-effect: non-scaling-stroke; fill: none; stroke: rgb(142, 151, 30); stroke-opacity: 1; stroke-width: 0.5px; opacity: 1;"/></g><g class="points"/><g class="text"/></g><g class="trace scatter tracee31935" style="stroke-miterlimit: 2; opacity: 1;"><g class="fills"/><g class="errorbars"/><g class="lines"><path class="js-line" d="M32.61,398.91L65.22,380.7L97.84,364.44L163.06,334.15L195.67,319.51L326.12,262.03L489.19,190.79L652.25,119.63" style="vector-effect: non-scaling-stroke; fill: none; stroke: rgb(0, 169, 204); stroke-opacity: 1; stroke-width: 0.5px; opacity: 1;"/></g><g class="points"/><g class="text"/></g><g class="trace scatter trace633c87" style="stroke-miterlimit: 2; opacity: 1;"><g class="fills"/><g class="errorbars"/><g class="lines"><path class="js-line" d="M32.61,398.85L65.22,380.65L97.84,364.4L163.06,334.11L195.67,319.47L326.12,262L489.19,190.78L652.25,119.63" style="vector-effect: non-scaling-stroke; fill: none; stroke: rgb(155, 127, 233); stroke-opacity: 1; stroke-width: 0.5px; opacity: 1;"/></g><g class="points"/><g class="text"/></g><g class="trace scatter trace4784d8" style="stroke-miterlimit: 2; opacity: 1;"><g class="fills"/><g class="errorbars"/><g class="lines"><path class="js-line" d="M32.61,398.81L65.22,380.61L97.84,364.36L163.06,334.08L195.67,319.44L326.12,261.98L489.19,190.76L652.25,119.63" style="vector-effect: non-scaling-stroke; fill: none; stroke: rgb(97, 141, 246); stroke-opacity: 1; stroke-width: 0.5px; opacity: 1;"/></g><g class="points"/><g class="text"/></g><g class="trace scatter trace8774de" style="stroke-miterlimit: 2; opacity: 1;"><g class="fills"/><g class="errorbars"/><g class="lines"><path class="js-line" d="M32.61,398.77L65.22,380.58L97.84,364.33L163.06,334.05L195.67,319.42L326.12,261.96L489.19,190.76L652.25,119.63" style="vector-effect: non-scaling-stroke; fill: none; stroke: rgb(240, 96, 115); stroke-opacity: 1; stroke-width: 0.5px; opacity: 1;"/></g><g class="points"/><g class="text"/></g><g class="trace scatter traceff4f2b" style="stroke-miterlimit: 2; opacity: 1;"><g class="fills"/><g class="errorbars"/><g class="lines"><path class="js-line" d="M32.61,398.73L65.22,380.55L97.84,364.3L163.06,334.03L195.67,319.4L326.12,261.95L489.19,190.75L652.25,119.63" style="vector-effect: non-scaling-stroke; fill: none; stroke: rgb(221, 101, 182); stroke-opacity: 1; stroke-width: 0.5px; opacity: 1;"/></g><g class="points"/><g class="text"/></g><g class="trace scatter tracee3d853" style="stroke-miterlimit: 2; opacity: 1;"><g class="fills"/><g class="errorbars"/><g class="lines"><path class="js-line" d="M32.61,398.7L65.22,380.52L97.84,364.28L163.06,334.01L195.67,319.38L326.12,261.93L489.19,190.74L652.25,119.63" style="vector-effect: non-scaling-stroke; fill: none; stroke: rgb(108, 159, 51); stroke-opacity: 1; stroke-width: 0.5px; opacity: 1;"/></g><g class="points"/><g class="text"/></g><g class="trace scatter tracea4e5ad" style="stroke-miterlimit: 2; opacity: 1;"><g class="fills"/><g class="errorbars"/><g class="lines"><path class="js-line" d="M237.77,399.05L237.77,370.88" style="vector-effect: non-scaling-stroke; fill: none; stroke: rgb(0, 154, 250); stroke-opacity: 1; stroke-width: 1px; opacity: 1;"/></g><g class="points"/><g class="text"/></g><g class="trace scatter tracedab44c" style="stroke-miterlimit: 2; opacity: 1;"><g class="fills"/><g class="errorbars"/><g class="lines"><path class="js-line" d="M28.11,397.7L56.21,378.41L84.32,361.44L140.53,330.44L168.64,315.7L196.75,301.23L281.06,258.73L562.13,119.63" style="vector-effect: non-scaling-stroke; fill: none; stroke: rgb(227, 111, 71); stroke-opacity: 1; stroke-width: 0.5px; opacity: 1; stroke-dasharray: 9px, 9px;"/></g><g class="points"/><g class="text"/></g><g class="trace scatter trace138ea9" style="stroke-miterlimit: 2; opacity: 1;"><g class="fills"/><g class="errorbars"/><g class="lines"><path class="js-line" d="M37.04,401.71L74.07,384.45L111.11,368.7L222.22,323.99L259.26,309.34L740.74,119.63" style="vector-effect: non-scaling-stroke; fill: none; stroke: rgb(62, 164, 78); stroke-opacity: 1; stroke-width: 0.5px; opacity: 1; stroke-dasharray: 9px, 9px;"/></g><g class="points"/><g class="text"/></g><g class="trace scatter trace1bf220" style="stroke-miterlimit: 2; opacity: 1;"><g class="fills"/><g class="errorbars"/><g class="lines"><path class="js-line" d="M22.5,407.08L51.21,390.97L81.48,375.58L205.97,315.25L299.85,270.11L612.84,119.63" style="vector-effect: non-scaling-stroke; fill: none; stroke: rgb(195, 113, 210); stroke-opacity: 1; stroke-width: 0.5px; opacity: 1; stroke-dasharray: 9px, 9px;"/></g><g class="points"/><g class="text"/></g></g></g><g class="overplot"/><path class="xlines-above crisp" d="M42.15799066783318,445.6252187226596H695.4068241469815" style="fill: none; stroke-width: 1px; stroke: rgb(0, 0, 0); stroke-opacity: 1;"/><path class="ylines-above crisp" d="M42.65799066783318,24.527559055118104V445.1252187226596" style="fill: none; stroke-width: 1px; stroke: rgb(0, 0, 0); stroke-opacity: 1;"/><g class="overlines-above"/><g class="xaxislayer-above"><path class="xtick ticks crisp" d="M0,445.1252187226596v-5" transform="translate(138.26799066783317,0)" style="stroke: rgb(0, 0, 0); stroke-opacity: 1; stroke-width: 1px;"/><path class="xtick ticks crisp" d="M0,445.1252187226596v-5" transform="translate(233.3779906678332,0)" style="stroke: rgb(0, 0, 0); stroke-opacity: 1; stroke-width: 1px;"/><path class="xtick ticks crisp" d="M0,445.1252187226596v-5" transform="translate(328.4879906678332,0)" style="stroke: rgb(0, 0, 0); stroke-opacity: 1; stroke-width: 1px;"/><path class="xtick ticks crisp" d="M0,445.1252187226596v-5" transform="translate(423.5879906678332,0)" style="stroke: rgb(0, 0, 0); stroke-opacity: 1; stroke-width: 1px;"/><path class="xtick ticks crisp" d="M0,445.1252187226596v-5" transform="translate(518.6979906678332,0)" style="stroke: rgb(0, 0, 0); stroke-opacity: 1; stroke-width: 1px;"/><path class="xtick ticks crisp" d="M0,445.1252187226596v-5" transform="translate(613.8079906678331,0)" style="stroke: rgb(0, 0, 0); stroke-opacity: 1; stroke-width: 1px;"/><g class="xtick"><text text-anchor="middle" x="0" y="459.3252187226596" transform="translate(43.15799066783318,0)" style="font-family: Helvetica; font-size: 11px; fill: rgb(0, 0, 0); fill-opacity: 1; white-space: pre;">0</text></g><g class="xtick"><text text-anchor="middle" x="0" y="459.3252187226596" transform="translate(138.26799066783317,0)" style="font-family: Helvetica; font-size: 11px; fill: rgb(0, 0, 0); fill-opacity: 1; white-space: pre;">2</text></g><g class="xtick"><text text-anchor="middle" x="0" y="459.3252187226596" transform="translate(233.3779906678332,0)" style="font-family: Helvetica; font-size: 11px; fill: rgb(0, 0, 0); fill-opacity: 1; white-space: pre;">4</text></g><g class="xtick"><text text-anchor="middle" x="0" y="459.3252187226596" transform="translate(328.4879906678332,0)" style="font-family: Helvetica; font-size: 11px; fill: rgb(0, 0, 0); fill-opacity: 1; white-space: pre;">6</text></g><g class="xtick"><text text-anchor="middle" x="0" y="459.3252187226596" transform="translate(423.5879906678332,0)" style="font-family: Helvetica; font-size: 11px; fill: rgb(0, 0, 0); fill-opacity: 1; white-space: pre;">8</text></g><g class="xtick"><text text-anchor="middle" x="0" y="459.3252187226596" transform="translate(518.6979906678332,0)" style="font-family: Helvetica; font-size: 11px; fill: rgb(0, 0, 0); fill-opacity: 1; white-space: pre;">10</text></g><g class="xtick"><text text-anchor="middle" x="0" y="459.3252187226596" transform="translate(613.8079906678331,0)" style="font-family: Helvetica; font-size: 11px; fill: rgb(0, 0, 0); fill-opacity: 1; white-space: pre;">12</text></g></g><g class="yaxislayer-above"><path class="ytick ticks crisp" d="M43.15799066783318,0h5" transform="translate(0,361.7975590551181)" style="stroke: rgb(0, 0, 0); stroke-opacity: 1; stroke-width: 1px;"/><path class="ytick ticks crisp" d="M43.15799066783318,0h5" transform="translate(0,271.8375590551181)" style="stroke: rgb(0, 0, 0); stroke-opacity: 1; stroke-width: 1px;"/><path class="ytick ticks crisp" d="M43.15799066783318,0h5" transform="translate(0,181.8675590551181)" style="stroke: rgb(0, 0, 0); stroke-opacity: 1; stroke-width: 1px;"/><path class="ytick ticks crisp" d="M43.15799066783318,0h5" transform="translate(0,91.9075590551181)" style="stroke: rgb(0, 0, 0); stroke-opacity: 1; stroke-width: 1px;"/><g class="ytick"><text text-anchor="end" x="39.95799066783318" y="3.8499999999999996" transform="translate(0,361.7975590551181)" style="font-family: Helvetica; font-size: 11px; fill: rgb(0, 0, 0); fill-opacity: 1; white-space: pre;">10</text></g><g class="ytick"><text text-anchor="end" x="39.95799066783318" y="3.8499999999999996" transform="translate(0,271.8375590551181)" style="font-family: Helvetica; font-size: 11px; fill: rgb(0, 0, 0); fill-opacity: 1; white-space: pre;">20</text></g><g class="ytick"><text text-anchor="end" x="39.95799066783318" y="3.8499999999999996" transform="translate(0,181.8675590551181)" style="font-family: Helvetica; font-size: 11px; fill: rgb(0, 0, 0); fill-opacity: 1; white-space: pre;">30</text></g><g class="ytick"><text text-anchor="end" x="39.95799066783318" y="3.8499999999999996" transform="translate(0,91.9075590551181)" style="font-family: Helvetica; font-size: 11px; fill: rgb(0, 0, 0); fill-opacity: 1; white-space: pre;">40</text></g></g><g class="overaxes-above"/></g></g><g class="polarlayer"/><g class="ternarylayer"/><g class="geolayer"/><g class="funnelarealayer"/><g class="pielayer"/><g class="treemaplayer"/><g class="sunburstlayer"/><g class="glimages"/><defs id="topdefs-e8e3a0"><g class="clips"/></defs><g class="layer-above"><g class="imagelayer"/><g class="shapelayer"/></g><g class="infolayer"><g class="g-gtitle"/><g class="g-xtitle" transform="translate(0,-3.6252187226596106)"><text class="xtitle" x="369.2824074074074" y="500.1252187226596" text-anchor="middle" style="font-family: Helvetica; font-size: 15px; fill: rgb(0, 0, 0); opacity: 1; font-weight: normal; white-space: pre;">Distance</text></g><g class="g-ytitle" transform="translate(10.85546875,0)"><text class="ytitle" transform="rotate(-90,3.1579906678331824,234.82638888888886)" x="3.1579906678331824" y="234.82638888888886" text-anchor="middle" style="font-family: Helvetica; font-size: 15px; fill: rgb(0, 0, 0); opacity: 1; font-weight: normal; white-space: pre;">Duration</text></g></g></svg>