<?xml version="1.0" encoding="utf-8"?>
<svg xmlns="http://www.w3.org/2000/svg" xmlns:xlink="http://www.w3.org/1999/xlink" width="600" height="400" viewBox="0 0 2400 1600">
<defs>
  <clipPath id="clip410">
    <rect x="0" y="0" width="2400" height="1600"/>
  </clipPath>
</defs>
<path clip-path="url(#clip410)" d="
M0 1600 L2400 1600 L2400 0 L0 0  Z
  " fill="#ffffff" fill-rule="evenodd" fill-opacity="1"/>
<defs>
  <clipPath id="clip411">
    <rect x="480" y="0" width="1681" height="1600"/>
  </clipPath>
</defs>
<path clip-path="url(#clip410)" d="
M200.028 1423.18 L2352.76 1423.18 L2352.76 123.472 L200.028 123.472  Z
  " fill="#ffffff" fill-rule="evenodd" fill-opacity="1"/>
<defs>
  <clipPath id="clip412">
    <rect x="200" y="123" width="2154" height="1301"/>
  </clipPath>
</defs>
<polyline clip-path="url(#clip410)" style="stroke:#000000; stroke-width:4; stroke-opacity:1; fill:none" points="
  200.028,1423.18 2352.76,1423.18 
  "/>
<polyline clip-path="url(#clip410)" style="stroke:#000000; stroke-width:4; stroke-opacity:1; fill:none" points="
  200.028,1423.18 200.028,123.472 
  "/>
<polyline clip-path="url(#clip410)" style="stroke:#000000; stroke-width:4; stroke-opacity:1; fill:none" points="
  200.028,1423.18 200.028,1407.58 
  "/>
<polyline clip-path="url(#clip410)" style="stroke:#000000; stroke-width:4; stroke-opacity:1; fill:none" points="
  513.931,1423.18 513.931,1407.58 
  "/>
<polyline clip-path="url(#clip410)" style="stroke:#000000; stroke-width:4; stroke-opacity:1; fill:none" points="
  827.833,1423.18 827.833,1407.58 
  "/>
<polyline clip-path="url(#clip410)" style="stroke:#000000; stroke-width:4; stroke-opacity:1; fill:none" points="
  1141.73,1423.18 1141.73,1407.58 
  "/>
<polyline clip-path="url(#clip410)" style="stroke:#000000; stroke-width:4; stroke-opacity:1; fill:none" points="
  1455.64,1423.18 1455.64,1407.58 
  "/>
<polyline clip-path="url(#clip410)" style="stroke:#000000; stroke-width:4; stroke-opacity:1; fill:none" points="
  1769.54,1423.18 1769.54,1407.58 
  "/>
<polyline clip-path="url(#clip410)" style="stroke:#000000; stroke-width:4; stroke-opacity:1; fill:none" points="
  2083.44,1423.18 2083.44,1407.58 
  "/>
<polyline clip-path="url(#clip410)" style="stroke:#000000; stroke-width:4; stroke-opacity:1; fill:none" points="
  200.028,1423.18 225.861,1423.18 
  "/>
<polyline clip-path="url(#clip410)" style="stroke:#000000; stroke-width:4; stroke-opacity:1; fill:none" points="
  200.028,1038.63 225.861,1038.63 
  "/>
<polyline clip-path="url(#clip410)" style="stroke:#000000; stroke-width:4; stroke-opacity:1; fill:none" points="
  200.028,654.071 225.861,654.071 
  "/>
<polyline clip-path="url(#clip410)" style="stroke:#000000; stroke-width:4; stroke-opacity:1; fill:none" points="
  200.028,269.516 225.861,269.516 
  "/>
<path clip-path="url(#clip410)" d="M 0 0 M200.028 1445.17 Q196.417 1445.17 194.589 1448.74 Q192.783 1452.28 192.783 1459.41 Q192.783 1466.51 194.589 1470.08 Q196.417 1473.62 200.028 1473.62 Q203.663 1473.62 205.468 1470.08 Q207.297 1466.51 207.297 1459.41 Q207.297 1452.28 205.468 1448.74 Q203.663 1445.17 200.028 1445.17 M200.028 1441.47 Q205.839 1441.47 208.894 1446.07 Q211.973 1450.66 211.973 1459.41 Q211.973 1468.13 208.894 1472.74 Q205.839 1477.32 200.028 1477.32 Q194.218 1477.32 191.14 1472.74 Q188.084 1468.13 188.084 1459.41 Q188.084 1450.66 191.14 1446.07 Q194.218 1441.47 200.028 1441.47 Z" fill="#000000" fill-rule="evenodd" fill-opacity="1" /><path clip-path="url(#clip410)" d="M 0 0 M508.583 1472.72 L524.903 1472.72 L524.903 1476.65 L502.958 1476.65 L502.958 1472.72 Q505.62 1469.96 510.204 1465.33 Q514.81 1460.68 515.991 1459.34 Q518.236 1456.81 519.116 1455.08 Q520.019 1453.32 520.019 1451.63 Q520.019 1448.87 518.074 1447.14 Q516.153 1445.4 513.051 1445.4 Q510.852 1445.4 508.398 1446.17 Q505.968 1446.93 503.19 1448.48 L503.19 1443.76 Q506.014 1442.62 508.468 1442.05 Q510.921 1441.47 512.958 1441.47 Q518.329 1441.47 521.523 1444.15 Q524.718 1446.84 524.718 1451.33 Q524.718 1453.46 523.907 1455.38 Q523.12 1457.28 521.014 1459.87 Q520.435 1460.54 517.333 1463.76 Q514.232 1466.95 508.583 1472.72 Z" fill="#000000" fill-rule="evenodd" fill-opacity="1" /><path clip-path="url(#clip410)" d="M 0 0 M830.842 1446.17 L819.037 1464.61 L830.842 1464.61 L830.842 1446.17 M829.615 1442.09 L835.495 1442.09 L835.495 1464.61 L840.425 1464.61 L840.425 1468.5 L835.495 1468.5 L835.495 1476.65 L830.842 1476.65 L830.842 1468.5 L815.24 1468.5 L815.24 1463.99 L829.615 1442.09 Z" fill="#000000" fill-rule="evenodd" fill-opacity="1" /><path clip-path="url(#clip410)" d="M 0 0 M1142.14 1457.51 Q1138.99 1457.51 1137.14 1459.66 Q1135.31 1461.81 1135.31 1465.56 Q1135.31 1469.29 1137.14 1471.47 Q1138.99 1473.62 1142.14 1473.62 Q1145.29 1473.62 1147.12 1471.47 Q1148.97 1469.29 1148.97 1465.56 Q1148.97 1461.81 1147.12 1459.66 Q1145.29 1457.51 1142.14 1457.51 M1151.42 1442.86 L1151.42 1447.11 Q1149.66 1446.28 1147.86 1445.84 Q1146.08 1445.4 1144.32 1445.4 Q1139.69 1445.4 1137.23 1448.53 Q1134.8 1451.65 1134.45 1457.97 Q1135.82 1455.96 1137.88 1454.89 Q1139.94 1453.8 1142.42 1453.8 Q1147.63 1453.8 1150.64 1456.98 Q1153.67 1460.12 1153.67 1465.56 Q1153.67 1470.89 1150.52 1474.11 Q1147.37 1477.32 1142.14 1477.32 Q1136.14 1477.32 1132.97 1472.74 Q1129.8 1468.13 1129.8 1459.41 Q1129.8 1451.21 1133.69 1446.35 Q1137.58 1441.47 1144.13 1441.47 Q1145.89 1441.47 1147.67 1441.81 Q1149.48 1442.16 1151.42 1442.86 Z" fill="#000000" fill-rule="evenodd" fill-opacity="1" /><path clip-path="url(#clip410)" d="M 0 0 M1455.64 1460.24 Q1452.3 1460.24 1450.38 1462.02 Q1448.48 1463.8 1448.48 1466.93 Q1448.48 1470.05 1450.38 1471.84 Q1452.3 1473.62 1455.64 1473.62 Q1458.97 1473.62 1460.89 1471.84 Q1462.81 1470.03 1462.81 1466.93 Q1462.81 1463.8 1460.89 1462.02 Q1458.99 1460.24 1455.64 1460.24 M1450.96 1458.25 Q1447.95 1457.51 1446.26 1455.45 Q1444.6 1453.39 1444.6 1450.43 Q1444.6 1446.28 1447.54 1443.87 Q1450.5 1441.47 1455.64 1441.47 Q1460.8 1441.47 1463.74 1443.87 Q1466.68 1446.28 1466.68 1450.43 Q1466.68 1453.39 1464.99 1455.45 Q1463.32 1457.51 1460.34 1458.25 Q1463.72 1459.04 1465.59 1461.33 Q1467.49 1463.62 1467.49 1466.93 Q1467.49 1471.95 1464.41 1474.64 Q1461.35 1477.32 1455.64 1477.32 Q1449.92 1477.32 1446.84 1474.64 Q1443.79 1471.95 1443.79 1466.93 Q1443.79 1463.62 1445.68 1461.33 Q1447.58 1459.04 1450.96 1458.25 M1449.25 1450.86 Q1449.25 1453.55 1450.91 1455.05 Q1452.6 1456.56 1455.64 1456.56 Q1458.65 1456.56 1460.34 1455.05 Q1462.05 1453.55 1462.05 1450.86 Q1462.05 1448.18 1460.34 1446.68 Q1458.65 1445.17 1455.64 1445.17 Q1452.6 1445.17 1450.91 1446.68 Q1449.25 1448.18 1449.25 1450.86 Z" fill="#000000" fill-rule="evenodd" fill-opacity="1" /><path clip-path="url(#clip410)" d="M 0 0 M1746.41 1472.72 L1754.05 1472.72 L1754.05 1446.35 L1745.74 1448.02 L1745.74 1443.76 L1754.01 1442.09 L1758.68 1442.09 L1758.68 1472.72 L1766.32 1472.72 L1766.32 1476.65 L1746.41 1476.65 L1746.41 1472.72 Z" fill="#000000" fill-rule="evenodd" fill-opacity="1" /><path clip-path="url(#clip410)" d="M 0 0 M1781.39 1445.17 Q1777.78 1445.17 1775.95 1448.74 Q1774.15 1452.28 1774.15 1459.41 Q1774.15 1466.51 1775.95 1470.08 Q1777.78 1473.62 1781.39 1473.62 Q1785.03 1473.62 1786.83 1470.08 Q1788.66 1466.51 1788.66 1459.41 Q1788.66 1452.28 1786.83 1448.74 Q1785.03 1445.17 1781.39 1445.17 M1781.39 1441.47 Q1787.2 1441.47 1790.26 1446.07 Q1793.34 1450.66 1793.34 1459.41 Q1793.34 1468.13 1790.26 1472.74 Q1787.2 1477.32 1781.39 1477.32 Q1775.58 1477.32 1772.5 1472.74 Q1769.45 1468.13 1769.45 1459.41 Q1769.45 1450.66 1772.5 1446.07 Q1775.58 1441.47 1781.39 1441.47 Z" fill="#000000" fill-rule="evenodd" fill-opacity="1" /><path clip-path="url(#clip410)" d="M 0 0 M2061.12 1472.72 L2068.75 1472.72 L2068.75 1446.35 L2060.44 1448.02 L2060.44 1443.76 L2068.71 1442.09 L2073.38 1442.09 L2073.38 1472.72 L2081.02 1472.72 L2081.02 1476.65 L2061.12 1476.65 L2061.12 1472.72 Z" fill="#000000" fill-rule="evenodd" fill-opacity="1" /><path clip-path="url(#clip410)" d="M 0 0 M2090.12 1472.72 L2106.44 1472.72 L2106.44 1476.65 L2084.49 1476.65 L2084.49 1472.72 Q2087.16 1469.96 2091.74 1465.33 Q2096.35 1460.68 2097.53 1459.34 Q2099.77 1456.81 2100.65 1455.08 Q2101.55 1453.32 2101.55 1451.63 Q2101.55 1448.87 2099.61 1447.14 Q2097.69 1445.4 2094.59 1445.4 Q2092.39 1445.4 2089.93 1446.17 Q2087.5 1446.93 2084.73 1448.48 L2084.73 1443.76 Q2087.55 1442.62 2090 1442.05 Q2092.46 1441.47 2094.49 1441.47 Q2099.87 1441.47 2103.06 1444.15 Q2106.25 1446.84 2106.25 1451.33 Q2106.25 1453.46 2105.44 1455.38 Q2104.66 1457.28 2102.55 1459.87 Q2101.97 1460.54 2098.87 1463.76 Q2095.77 1466.95 2090.12 1472.72 Z" fill="#000000" fill-rule="evenodd" fill-opacity="1" /><path clip-path="url(#clip410)" d="M 0 0 M164.084 1408.98 Q160.473 1408.98 158.644 1412.54 Q156.839 1416.08 156.839 1423.21 Q156.839 1430.32 158.644 1433.89 Q160.473 1437.43 164.084 1437.43 Q167.718 1437.43 169.524 1433.89 Q171.353 1430.32 171.353 1423.21 Q171.353 1416.08 169.524 1412.54 Q167.718 1408.98 164.084 1408.98 M164.084 1405.27 Q169.894 1405.27 172.95 1409.88 Q176.028 1414.46 176.028 1423.21 Q176.028 1431.94 172.95 1436.55 Q169.894 1441.13 164.084 1441.13 Q158.274 1441.13 155.195 1436.55 Q152.14 1431.94 152.14 1423.21 Q152.14 1414.46 155.195 1409.88 Q158.274 1405.27 164.084 1405.27 Z" fill="#000000" fill-rule="evenodd" fill-opacity="1" /><path clip-path="url(#clip410)" d="M 0 0 M129.107 1051.97 L136.746 1051.97 L136.746 1025.6 L128.436 1027.27 L128.436 1023.01 L136.7 1021.35 L141.376 1021.35 L141.376 1051.97 L149.015 1051.97 L149.015 1055.91 L129.107 1055.91 L129.107 1051.97 Z" fill="#000000" fill-rule="evenodd" fill-opacity="1" /><path clip-path="url(#clip410)" d="M 0 0 M164.084 1024.42 Q160.473 1024.42 158.644 1027.99 Q156.839 1031.53 156.839 1038.66 Q156.839 1045.77 158.644 1049.33 Q160.473 1052.87 164.084 1052.87 Q167.718 1052.87 169.524 1049.33 Q171.353 1045.77 171.353 1038.66 Q171.353 1031.53 169.524 1027.99 Q167.718 1024.42 164.084 1024.42 M164.084 1020.72 Q169.894 1020.72 172.95 1025.33 Q176.028 1029.91 176.028 1038.66 Q176.028 1047.39 172.95 1051.99 Q169.894 1056.58 164.084 1056.58 Q158.274 1056.58 155.195 1051.99 Q152.14 1047.39 152.14 1038.66 Q152.14 1029.91 155.195 1025.33 Q158.274 1020.72 164.084 1020.72 Z" fill="#000000" fill-rule="evenodd" fill-opacity="1" /><path clip-path="url(#clip410)" d="M 0 0 M132.695 667.416 L149.015 667.416 L149.015 671.351 L127.07 671.351 L127.07 667.416 Q129.732 664.661 134.316 660.032 Q138.922 655.379 140.103 654.036 Q142.348 651.513 143.228 649.777 Q144.13 648.018 144.13 646.328 Q144.13 643.573 142.186 641.837 Q140.265 640.101 137.163 640.101 Q134.964 640.101 132.51 640.865 Q130.08 641.629 127.302 643.18 L127.302 638.458 Q130.126 637.323 132.58 636.745 Q135.033 636.166 137.07 636.166 Q142.441 636.166 145.635 638.851 Q148.829 641.536 148.829 646.027 Q148.829 648.157 148.019 650.078 Q147.232 651.976 145.126 654.569 Q144.547 655.24 141.445 658.457 Q138.343 661.652 132.695 667.416 Z" fill="#000000" fill-rule="evenodd" fill-opacity="1" /><path clip-path="url(#clip410)" d="M 0 0 M164.084 639.87 Q160.473 639.87 158.644 643.434 Q156.839 646.976 156.839 654.106 Q156.839 661.212 158.644 664.777 Q160.473 668.319 164.084 668.319 Q167.718 668.319 169.524 664.777 Q171.353 661.212 171.353 654.106 Q171.353 646.976 169.524 643.434 Q167.718 639.87 164.084 639.87 M164.084 636.166 Q169.894 636.166 172.95 640.772 Q176.028 645.356 176.028 654.106 Q176.028 662.832 172.95 667.439 Q169.894 672.022 164.084 672.022 Q158.274 672.022 155.195 667.439 Q152.14 662.832 152.14 654.106 Q152.14 645.356 155.195 640.772 Q158.274 636.166 164.084 636.166 Z" fill="#000000" fill-rule="evenodd" fill-opacity="1" /><path clip-path="url(#clip410)" d="M 0 0 M141.885 268.162 Q145.242 268.88 147.117 271.148 Q149.015 273.417 149.015 276.75 Q149.015 281.866 145.496 284.667 Q141.978 287.468 135.496 287.468 Q133.32 287.468 131.006 287.028 Q128.714 286.611 126.26 285.755 L126.26 281.241 Q128.205 282.375 130.519 282.954 Q132.834 283.533 135.357 283.533 Q139.755 283.533 142.047 281.797 Q144.362 280.06 144.362 276.75 Q144.362 273.695 142.209 271.982 Q140.08 270.246 136.26 270.246 L132.232 270.246 L132.232 266.403 L136.445 266.403 Q139.894 266.403 141.723 265.037 Q143.552 263.648 143.552 261.056 Q143.552 258.394 141.654 256.982 Q139.779 255.547 136.26 255.547 Q134.339 255.547 132.14 255.963 Q129.941 256.38 127.302 257.26 L127.302 253.093 Q129.964 252.352 132.279 251.982 Q134.617 251.612 136.677 251.612 Q142.001 251.612 145.103 254.042 Q148.204 256.449 148.204 260.57 Q148.204 263.44 146.561 265.431 Q144.917 267.398 141.885 268.162 Z" fill="#000000" fill-rule="evenodd" fill-opacity="1" /><path clip-path="url(#clip410)" d="M 0 0 M164.084 255.315 Q160.473 255.315 158.644 258.88 Q156.839 262.422 156.839 269.551 Q156.839 276.658 158.644 280.222 Q160.473 283.764 164.084 283.764 Q167.718 283.764 169.524 280.222 Q171.353 276.658 171.353 269.551 Q171.353 262.422 169.524 258.88 Q167.718 255.315 164.084 255.315 M164.084 251.612 Q169.894 251.612 172.95 256.218 Q176.028 260.801 176.028 269.551 Q176.028 278.278 172.95 282.884 Q169.894 287.468 164.084 287.468 Q158.274 287.468 155.195 282.884 Q152.14 278.278 152.14 269.551 Q152.14 260.801 155.195 256.218 Q158.274 251.612 164.084 251.612 Z" fill="#000000" fill-rule="evenodd" fill-opacity="1" /><path clip-path="url(#clip410)" d="M 0 0 M833.081 12.096 L884.244 12.096 L884.244 18.9825 L862.775 18.9825 L862.775 72.576 L854.551 72.576 L854.551 18.9825 L833.081 18.9825 L833.081 12.096 Z" fill="#000000" fill-rule="evenodd" fill-opacity="1" /><path clip-path="url(#clip410)" d="M 0 0 M889.511 27.2059 L896.964 27.2059 L896.964 72.576 L889.511 72.576 L889.511 27.2059 M889.511 9.54393 L896.964 9.54393 L896.964 18.9825 L889.511 18.9825 L889.511 9.54393 Z" fill="#000000" fill-rule="evenodd" fill-opacity="1" /><path clip-path="url(#clip410)" d="M 0 0 M940.106 35.9153 Q942.901 30.8922 946.79 28.5022 Q950.679 26.1121 955.945 26.1121 Q963.034 26.1121 966.883 31.0947 Q970.731 36.0368 970.731 45.1919 L970.731 72.576 L963.237 72.576 L963.237 45.4349 Q963.237 38.913 960.928 35.7533 Q958.619 32.5936 953.879 32.5936 Q948.087 32.5936 944.724 36.4419 Q941.362 40.2903 941.362 46.9338 L941.362 72.576 L933.868 72.576 L933.868 45.4349 Q933.868 38.8725 931.559 35.7533 Q929.25 32.5936 924.429 32.5936 Q918.718 32.5936 915.355 36.4824 Q911.993 40.3308 911.993 46.9338 L911.993 72.576 L904.499 72.576 L904.499 27.2059 L911.993 27.2059 L911.993 34.2544 Q914.545 30.082 918.11 28.0971 Q921.675 26.1121 926.576 26.1121 Q931.518 26.1121 934.962 28.6237 Q938.445 31.1352 940.106 35.9153 Z" fill="#000000" fill-rule="evenodd" fill-opacity="1" /><path clip-path="url(#clip410)" d="M 0 0 M1017.36 48.0275 L1017.36 51.6733 L983.086 51.6733 Q983.573 59.3701 987.704 63.421 Q991.877 67.4314 999.29 67.4314 Q1003.58 67.4314 1007.59 66.3781 Q1011.65 65.3249 1015.62 63.2184 L1015.62 70.267 Q1011.6 71.9684 1007.39 72.8596 Q1003.18 73.7508 998.844 73.7508 Q987.988 73.7508 981.628 67.4314 Q975.309 61.1119 975.309 50.3365 Q975.309 39.1965 981.304 32.6746 Q987.34 26.1121 997.548 26.1121 Q1006.7 26.1121 1012.01 32.0264 Q1017.36 37.9003 1017.36 48.0275 M1009.9 45.84 Q1009.82 39.7232 1006.46 36.0774 Q1003.14 32.4315 997.629 32.4315 Q991.391 32.4315 987.623 35.9558 Q983.897 39.4801 983.329 45.8805 L1009.9 45.84 Z" fill="#000000" fill-rule="evenodd" fill-opacity="1" /><path clip-path="url(#clip410)" d="M 0 0 M1058.92 14.324 L1058.92 27.2059 L1074.27 27.2059 L1074.27 32.9987 L1058.92 32.9987 L1058.92 57.6282 Q1058.92 63.1779 1060.42 64.7578 Q1061.96 66.3376 1066.62 66.3376 L1074.27 66.3376 L1074.27 72.576 L1066.62 72.576 Q1057.99 72.576 1054.71 69.3758 Q1051.43 66.1351 1051.43 57.6282 L1051.43 32.9987 L1045.96 32.9987 L1045.96 27.2059 L1051.43 27.2059 L1051.43 14.324 L1058.92 14.324 Z" fill="#000000" fill-rule="evenodd" fill-opacity="1" /><path clip-path="url(#clip410)" d="M 0 0 M1099.67 32.4315 Q1093.68 32.4315 1090.19 37.1306 Q1086.71 41.7891 1086.71 49.9314 Q1086.71 58.0738 1090.15 62.7728 Q1093.64 67.4314 1099.67 67.4314 Q1105.63 67.4314 1109.11 62.7323 Q1112.59 58.0333 1112.59 49.9314 Q1112.59 41.8701 1109.11 37.1711 Q1105.63 32.4315 1099.67 32.4315 M1099.67 26.1121 Q1109.39 26.1121 1114.94 32.4315 Q1120.49 38.7509 1120.49 49.9314 Q1120.49 61.0714 1114.94 67.4314 Q1109.39 73.7508 1099.67 73.7508 Q1089.91 73.7508 1084.36 67.4314 Q1078.85 61.0714 1078.85 49.9314 Q1078.85 38.7509 1084.36 32.4315 Q1089.91 26.1121 1099.67 26.1121 Z" fill="#000000" fill-rule="evenodd" fill-opacity="1" /><path clip-path="url(#clip410)" d="M 0 0 M1150.35 27.2059 L1157.8 27.2059 L1167.12 62.6108 L1176.4 27.2059 L1185.19 27.2059 L1194.5 62.6108 L1203.78 27.2059 L1211.23 27.2059 L1199.36 72.576 L1190.57 72.576 L1180.81 35.3887 L1171.01 72.576 L1162.22 72.576 L1150.35 27.2059 Z" fill="#000000" fill-rule="evenodd" fill-opacity="1" /><path clip-path="url(#clip410)" d="M 0 0 M1239.67 49.7694 Q1230.64 49.7694 1227.15 51.8354 Q1223.67 53.9013 1223.67 58.8839 Q1223.67 62.8538 1226.26 65.2034 Q1228.9 67.5124 1233.39 67.5124 Q1239.59 67.5124 1243.32 63.1374 Q1247.08 58.7219 1247.08 51.4303 L1247.08 49.7694 L1239.67 49.7694 M1254.54 46.6907 L1254.54 72.576 L1247.08 72.576 L1247.08 65.6895 Q1244.53 69.8214 1240.72 71.8063 Q1236.92 73.7508 1231.41 73.7508 Q1224.44 73.7508 1220.31 69.8619 Q1216.22 65.9325 1216.22 59.3701 Q1216.22 51.7138 1221.32 47.825 Q1226.46 43.9361 1236.63 43.9361 L1247.08 43.9361 L1247.08 43.2069 Q1247.08 38.0623 1243.68 35.2672 Q1240.32 32.4315 1234.2 32.4315 Q1230.31 32.4315 1226.63 33.3632 Q1222.94 34.295 1219.54 36.1584 L1219.54 29.2718 Q1223.63 27.692 1227.48 26.9223 Q1231.33 26.1121 1234.97 26.1121 Q1244.82 26.1121 1249.68 31.2163 Q1254.54 36.3204 1254.54 46.6907 Z" fill="#000000" fill-rule="evenodd" fill-opacity="1" /><path clip-path="url(#clip410)" d="M 0 0 M1262.36 9.54393 L1269.81 9.54393 L1269.81 72.576 L1262.36 72.576 L1262.36 9.54393 Z" fill="#000000" fill-rule="evenodd" fill-opacity="1" /><path clip-path="url(#clip410)" d="M 0 0 M1277.34 9.54393 L1284.84 9.54393 L1284.84 46.7717 L1307.08 27.2059 L1316.6 27.2059 L1292.54 48.4326 L1317.61 72.576 L1307.89 72.576 L1284.84 50.4176 L1284.84 72.576 L1277.34 72.576 L1277.34 9.54393 Z" fill="#000000" fill-rule="evenodd" fill-opacity="1" /><path clip-path="url(#clip410)" d="M 0 0 M1372.42 49.7694 Q1363.39 49.7694 1359.9 51.8354 Q1356.42 53.9013 1356.42 58.8839 Q1356.42 62.8538 1359.01 65.2034 Q1361.64 67.5124 1366.14 67.5124 Q1372.34 67.5124 1376.06 63.1374 Q1379.83 58.7219 1379.83 51.4303 L1379.83 49.7694 L1372.42 49.7694 M1387.29 46.6907 L1387.29 72.576 L1379.83 72.576 L1379.83 65.6895 Q1377.28 69.8214 1373.47 71.8063 Q1369.66 73.7508 1364.15 73.7508 Q1357.19 73.7508 1353.06 69.8619 Q1348.96 65.9325 1348.96 59.3701 Q1348.96 51.7138 1354.07 47.825 Q1359.21 43.9361 1369.38 43.9361 L1379.83 43.9361 L1379.83 43.2069 Q1379.83 38.0623 1376.43 35.2672 Q1373.07 32.4315 1366.95 32.4315 Q1363.06 32.4315 1359.37 33.3632 Q1355.69 34.295 1352.29 36.1584 L1352.29 29.2718 Q1356.38 27.692 1360.23 26.9223 Q1364.07 26.1121 1367.72 26.1121 Q1377.56 26.1121 1382.42 31.2163 Q1387.29 36.3204 1387.29 46.6907 Z" fill="#000000" fill-rule="evenodd" fill-opacity="1" /><path clip-path="url(#clip410)" d="M 0 0 M1451.33 34.0924 L1451.33 9.54393 L1458.78 9.54393 L1458.78 72.576 L1451.33 72.576 L1451.33 65.7705 Q1448.98 69.8214 1445.38 71.8063 Q1441.81 73.7508 1436.79 73.7508 Q1428.56 73.7508 1423.38 67.1883 Q1418.23 60.6258 1418.23 49.9314 Q1418.23 39.2371 1423.38 32.6746 Q1428.56 26.1121 1436.79 26.1121 Q1441.81 26.1121 1445.38 28.0971 Q1448.98 30.0415 1451.33 34.0924 M1425.93 49.9314 Q1425.93 58.1548 1429.29 62.8538 Q1432.7 67.5124 1438.61 67.5124 Q1444.52 67.5124 1447.93 62.8538 Q1451.33 58.1548 1451.33 49.9314 Q1451.33 41.7081 1447.93 37.0496 Q1444.52 32.3505 1438.61 32.3505 Q1432.7 32.3505 1429.29 37.0496 Q1425.93 41.7081 1425.93 49.9314 Z" fill="#000000" fill-rule="evenodd" fill-opacity="1" /><path clip-path="url(#clip410)" d="M 0 0 M1466.6 27.2059 L1474.06 27.2059 L1474.06 72.576 L1466.6 72.576 L1466.6 27.2059 M1466.6 9.54393 L1474.06 9.54393 L1474.06 18.9825 L1466.6 18.9825 L1466.6 9.54393 Z" fill="#000000" fill-rule="evenodd" fill-opacity="1" /><path clip-path="url(#clip410)" d="M 0 0 M1510.8 28.5427 L1510.8 35.5912 Q1507.64 33.9709 1504.24 33.1607 Q1500.83 32.3505 1497.19 32.3505 Q1491.64 32.3505 1488.84 34.0519 Q1486.09 35.7533 1486.09 39.156 Q1486.09 41.7486 1488.07 43.2475 Q1490.06 44.7058 1496.05 46.0426 L1498.6 46.6097 Q1506.54 48.3111 1509.87 51.4303 Q1513.23 54.509 1513.23 60.0587 Q1513.23 66.3781 1508.21 70.0644 Q1503.22 73.7508 1494.47 73.7508 Q1490.83 73.7508 1486.86 73.0216 Q1482.93 72.3329 1478.55 70.9151 L1478.55 63.2184 Q1482.68 65.3654 1486.69 66.4591 Q1490.71 67.5124 1494.63 67.5124 Q1499.9 67.5124 1502.74 65.73 Q1505.57 63.9071 1505.57 60.6258 Q1505.57 57.5877 1503.51 55.9673 Q1501.48 54.3469 1494.55 52.8481 L1491.96 52.2405 Q1485.03 50.7821 1481.96 47.7845 Q1478.88 44.7463 1478.88 39.4801 Q1478.88 33.0797 1483.41 29.5959 Q1487.95 26.1121 1496.3 26.1121 Q1500.43 26.1121 1504.07 26.7198 Q1507.72 27.3274 1510.8 28.5427 Z" fill="#000000" fill-rule="evenodd" fill-opacity="1" /><path clip-path="url(#clip410)" d="M 0 0 M1528.42 14.324 L1528.42 27.2059 L1543.77 27.2059 L1543.77 32.9987 L1528.42 32.9987 L1528.42 57.6282 Q1528.42 63.1779 1529.92 64.7578 Q1531.46 66.3376 1536.12 66.3376 L1543.77 66.3376 L1543.77 72.576 L1536.12 72.576 Q1527.49 72.576 1524.21 69.3758 Q1520.92 66.1351 1520.92 57.6282 L1520.92 32.9987 L1515.46 32.9987 L1515.46 27.2059 L1520.92 27.2059 L1520.92 14.324 L1528.42 14.324 Z" fill="#000000" fill-rule="evenodd" fill-opacity="1" /><path clip-path="url(#clip410)" d="M 0 0 M1572.21 49.7694 Q1563.18 49.7694 1559.69 51.8354 Q1556.21 53.9013 1556.21 58.8839 Q1556.21 62.8538 1558.8 65.2034 Q1561.43 67.5124 1565.93 67.5124 Q1572.13 67.5124 1575.86 63.1374 Q1579.62 58.7219 1579.62 51.4303 L1579.62 49.7694 L1572.21 49.7694 M1587.08 46.6907 L1587.08 72.576 L1579.62 72.576 L1579.62 65.6895 Q1577.07 69.8214 1573.26 71.8063 Q1569.45 73.7508 1563.95 73.7508 Q1556.98 73.7508 1552.85 69.8619 Q1548.75 65.9325 1548.75 59.3701 Q1548.75 51.7138 1553.86 47.825 Q1559 43.9361 1569.17 43.9361 L1579.62 43.9361 L1579.62 43.2069 Q1579.62 38.0623 1576.22 35.2672 Q1572.86 32.4315 1566.74 32.4315 Q1562.85 32.4315 1559.17 33.3632 Q1555.48 34.295 1552.08 36.1584 L1552.08 29.2718 Q1556.17 27.692 1560.02 26.9223 Q1563.86 26.1121 1567.51 26.1121 Q1577.35 26.1121 1582.22 31.2163 Q1587.08 36.3204 1587.08 46.6907 Z" fill="#000000" fill-rule="evenodd" fill-opacity="1" /><path clip-path="url(#clip410)" d="M 0 0 M1632.61 45.1919 L1632.61 72.576 L1625.15 72.576 L1625.15 45.4349 Q1625.15 38.994 1622.64 35.7938 Q1620.13 32.5936 1615.11 32.5936 Q1609.07 32.5936 1605.59 36.4419 Q1602.11 40.2903 1602.11 46.9338 L1602.11 72.576 L1594.61 72.576 L1594.61 27.2059 L1602.11 27.2059 L1602.11 34.2544 Q1604.78 30.163 1608.38 28.1376 Q1612.03 26.1121 1616.77 26.1121 Q1624.59 26.1121 1628.6 30.9732 Q1632.61 35.7938 1632.61 45.1919 Z" fill="#000000" fill-rule="evenodd" fill-opacity="1" /><path clip-path="url(#clip410)" d="M 0 0 M1673.08 28.9478 L1673.08 35.9153 Q1669.92 34.1734 1666.72 33.3227 Q1663.56 32.4315 1660.32 32.4315 Q1653.07 32.4315 1649.06 37.0496 Q1645.04 41.6271 1645.04 49.9314 Q1645.04 58.2358 1649.06 62.8538 Q1653.07 67.4314 1660.32 67.4314 Q1663.56 67.4314 1666.72 66.5807 Q1669.92 65.6895 1673.08 63.9476 L1673.08 70.8341 Q1669.96 72.2924 1666.6 73.0216 Q1663.27 73.7508 1659.51 73.7508 Q1649.26 73.7508 1643.22 67.3098 Q1637.19 60.8689 1637.19 49.9314 Q1637.19 38.832 1643.26 32.472 Q1649.38 26.1121 1659.99 26.1121 Q1663.44 26.1121 1666.72 26.8413 Q1670 27.5299 1673.08 28.9478 Z" fill="#000000" fill-rule="evenodd" fill-opacity="1" /><path clip-path="url(#clip410)" d="M 0 0 M1719.7 48.0275 L1719.7 51.6733 L1685.43 51.6733 Q1685.92 59.3701 1690.05 63.421 Q1694.22 67.4314 1701.64 67.4314 Q1705.93 67.4314 1709.94 66.3781 Q1713.99 65.3249 1717.96 63.2184 L1717.96 70.267 Q1713.95 71.9684 1709.74 72.8596 Q1705.52 73.7508 1701.19 73.7508 Q1690.33 73.7508 1683.97 67.4314 Q1677.65 61.1119 1677.65 50.3365 Q1677.65 39.1965 1683.65 32.6746 Q1689.69 26.1121 1699.89 26.1121 Q1709.05 26.1121 1714.36 32.0264 Q1719.7 37.9003 1719.7 48.0275 M1712.25 45.84 Q1712.17 39.7232 1708.81 36.0774 Q1705.48 32.4315 1699.97 32.4315 Q1693.74 32.4315 1689.97 35.9558 Q1686.24 39.4801 1685.68 45.8805 L1712.25 45.84 Z" fill="#000000" fill-rule="evenodd" fill-opacity="1" /><path clip-path="url(#clip410)" d="M 0 0 M1160.35 1513.81 L1160.35 1550.76 L1168.11 1550.76 Q1177.95 1550.76 1182.5 1546.3 Q1187.08 1541.85 1187.08 1532.24 Q1187.08 1522.69 1182.5 1518.26 Q1177.95 1513.81 1168.11 1513.81 L1160.35 1513.81 M1153.92 1508.52 L1167.12 1508.52 Q1180.94 1508.52 1187.4 1514.28 Q1193.86 1520.01 1193.86 1532.24 Q1193.86 1544.52 1187.37 1550.28 Q1180.87 1556.04 1167.12 1556.04 L1153.92 1556.04 L1153.92 1508.52 Z" fill="#000000" fill-rule="evenodd" fill-opacity="1" /><path clip-path="url(#clip410)" d="M 0 0 M1200 1520.4 L1205.86 1520.4 L1205.86 1556.04 L1200 1556.04 L1200 1520.4 M1200 1506.52 L1205.86 1506.52 L1205.86 1513.93 L1200 1513.93 L1200 1506.52 Z" fill="#000000" fill-rule="evenodd" fill-opacity="1" /><path clip-path="url(#clip410)" d="M 0 0 M1234.73 1521.45 L1234.73 1526.98 Q1232.25 1525.71 1229.57 1525.07 Q1226.9 1524.44 1224.03 1524.44 Q1219.67 1524.44 1217.48 1525.77 Q1215.31 1527.11 1215.31 1529.79 Q1215.31 1531.82 1216.87 1533 Q1218.43 1534.15 1223.14 1535.2 L1225.15 1535.64 Q1231.39 1536.98 1234 1539.43 Q1236.64 1541.85 1236.64 1546.21 Q1236.64 1551.17 1232.69 1554.07 Q1228.78 1556.97 1221.9 1556.97 Q1219.04 1556.97 1215.92 1556.39 Q1212.83 1555.85 1209.39 1554.74 L1209.39 1548.69 Q1212.64 1550.38 1215.79 1551.24 Q1218.94 1552.07 1222.03 1552.07 Q1226.17 1552.07 1228.39 1550.66 Q1230.62 1549.23 1230.62 1546.65 Q1230.62 1544.27 1229 1542.99 Q1227.41 1541.72 1221.97 1540.54 L1219.93 1540.07 Q1214.49 1538.92 1212.07 1536.56 Q1209.65 1534.18 1209.65 1530.04 Q1209.65 1525.01 1213.21 1522.27 Q1216.78 1519.54 1223.33 1519.54 Q1226.58 1519.54 1229.45 1520.01 Q1232.31 1520.49 1234.73 1521.45 Z" fill="#000000" fill-rule="evenodd" fill-opacity="1" /><path clip-path="url(#clip410)" d="M 0 0 M1248.57 1510.27 L1248.57 1520.4 L1260.64 1520.4 L1260.64 1524.95 L1248.57 1524.95 L1248.57 1544.3 Q1248.57 1548.66 1249.75 1549.9 Q1250.96 1551.14 1254.62 1551.14 L1260.64 1551.14 L1260.64 1556.04 L1254.62 1556.04 Q1247.84 1556.04 1245.26 1553.53 Q1242.69 1550.98 1242.69 1544.3 L1242.69 1524.95 L1238.39 1524.95 L1238.39 1520.4 L1242.69 1520.4 L1242.69 1510.27 L1248.57 1510.27 Z" fill="#000000" fill-rule="evenodd" fill-opacity="1" /><path clip-path="url(#clip410)" d="M 0 0 M1282.98 1538.12 Q1275.88 1538.12 1273.15 1539.75 Q1270.41 1541.37 1270.41 1545.29 Q1270.41 1548.4 1272.45 1550.25 Q1274.51 1552.07 1278.05 1552.07 Q1282.92 1552.07 1285.85 1548.63 Q1288.81 1545.16 1288.81 1539.43 L1288.81 1538.12 L1282.98 1538.12 M1294.66 1535.71 L1294.66 1556.04 L1288.81 1556.04 L1288.81 1550.63 Q1286.8 1553.88 1283.81 1555.44 Q1280.82 1556.97 1276.49 1556.97 Q1271.01 1556.97 1267.77 1553.91 Q1264.55 1550.82 1264.55 1545.67 Q1264.55 1539.65 1268.56 1536.6 Q1272.6 1533.54 1280.59 1533.54 L1288.81 1533.54 L1288.81 1532.97 Q1288.81 1528.93 1286.13 1526.73 Q1283.49 1524.5 1278.68 1524.5 Q1275.63 1524.5 1272.73 1525.23 Q1269.84 1525.97 1267.16 1527.43 L1267.16 1522.02 Q1270.38 1520.78 1273.4 1520.17 Q1276.42 1519.54 1279.29 1519.54 Q1287.02 1519.54 1290.84 1523.55 Q1294.66 1527.56 1294.66 1535.71 Z" fill="#000000" fill-rule="evenodd" fill-opacity="1" /><path clip-path="url(#clip410)" d="M 0 0 M1330.44 1534.53 L1330.44 1556.04 L1324.58 1556.04 L1324.58 1534.72 Q1324.58 1529.66 1322.61 1527.14 Q1320.63 1524.63 1316.69 1524.63 Q1311.94 1524.63 1309.21 1527.65 Q1306.47 1530.68 1306.47 1535.9 L1306.47 1556.04 L1300.58 1556.04 L1300.58 1520.4 L1306.47 1520.4 L1306.47 1525.93 Q1308.57 1522.72 1311.4 1521.13 Q1314.27 1519.54 1317.99 1519.54 Q1324.13 1519.54 1327.29 1523.36 Q1330.44 1527.14 1330.44 1534.53 Z" fill="#000000" fill-rule="evenodd" fill-opacity="1" /><path clip-path="url(#clip410)" d="M 0 0 M1362.23 1521.76 L1362.23 1527.24 Q1359.75 1525.87 1357.24 1525.2 Q1354.75 1524.5 1352.21 1524.5 Q1346.51 1524.5 1343.36 1528.13 Q1340.21 1531.73 1340.21 1538.25 Q1340.21 1544.78 1343.36 1548.4 Q1346.51 1552 1352.21 1552 Q1354.75 1552 1357.24 1551.33 Q1359.75 1550.63 1362.23 1549.26 L1362.23 1554.68 Q1359.78 1555.82 1357.14 1556.39 Q1354.53 1556.97 1351.57 1556.97 Q1343.52 1556.97 1338.78 1551.91 Q1334.03 1546.85 1334.03 1538.25 Q1334.03 1529.53 1338.81 1524.53 Q1343.61 1519.54 1351.95 1519.54 Q1354.66 1519.54 1357.24 1520.11 Q1359.81 1520.65 1362.23 1521.76 Z" fill="#000000" fill-rule="evenodd" fill-opacity="1" /><path clip-path="url(#clip410)" d="M 0 0 M1398.87 1536.76 L1398.87 1539.62 L1371.94 1539.62 Q1372.32 1545.67 1375.57 1548.85 Q1378.85 1552 1384.67 1552 Q1388.05 1552 1391.2 1551.17 Q1394.38 1550.35 1397.5 1548.69 L1397.5 1554.23 Q1394.35 1555.57 1391.04 1556.27 Q1387.73 1556.97 1384.32 1556.97 Q1375.79 1556.97 1370.8 1552 Q1365.83 1547.04 1365.83 1538.57 Q1365.83 1529.82 1370.54 1524.69 Q1375.28 1519.54 1383.3 1519.54 Q1390.5 1519.54 1394.67 1524.18 Q1398.87 1528.8 1398.87 1536.76 M1393.01 1535.04 Q1392.95 1530.23 1390.31 1527.37 Q1387.7 1524.5 1383.37 1524.5 Q1378.47 1524.5 1375.51 1527.27 Q1372.58 1530.04 1372.13 1535.07 L1393.01 1535.04 Z" fill="#000000" fill-rule="evenodd" fill-opacity="1" /><path clip-path="url(#clip410)" d="M 0 0 M40.4842 845.72 L40.4842 805.521 L45.895 805.521 L45.895 822.39 L88.0042 822.39 L88.0042 828.851 L45.895 828.851 L45.895 845.72 L40.4842 845.72 Z" fill="#000000" fill-rule="evenodd" fill-opacity="1" /><path clip-path="url(#clip410)" d="M 0 0 M52.3562 801.383 L52.3562 795.526 L88.0042 795.526 L88.0042 801.383 L52.3562 801.383 M38.479 801.383 L38.479 795.526 L45.895 795.526 L45.895 801.383 L38.479 801.383 Z" fill="#000000" fill-rule="evenodd" fill-opacity="1" /><path clip-path="url(#clip410)" d="M 0 0 M59.1993 761.629 Q55.2526 759.433 53.3747 756.377 Q51.4968 753.322 51.4968 749.184 Q51.4968 743.614 55.4117 740.59 Q59.2948 737.567 66.4881 737.567 L88.0042 737.567 L88.0042 743.455 L66.679 743.455 Q61.5546 743.455 59.072 745.269 Q56.5894 747.083 56.5894 750.807 Q56.5894 755.359 59.6131 758.001 Q62.6368 760.642 67.8567 760.642 L88.0042 760.642 L88.0042 766.531 L66.679 766.531 Q61.5228 766.531 59.072 768.345 Q56.5894 770.159 56.5894 773.947 Q56.5894 778.434 59.6449 781.076 Q62.6686 783.718 67.8567 783.718 L88.0042 783.718 L88.0042 789.606 L52.3562 789.606 L52.3562 783.718 L57.8944 783.718 Q54.616 781.713 53.0564 778.912 Q51.4968 776.111 51.4968 772.26 Q51.4968 768.377 53.4702 765.671 Q55.4436 762.934 59.1993 761.629 Z" fill="#000000" fill-rule="evenodd" fill-opacity="1" /><path clip-path="url(#clip410)" d="M 0 0 M68.7161 700.932 L71.5806 700.932 L71.5806 727.859 Q77.6281 727.477 80.8109 724.23 Q83.9619 720.952 83.9619 715.128 Q83.9619 711.754 83.1344 708.603 Q82.3069 705.42 80.6518 702.301 L86.1899 702.301 Q87.5267 705.452 88.227 708.762 Q88.9272 712.072 88.9272 715.478 Q88.9272 724.008 83.9619 729.005 Q78.9967 733.97 70.5303 733.97 Q61.7774 733.97 56.6531 729.259 Q51.4968 724.517 51.4968 716.496 Q51.4968 709.303 56.1438 705.133 Q60.7589 700.932 68.7161 700.932 M66.9973 706.788 Q62.1912 706.852 59.3266 709.494 Q56.4621 712.104 56.4621 716.432 Q56.4621 721.334 59.2312 724.294 Q62.0002 727.222 67.0292 727.668 L66.9973 706.788 Z" fill="#000000" fill-rule="evenodd" fill-opacity="1" /><polyline clip-path="url(#clip412)" style="stroke:#009af9; stroke-width:4; stroke-opacity:1; fill:none" points="
  415.301,1163.77 522.938,1099 630.574,1037.74 738.21,978.359 845.847,920.051 953.483,862.374 1276.39,691.063 1814.57,407.133 2352.76,123.472 
  "/>
</svg>
