<svg class="main-svg" xmlns="http://www.w3.org/2000/svg" xmlns:xlink="http://www.w3.org/1999/xlink" width="700" height="500" style="" viewBox="0 0 700 500"><rect x="0" y="0" width="700" height="500" style="fill: rgb(255, 255, 255); fill-opacity: 1;"/><defs id="defs-eed96e"><g class="clips"><clipPath id="clipeed96exyplot" class="plotclip"><rect width="641.8784631087781" height="420.5976596675415"/></clipPath><clipPath class="axesclip" id="clipeed96ex"><rect x="53.52836103820355" y="0" width="641.8784631087781" height="500"/></clipPath><clipPath class="axesclip" id="clipeed96ey"><rect x="0" y="24.527559055118104" width="700" height="420.5976596675415"/></clipPath><clipPath class="axesclip" id="clipeed96exy"><rect x="53.52836103820355" y="24.527559055118104" width="641.8784631087781" height="420.5976596675415"/></clipPath></g><g class="gradients"/></defs><g class="bglayer"/><g class="layer-below"><g class="imagelayer"/><g class="shapelayer"/></g><g class="cartesianlayer"><g class="subplot xy"><g class="layer-subplot"><g class="shapelayer"/><g class="imagelayer"/></g><g class="gridlayer"><g class="x"/><g class="y"/></g><g class="zerolinelayer"/><path class="xlines-below"/><path class="ylines-below"/><g class="overlines-below"/><g class="xaxislayer-below"/><g class="yaxislayer-below"/><g class="overaxes-below"/><g class="plot" transform="translate(53.52836103820355,24.527559055118104)" clip-path="url('#clipeed96exyplot')"><g class="scatterlayer mlayer"><g class="trace scatter traced6ca0e" style="stroke-miterlimit: 2; opacity: 1;"><g class="fills"/><g class="errorbars"/><g class="lines"><path class="js-line" d="M18.17,408.69L35.98,255.87L40.43,251.17L84.97,204.14L89.42,215.92L102.78,256.3L102.78,256.3L104.72,273.24L120.19,408.69" style="vector-effect: non-scaling-stroke; fill: none; stroke: rgb(0, 154, 250); stroke-opacity: 1; stroke-width: 1px; opacity: 1;"/></g><g class="points"/><g class="text"/></g><g class="trace scatter tracecc6cfe" style="stroke-miterlimit: 2; opacity: 1;"><g class="fills"/><g class="errorbars"/><g class="lines"/><g class="points"><path class="point" transform="translate(18.17,408.69)" d="M2,0A2,2 0 1,1 0,-2A2,2 0 0,1 2,0Z" style="opacity: 1; stroke-width: 1px; fill: rgb(0, 154, 250); fill-opacity: 0.1; stroke: rgb(0, 0, 0); stroke-opacity: 0.1;"/><path class="point" transform="translate(35.57,256.3)" d="M2,0A2,2 0 1,1 0,-2A2,2 0 0,1 2,0Z" style="opacity: 1; stroke-width: 1px; fill: rgb(0, 154, 250); fill-opacity: 0.1; stroke: rgb(0, 0, 0); stroke-opacity: 0.1;"/><path class="point" transform="translate(85.38,203.7)" d="M2,0A2,2 0 1,1 0,-2A2,2 0 0,1 2,0Z" style="opacity: 1; stroke-width: 1px; fill: rgb(0, 154, 250); fill-opacity: 0.1; stroke: rgb(0, 0, 0); stroke-opacity: 0.1;"/><path class="point" transform="translate(102.78,256.3)" d="M2,0A2,2 0 1,1 0,-2A2,2 0 0,1 2,0Z" style="opacity: 1; stroke-width: 1px; fill: rgb(0, 154, 250); fill-opacity: 0.1; stroke: rgb(0, 0, 0); stroke-opacity: 0.1;"/></g><g class="text"/></g><g class="trace scatter trace913314" style="stroke-miterlimit: 2; opacity: 1;"><g class="fills"/><g class="errorbars"/><g class="lines"><path class="js-line" d="M18.17,408.69L35.57,231.44L30.52,282.83L36.7,229.52L73.77,166.77L79.95,161.49L117.02,161.29L123.2,181.62L135.55,231.44L135.55,231.44L137.49,251.14L152.96,408.69" style="vector-effect: non-scaling-stroke; fill: none; stroke: rgb(227, 111, 71); stroke-opacity: 1; stroke-width: 1px; opacity: 1;"/></g><g class="points"/><g class="text"/></g><g class="trace scatter traceb94efb" style="stroke-miterlimit: 2; opacity: 1;"><g class="fills"/><g class="errorbars"/><g class="lines"/><g class="points"><path class="point" transform="translate(18.17,408.69)" d="M2,0A2,2 0 1,1 0,-2A2,2 0 0,1 2,0Z" style="opacity: 1; stroke-width: 1px; fill: rgb(227, 111, 71); fill-opacity: 0.1; stroke: rgb(0, 0, 0); stroke-opacity: 0.1;"/><path class="point" transform="translate(35.57,231.44)" d="M2,0A2,2 0 1,1 0,-2A2,2 0 0,1 2,0Z" style="opacity: 1; stroke-width: 1px; fill: rgb(227, 111, 71); fill-opacity: 0.1; stroke: rgb(0, 0, 0); stroke-opacity: 0.1;"/><path class="point" transform="translate(76.88,161.51)" d="M2,0A2,2 0 1,1 0,-2A2,2 0 0,1 2,0Z" style="opacity: 1; stroke-width: 1px; fill: rgb(227, 111, 71); fill-opacity: 0.1; stroke: rgb(0, 0, 0); stroke-opacity: 0.1;"/><path class="point" transform="translate(118.15,161.28)" d="M2,0A2,2 0 1,1 0,-2A2,2 0 0,1 2,0Z" style="opacity: 1; stroke-width: 1px; fill: rgb(227, 111, 71); fill-opacity: 0.1; stroke: rgb(0, 0, 0); stroke-opacity: 0.1;"/><path class="point" transform="translate(135.55,231.44)" d="M2,0A2,2 0 1,1 0,-2A2,2 0 0,1 2,0Z" style="opacity: 1; stroke-width: 1px; fill: rgb(227, 111, 71); fill-opacity: 0.1; stroke: rgb(0, 0, 0); stroke-opacity: 0.1;"/></g><g class="text"/></g><g class="trace scatter tracef8a327" style="stroke-miterlimit: 2; opacity: 1;"><g class="fills"/><g class="errorbars"/><g class="lines"><path class="js-line" d="M18.17,408.69L35.57,219.36L33.61,240.68L41.33,208.38L72.21,149.55L79.93,139.94L103.1,116.97L110.82,113.25L141.7,140.19L149.42,153.56L164.87,219.36L164.87,219.36L166.8,240.39L182.27,408.69" style="vector-effect: non-scaling-stroke; fill: none; stroke: rgb(62, 164, 78); stroke-opacity: 1; stroke-width: 1px; opacity: 1;"/></g><g class="points"/><g class="text"/></g><g class="trace scatter tracee4bac0" style="stroke-miterlimit: 2; opacity: 1;"><g class="fills"/><g class="errorbars"/><g class="lines"/><g class="points"><path class="point" transform="translate(18.17,408.69)" d="M2,0A2,2 0 1,1 0,-2A2,2 0 0,1 2,0Z" style="opacity: 1; stroke-width: 1px; fill: rgb(62, 164, 78); fill-opacity: 0.1; stroke: rgb(0, 0, 0); stroke-opacity: 0.1;"/><path class="point" transform="translate(35.57,219.36)" d="M2,0A2,2 0 1,1 0,-2A2,2 0 0,1 2,0Z" style="opacity: 1; stroke-width: 1px; fill: rgb(62, 164, 78); fill-opacity: 0.1; stroke: rgb(0, 0, 0); stroke-opacity: 0.1;"/><path class="point" transform="translate(74.36,145.46)" d="M2,0A2,2 0 1,1 0,-2A2,2 0 0,1 2,0Z" style="opacity: 1; stroke-width: 1px; fill: rgb(62, 164, 78); fill-opacity: 0.1; stroke: rgb(0, 0, 0); stroke-opacity: 0.1;"/><path class="point" transform="translate(108.71,111.41)" d="M2,0A2,2 0 1,1 0,-2A2,2 0 0,1 2,0Z" style="opacity: 1; stroke-width: 1px; fill: rgb(62, 164, 78); fill-opacity: 0.1; stroke: rgb(0, 0, 0); stroke-opacity: 0.1;"/><path class="point" transform="translate(147.46,145.21)" d="M2,0A2,2 0 1,1 0,-2A2,2 0 0,1 2,0Z" style="opacity: 1; stroke-width: 1px; fill: rgb(62, 164, 78); fill-opacity: 0.1; stroke: rgb(0, 0, 0); stroke-opacity: 0.1;"/><path class="point" transform="translate(164.87,219.36)" d="M2,0A2,2 0 1,1 0,-2A2,2 0 0,1 2,0Z" style="opacity: 1; stroke-width: 1px; fill: rgb(62, 164, 78); fill-opacity: 0.1; stroke: rgb(0, 0, 0); stroke-opacity: 0.1;"/></g><g class="text"/></g><g class="trace scatter trace1e38b9" style="stroke-miterlimit: 2; opacity: 1;"><g class="fills"/><g class="errorbars"/><g class="lines"><path class="js-line" d="M18.17,408.69L35.57,212.87L27.35,305.39L36.53,210.95L73.25,137.33L82.43,124.24L100.79,98.07L109.97,91.49L137.51,91.42L146.69,102.48L174.23,135.96L183.41,172.91L192.59,212.87L192.59,212.87L194.52,234.63L209.99,408.69" style="vector-effect: non-scaling-stroke; fill: none; stroke: rgb(195, 113, 210); stroke-opacity: 1; stroke-width: 1px; opacity: 1;"/></g><g class="points"/><g class="text"/></g><g class="trace scatter trace18c1cf" style="stroke-miterlimit: 2; opacity: 1;"><g class="fills"/><g class="errorbars"/><g class="lines"/><g class="points"><path class="point" transform="translate(18.17,408.69)" d="M2,0A2,2 0 1,1 0,-2A2,2 0 0,1 2,0Z" style="opacity: 1; stroke-width: 1px; fill: rgb(195, 113, 210); fill-opacity: 0.1; stroke: rgb(0, 0, 0); stroke-opacity: 0.1;"/><path class="point" transform="translate(35.57,212.87)" d="M2,0A2,2 0 1,1 0,-2A2,2 0 0,1 2,0Z" style="opacity: 1; stroke-width: 1px; fill: rgb(195, 113, 210); fill-opacity: 0.1; stroke: rgb(0, 0, 0); stroke-opacity: 0.1;"/><path class="point" transform="translate(73.21,137.39)" d="M2,0A2,2 0 1,1 0,-2A2,2 0 0,1 2,0Z" style="opacity: 1; stroke-width: 1px; fill: rgb(195, 113, 210); fill-opacity: 0.1; stroke: rgb(0, 0, 0); stroke-opacity: 0.1;"/><path class="point" transform="translate(105.4,91.5)" d="M2,0A2,2 0 1,1 0,-2A2,2 0 0,1 2,0Z" style="opacity: 1; stroke-width: 1px; fill: rgb(195, 113, 210); fill-opacity: 0.1; stroke: rgb(0, 0, 0); stroke-opacity: 0.1;"/><path class="point" transform="translate(137.58,91.42)" d="M2,0A2,2 0 1,1 0,-2A2,2 0 0,1 2,0Z" style="opacity: 1; stroke-width: 1px; fill: rgb(195, 113, 210); fill-opacity: 0.1; stroke: rgb(0, 0, 0); stroke-opacity: 0.1;"/><path class="point" transform="translate(175.18,137.13)" d="M2,0A2,2 0 1,1 0,-2A2,2 0 0,1 2,0Z" style="opacity: 1; stroke-width: 1px; fill: rgb(195, 113, 210); fill-opacity: 0.1; stroke: rgb(0, 0, 0); stroke-opacity: 0.1;"/><path class="point" transform="translate(192.59,212.87)" d="M2,0A2,2 0 1,1 0,-2A2,2 0 0,1 2,0Z" style="opacity: 1; stroke-width: 1px; fill: rgb(195, 113, 210); fill-opacity: 0.1; stroke: rgb(0, 0, 0); stroke-opacity: 0.1;"/></g><g class="text"/></g><g class="trace scatter trace39548f" style="stroke-miterlimit: 2; opacity: 1;"><g class="fills"/><g class="errorbars"/><g class="lines"><path class="js-line" d="M18.17,408.69L35.57,209.25L28.76,287.28L39.35,201.46L71.14,136.03L81.73,117.95L102.92,82.98L113.51,77.38L134.7,69.07L145.3,73.37L155.89,77.66L166.49,83.37L198.27,127.49L208.86,162.68L219.46,209.25L219.46,209.25L221.39,231.41L236.86,408.69" style="vector-effect: non-scaling-stroke; fill: none; stroke: rgb(172, 142, 24); stroke-opacity: 1; stroke-width: 1px; opacity: 1;"/></g><g class="points"/><g class="text"/></g><g class="trace scatter tracedf327e" style="stroke-miterlimit: 2; opacity: 1;"><g class="fills"/><g class="errorbars"/><g class="lines"/><g class="points"><path class="point" transform="translate(18.17,408.69)" d="M2,0A2,2 0 1,1 0,-2A2,2 0 0,1 2,0Z" style="opacity: 1; stroke-width: 1px; fill: rgb(172, 142, 24); fill-opacity: 0.1; stroke: rgb(0, 0, 0); stroke-opacity: 0.1;"/><path class="point" transform="translate(35.57,209.25)" d="M2,0A2,2 0 1,1 0,-2A2,2 0 0,1 2,0Z" style="opacity: 1; stroke-width: 1px; fill: rgb(172, 142, 24); fill-opacity: 0.1; stroke: rgb(0, 0, 0); stroke-opacity: 0.1;"/><path class="point" transform="translate(72.61,133.01)" d="M2,0A2,2 0 1,1 0,-2A2,2 0 0,1 2,0Z" style="opacity: 1; stroke-width: 1px; fill: rgb(172, 142, 24); fill-opacity: 0.1; stroke: rgb(0, 0, 0); stroke-opacity: 0.1;"/><path class="point" transform="translate(103.82,81.5)" d="M2,0A2,2 0 1,1 0,-2A2,2 0 0,1 2,0Z" style="opacity: 1; stroke-width: 1px; fill: rgb(172, 142, 24); fill-opacity: 0.1; stroke: rgb(0, 0, 0); stroke-opacity: 0.1;"/><path class="point" transform="translate(133.85,68.72)" d="M2,0A2,2 0 1,1 0,-2A2,2 0 0,1 2,0Z" style="opacity: 1; stroke-width: 1px; fill: rgb(172, 142, 24); fill-opacity: 0.1; stroke: rgb(0, 0, 0); stroke-opacity: 0.1;"/><path class="point" transform="translate(165.05,81.38)" d="M2,0A2,2 0 1,1 0,-2A2,2 0 0,1 2,0Z" style="opacity: 1; stroke-width: 1px; fill: rgb(172, 142, 24); fill-opacity: 0.1; stroke: rgb(0, 0, 0); stroke-opacity: 0.1;"/><path class="point" transform="translate(202.05,132.75)" d="M2,0A2,2 0 1,1 0,-2A2,2 0 0,1 2,0Z" style="opacity: 1; stroke-width: 1px; fill: rgb(172, 142, 24); fill-opacity: 0.1; stroke: rgb(0, 0, 0); stroke-opacity: 0.1;"/><path class="point" transform="translate(219.46,209.25)" d="M2,0A2,2 0 1,1 0,-2A2,2 0 0,1 2,0Z" style="opacity: 1; stroke-width: 1px; fill: rgb(172, 142, 24); fill-opacity: 0.1; stroke: rgb(0, 0, 0); stroke-opacity: 0.1;"/></g><g class="text"/></g><g class="trace scatter tracecc81f7" style="stroke-miterlimit: 2; opacity: 1;"><g class="fills"/><g class="errorbars"/><g class="lines"><path class="js-line" d="M18.17,408.69L35.57,207.21L30.15,269.95L42.13,193.5L66.1,143.47L78.08,120.27L102.05,77.77L114.03,68.89L126.01,61.06L138,57.12L161.96,57.64L173.94,65L185.93,72.37L197.91,85.07L221.88,120.57L233.86,154.25L245.84,207.21L245.84,207.21L247.78,229.59L263.24,408.69" style="vector-effect: non-scaling-stroke; fill: none; stroke: rgb(0, 170, 174); stroke-opacity: 1; stroke-width: 1px; opacity: 1;"/></g><g class="points"/><g class="text"/></g><g class="trace scatter tracea17ee4" style="stroke-miterlimit: 2; opacity: 1;"><g class="fills"/><g class="errorbars"/><g class="lines"/><g class="points"><path class="point" transform="translate(18.17,408.69)" d="M2,0A2,2 0 1,1 0,-2A2,2 0 0,1 2,0Z" style="opacity: 1; stroke-width: 1px; fill: rgb(0, 170, 174); fill-opacity: 0.1; stroke: rgb(0, 0, 0); stroke-opacity: 0.1;"/><path class="point" transform="translate(35.57,207.21)" d="M2,0A2,2 0 1,1 0,-2A2,2 0 0,1 2,0Z" style="opacity: 1; stroke-width: 1px; fill: rgb(0, 170, 174); fill-opacity: 0.1; stroke: rgb(0, 0, 0); stroke-opacity: 0.1;"/><path class="point" transform="translate(72.28,130.56)" d="M2,0A2,2 0 1,1 0,-2A2,2 0 0,1 2,0Z" style="opacity: 1; stroke-width: 1px; fill: rgb(0, 170, 174); fill-opacity: 0.1; stroke: rgb(0, 0, 0); stroke-opacity: 0.1;"/><path class="point" transform="translate(102.98,76.1)" d="M2,0A2,2 0 1,1 0,-2A2,2 0 0,1 2,0Z" style="opacity: 1; stroke-width: 1px; fill: rgb(0, 170, 174); fill-opacity: 0.1; stroke: rgb(0, 0, 0); stroke-opacity: 0.1;"/><path class="point" transform="translate(132.03,57.13)" d="M2,0A2,2 0 1,1 0,-2A2,2 0 0,1 2,0Z" style="opacity: 1; stroke-width: 1px; fill: rgb(0, 170, 174); fill-opacity: 0.1; stroke: rgb(0, 0, 0); stroke-opacity: 0.1;"/><path class="point" transform="translate(161.07,57.09)" d="M2,0A2,2 0 1,1 0,-2A2,2 0 0,1 2,0Z" style="opacity: 1; stroke-width: 1px; fill: rgb(0, 170, 174); fill-opacity: 0.1; stroke: rgb(0, 0, 0); stroke-opacity: 0.1;"/><path class="point" transform="translate(191.76,75.96)" d="M2,0A2,2 0 1,1 0,-2A2,2 0 0,1 2,0Z" style="opacity: 1; stroke-width: 1px; fill: rgb(0, 170, 174); fill-opacity: 0.1; stroke: rgb(0, 0, 0); stroke-opacity: 0.1;"/><path class="point" transform="translate(228.44,130.3)" d="M2,0A2,2 0 1,1 0,-2A2,2 0 0,1 2,0Z" style="opacity: 1; stroke-width: 1px; fill: rgb(0, 170, 174); fill-opacity: 0.1; stroke: rgb(0, 0, 0); stroke-opacity: 0.1;"/><path class="point" transform="translate(245.84,207.21)" d="M2,0A2,2 0 1,1 0,-2A2,2 0 0,1 2,0Z" style="opacity: 1; stroke-width: 1px; fill: rgb(0, 170, 174); fill-opacity: 0.1; stroke: rgb(0, 0, 0); stroke-opacity: 0.1;"/></g><g class="text"/></g><g class="trace scatter trace4581a4" style="stroke-miterlimit: 2; opacity: 1;"><g class="fills"/><g class="errorbars"/><g class="lines"><path class="js-line" d="M18.17,408.69L35.57,206.03L31.52,253.14L44.88,186.44L71.59,130.23L84.95,105.48L98.31,80.87L111.66,65.97L125.02,55.55L138.38,49.19L151.73,46.19L165.09,45.84L178.45,48.76L191.8,53.81L218.52,73.66L231.87,94.14L245.23,114.63L258.59,146.83L271.94,206.03L271.94,206.03L273.88,228.55L289.34,408.69" style="vector-effect: non-scaling-stroke; fill: none; stroke: rgb(237, 94, 147); stroke-opacity: 1; stroke-width: 1px; opacity: 1;"/></g><g class="points"/><g class="text"/></g><g class="trace scatter trace0c2fe7" style="stroke-miterlimit: 2; opacity: 1;"><g class="fills"/><g class="errorbars"/><g class="lines"/><g class="points"><path class="point" transform="translate(18.17,408.69)" d="M2,0A2,2 0 1,1 0,-2A2,2 0 0,1 2,0Z" style="opacity: 1; stroke-width: 1px; fill: rgb(237, 94, 147); fill-opacity: 0.1; stroke: rgb(0, 0, 0); stroke-opacity: 0.1;"/><path class="point" transform="translate(35.57,206.03)" d="M2,0A2,2 0 1,1 0,-2A2,2 0 0,1 2,0Z" style="opacity: 1; stroke-width: 1px; fill: rgb(237, 94, 147); fill-opacity: 0.1; stroke: rgb(0, 0, 0); stroke-opacity: 0.1;"/><path class="point" transform="translate(72.1,129.16)" d="M2,0A2,2 0 1,1 0,-2A2,2 0 0,1 2,0Z" style="opacity: 1; stroke-width: 1px; fill: rgb(237, 94, 147); fill-opacity: 0.1; stroke: rgb(0, 0, 0); stroke-opacity: 0.1;"/><path class="point" transform="translate(102.53,73.09)" d="M2,0A2,2 0 1,1 0,-2A2,2 0 0,1 2,0Z" style="opacity: 1; stroke-width: 1px; fill: rgb(237, 94, 147); fill-opacity: 0.1; stroke: rgb(0, 0, 0); stroke-opacity: 0.1;"/><path class="point" transform="translate(131.06,50.83)" d="M2,0A2,2 0 1,1 0,-2A2,2 0 0,1 2,0Z" style="opacity: 1; stroke-width: 1px; fill: rgb(237, 94, 147); fill-opacity: 0.1; stroke: rgb(0, 0, 0); stroke-opacity: 0.1;"/><path class="point" transform="translate(159.1,44.54)" d="M2,0A2,2 0 1,1 0,-2A2,2 0 0,1 2,0Z" style="opacity: 1; stroke-width: 1px; fill: rgb(237, 94, 147); fill-opacity: 0.1; stroke: rgb(0, 0, 0); stroke-opacity: 0.1;"/><path class="point" transform="translate(187.63,50.77)" d="M2,0A2,2 0 1,1 0,-2A2,2 0 0,1 2,0Z" style="opacity: 1; stroke-width: 1px; fill: rgb(237, 94, 147); fill-opacity: 0.1; stroke: rgb(0, 0, 0); stroke-opacity: 0.1;"/><path class="point" transform="translate(218.04,72.94)" d="M2,0A2,2 0 1,1 0,-2A2,2 0 0,1 2,0Z" style="opacity: 1; stroke-width: 1px; fill: rgb(237, 94, 147); fill-opacity: 0.1; stroke: rgb(0, 0, 0); stroke-opacity: 0.1;"/><path class="point" transform="translate(254.54,128.9)" d="M2,0A2,2 0 1,1 0,-2A2,2 0 0,1 2,0Z" style="opacity: 1; stroke-width: 1px; fill: rgb(237, 94, 147); fill-opacity: 0.1; stroke: rgb(0, 0, 0); stroke-opacity: 0.1;"/><path class="point" transform="translate(271.94,206.03)" d="M2,0A2,2 0 1,1 0,-2A2,2 0 0,1 2,0Z" style="opacity: 1; stroke-width: 1px; fill: rgb(237, 94, 147); fill-opacity: 0.1; stroke: rgb(0, 0, 0); stroke-opacity: 0.1;"/></g><g class="text"/></g><g class="trace scatter trace4faa03" style="stroke-miterlimit: 2; opacity: 1;"><g class="fills"/><g class="errorbars"/><g class="lines"><path class="js-line" d="M18.17,408.69L35.6,204.68L53.04,167.67L70.48,130.67L87.91,96.95L105.35,66.82L122.79,50.83L140.22,39.47L157.66,31.54L175.1,28.12L192.53,26.41L209.97,26.4L227.41,29.63L244.84,34.81L262.28,42.58L279.72,56.05L297.15,71.9L332.03,127.33L349.46,204.75L366.87,408.69" style="vector-effect: non-scaling-stroke; fill: none; stroke: rgb(198, 130, 37); stroke-opacity: 1; stroke-width: 1px; opacity: 1;"/></g><g class="points"/><g class="text"/></g><g class="trace scatter trace927905" style="stroke-miterlimit: 2; opacity: 1;"><g class="fills"/><g class="errorbars"/><g class="lines"/><g class="points"><path class="point" transform="translate(18.17,408.69)" d="M2,0A2,2 0 1,1 0,-2A2,2 0 0,1 2,0Z" style="opacity: 1; stroke-width: 1px; fill: rgb(198, 130, 37); fill-opacity: 0.1; stroke: rgb(0, 0, 0); stroke-opacity: 0.1;"/><path class="point" transform="translate(35.57,204.75)" d="M2,0A2,2 0 1,1 0,-2A2,2 0 0,1 2,0Z" style="opacity: 1; stroke-width: 1px; fill: rgb(198, 130, 37); fill-opacity: 0.1; stroke: rgb(0, 0, 0); stroke-opacity: 0.1;"/><path class="point" transform="translate(71.9,127.65)" d="M2,0A2,2 0 1,1 0,-2A2,2 0 0,1 2,0Z" style="opacity: 1; stroke-width: 1px; fill: rgb(198, 130, 37); fill-opacity: 0.1; stroke: rgb(0, 0, 0); stroke-opacity: 0.1;"/><path class="point" transform="translate(102.04,69.86)" d="M2,0A2,2 0 1,1 0,-2A2,2 0 0,1 2,0Z" style="opacity: 1; stroke-width: 1px; fill: rgb(198, 130, 37); fill-opacity: 0.1; stroke: rgb(0, 0, 0); stroke-opacity: 0.1;"/><path class="point" transform="translate(130.05,44.17)" d="M2,0A2,2 0 1,1 0,-2A2,2 0 0,1 2,0Z" style="opacity: 1; stroke-width: 1px; fill: rgb(198, 130, 37); fill-opacity: 0.1; stroke: rgb(0, 0, 0); stroke-opacity: 0.1;"/><path class="point" transform="translate(157.13,31.64)" d="M2,0A2,2 0 1,1 0,-2A2,2 0 0,1 2,0Z" style="opacity: 1; stroke-width: 1px; fill: rgb(198, 130, 37); fill-opacity: 0.1; stroke: rgb(0, 0, 0); stroke-opacity: 0.1;"/><path class="point" transform="translate(183.85,26.41)" d="M2,0A2,2 0 1,1 0,-2A2,2 0 0,1 2,0Z" style="opacity: 1; stroke-width: 1px; fill: rgb(198, 130, 37); fill-opacity: 0.1; stroke: rgb(0, 0, 0); stroke-opacity: 0.1;"/><path class="point" transform="translate(210.56,26.4)" d="M2,0A2,2 0 1,1 0,-2A2,2 0 0,1 2,0Z" style="opacity: 1; stroke-width: 1px; fill: rgb(198, 130, 37); fill-opacity: 0.1; stroke: rgb(0, 0, 0); stroke-opacity: 0.1;"/><path class="point" transform="translate(237.63,31.59)" d="M2,0A2,2 0 1,1 0,-2A2,2 0 0,1 2,0Z" style="opacity: 1; stroke-width: 1px; fill: rgb(198, 130, 37); fill-opacity: 0.1; stroke: rgb(0, 0, 0); stroke-opacity: 0.1;"/><path class="point" transform="translate(265.64,44.08)" d="M2,0A2,2 0 1,1 0,-2A2,2 0 0,1 2,0Z" style="opacity: 1; stroke-width: 1px; fill: rgb(198, 130, 37); fill-opacity: 0.1; stroke: rgb(0, 0, 0); stroke-opacity: 0.1;"/><path class="point" transform="translate(295.76,69.69)" d="M2,0A2,2 0 1,1 0,-2A2,2 0 0,1 2,0Z" style="opacity: 1; stroke-width: 1px; fill: rgb(198, 130, 37); fill-opacity: 0.1; stroke: rgb(0, 0, 0); stroke-opacity: 0.1;"/><path class="point" transform="translate(332.06,127.39)" d="M2,0A2,2 0 1,1 0,-2A2,2 0 0,1 2,0Z" style="opacity: 1; stroke-width: 1px; fill: rgb(198, 130, 37); fill-opacity: 0.1; stroke: rgb(0, 0, 0); stroke-opacity: 0.1;"/><path class="point" transform="translate(349.46,204.75)" d="M2,0A2,2 0 1,1 0,-2A2,2 0 0,1 2,0Z" style="opacity: 1; stroke-width: 1px; fill: rgb(198, 130, 37); fill-opacity: 0.1; stroke: rgb(0, 0, 0); stroke-opacity: 0.1;"/></g><g class="text"/></g><g class="trace scatter tracebb0fb2" style="stroke-miterlimit: 2; opacity: 1;"><g class="fills"/><g class="errorbars"/><g class="lines"><path class="js-line" d="M18.17,408.69L35.57,204.47L18.17,408.69L42.37,190.02L66.56,138.57L90.76,90.75L114.96,56.81L139.16,37.93L163.36,26.99L187.56,20.66L211.76,17.1L235.96,15.28L260.16,14.72L284.36,15.23L308.55,16.94L332.75,20.3L356.95,26.21L381.15,36.16L405.35,52.38L429.55,77.41L453.75,116.17L477.95,204.47L495.35,408.69" style="vector-effect: non-scaling-stroke; fill: none; stroke: rgb(0, 169, 141); stroke-opacity: 1; stroke-width: 1px; opacity: 1;"/></g><g class="points"/><g class="text"/></g><g class="trace scatter trace01c304" style="stroke-miterlimit: 2; opacity: 1;"><g class="fills"/><g class="errorbars"/><g class="lines"/><g class="points"><path class="point" transform="translate(18.17,408.69)" d="M2,0A2,2 0 1,1 0,-2A2,2 0 0,1 2,0Z" style="opacity: 1; stroke-width: 1px; fill: rgb(0, 169, 141); fill-opacity: 0.1; stroke: rgb(0, 0, 0); stroke-opacity: 0.1;"/><path class="point" transform="translate(35.57,204.47)" d="M2,0A2,2 0 1,1 0,-2A2,2 0 0,1 2,0Z" style="opacity: 1; stroke-width: 1px; fill: rgb(0, 169, 141); fill-opacity: 0.1; stroke: rgb(0, 0, 0); stroke-opacity: 0.1;"/><path class="point" transform="translate(71.86,127.31)" d="M2,0A2,2 0 1,1 0,-2A2,2 0 0,1 2,0Z" style="opacity: 1; stroke-width: 1px; fill: rgb(0, 169, 141); fill-opacity: 0.1; stroke: rgb(0, 0, 0); stroke-opacity: 0.1;"/><path class="point" transform="translate(101.93,69.15)" d="M2,0A2,2 0 1,1 0,-2A2,2 0 0,1 2,0Z" style="opacity: 1; stroke-width: 1px; fill: rgb(0, 169, 141); fill-opacity: 0.1; stroke: rgb(0, 0, 0); stroke-opacity: 0.1;"/><path class="point" transform="translate(129.83,42.73)" d="M2,0A2,2 0 1,1 0,-2A2,2 0 0,1 2,0Z" style="opacity: 1; stroke-width: 1px; fill: rgb(0, 169, 141); fill-opacity: 0.1; stroke: rgb(0, 0, 0); stroke-opacity: 0.1;"/><path class="point" transform="translate(156.72,28.89)" d="M2,0A2,2 0 1,1 0,-2A2,2 0 0,1 2,0Z" style="opacity: 1; stroke-width: 1px; fill: rgb(0, 169, 141); fill-opacity: 0.1; stroke: rgb(0, 0, 0); stroke-opacity: 0.1;"/><path class="point" transform="translate(183.08,21.36)" d="M2,0A2,2 0 1,1 0,-2A2,2 0 0,1 2,0Z" style="opacity: 1; stroke-width: 1px; fill: rgb(0, 169, 141); fill-opacity: 0.1; stroke: rgb(0, 0, 0); stroke-opacity: 0.1;"/><path class="point" transform="translate(209.17,17.3)" d="M2,0A2,2 0 1,1 0,-2A2,2 0 0,1 2,0Z" style="opacity: 1; stroke-width: 1px; fill: rgb(0, 169, 141); fill-opacity: 0.1; stroke: rgb(0, 0, 0); stroke-opacity: 0.1;"/><path class="point" transform="translate(235.13,15.3)" d="M2,0A2,2 0 1,1 0,-2A2,2 0 0,1 2,0Z" style="opacity: 1; stroke-width: 1px; fill: rgb(0, 169, 141); fill-opacity: 0.1; stroke: rgb(0, 0, 0); stroke-opacity: 0.1;"/><path class="point" transform="translate(261.05,14.7)" d="M2,0A2,2 0 1,1 0,-2A2,2 0 0,1 2,0Z" style="opacity: 1; stroke-width: 1px; fill: rgb(0, 169, 141); fill-opacity: 0.1; stroke: rgb(0, 0, 0); stroke-opacity: 0.1;"/><path class="point" transform="translate(287,15.29)" d="M2,0A2,2 0 1,1 0,-2A2,2 0 0,1 2,0Z" style="opacity: 1; stroke-width: 1px; fill: rgb(0, 169, 141); fill-opacity: 0.1; stroke: rgb(0, 0, 0); stroke-opacity: 0.1;"/><path class="point" transform="translate(313.09,17.28)" d="M2,0A2,2 0 1,1 0,-2A2,2 0 0,1 2,0Z" style="opacity: 1; stroke-width: 1px; fill: rgb(0, 169, 141); fill-opacity: 0.1; stroke: rgb(0, 0, 0); stroke-opacity: 0.1;"/><path class="point" transform="translate(339.45,21.33)" d="M2,0A2,2 0 1,1 0,-2A2,2 0 0,1 2,0Z" style="opacity: 1; stroke-width: 1px; fill: rgb(0, 169, 141); fill-opacity: 0.1; stroke: rgb(0, 0, 0); stroke-opacity: 0.1;"/><path class="point" transform="translate(366.34,28.83)" d="M2,0A2,2 0 1,1 0,-2A2,2 0 0,1 2,0Z" style="opacity: 1; stroke-width: 1px; fill: rgb(0, 169, 141); fill-opacity: 0.1; stroke: rgb(0, 0, 0); stroke-opacity: 0.1;"/><path class="point" transform="translate(394.23,42.63)" d="M2,0A2,2 0 1,1 0,-2A2,2 0 0,1 2,0Z" style="opacity: 1; stroke-width: 1px; fill: rgb(0, 169, 141); fill-opacity: 0.1; stroke: rgb(0, 0, 0); stroke-opacity: 0.1;"/><path class="point" transform="translate(424.29,68.98)" d="M2,0A2,2 0 1,1 0,-2A2,2 0 0,1 2,0Z" style="opacity: 1; stroke-width: 1px; fill: rgb(0, 169, 141); fill-opacity: 0.1; stroke: rgb(0, 0, 0); stroke-opacity: 0.1;"/><path class="point" transform="translate(460.55,127.05)" d="M2,0A2,2 0 1,1 0,-2A2,2 0 0,1 2,0Z" style="opacity: 1; stroke-width: 1px; fill: rgb(0, 169, 141); fill-opacity: 0.1; stroke: rgb(0, 0, 0); stroke-opacity: 0.1;"/><path class="point" transform="translate(477.95,204.47)" d="M2,0A2,2 0 1,1 0,-2A2,2 0 0,1 2,0Z" style="opacity: 1; stroke-width: 1px; fill: rgb(0, 169, 141); fill-opacity: 0.1; stroke: rgb(0, 0, 0); stroke-opacity: 0.1;"/></g><g class="text"/></g><g class="trace scatter traceae9c4a" style="stroke-miterlimit: 2; opacity: 1;"><g class="fills"/><g class="errorbars"/><g class="lines"><path class="js-line" d="M18.17,408.69L35.57,204.45L18.17,408.69L49.12,175.63L80.08,111.38L111.03,60.46L141.99,36.33L172.94,23.98L203.9,17.59L234.85,14.31L265.81,12.8L296.76,12.09L358.67,12.15L389.63,12.94L420.58,14.76L451.54,18.35L482.49,25.18L513.45,37.98L544.4,61.68L575.36,105.31L606.31,204.45L606.31,204.45L608.24,227.14L623.71,408.69" style="vector-effect: non-scaling-stroke; fill: none; stroke: rgb(142, 151, 30); stroke-opacity: 1; stroke-width: 1px; opacity: 1;"/></g><g class="points"/><g class="text"/></g><g class="trace scatter tracedc85fd" style="stroke-miterlimit: 2; opacity: 1;"><g class="fills"/><g class="errorbars"/><g class="lines"/><g class="points"><path class="point" transform="translate(18.17,408.69)" d="M2,0A2,2 0 1,1 0,-2A2,2 0 0,1 2,0Z" style="opacity: 1; stroke-width: 1px; fill: rgb(142, 151, 30); fill-opacity: 0.1; stroke: rgb(0, 0, 0); stroke-opacity: 0.1;"/><path class="point" transform="translate(35.57,204.45)" d="M2,0A2,2 0 1,1 0,-2A2,2 0 0,1 2,0Z" style="opacity: 1; stroke-width: 1px; fill: rgb(142, 151, 30); fill-opacity: 0.1; stroke: rgb(0, 0, 0); stroke-opacity: 0.1;"/><path class="point" transform="translate(71.86,127.29)" d="M2,0A2,2 0 1,1 0,-2A2,2 0 0,1 2,0Z" style="opacity: 1; stroke-width: 1px; fill: rgb(142, 151, 30); fill-opacity: 0.1; stroke: rgb(0, 0, 0); stroke-opacity: 0.1;"/><path class="point" transform="translate(101.93,69.11)" d="M2,0A2,2 0 1,1 0,-2A2,2 0 0,1 2,0Z" style="opacity: 1; stroke-width: 1px; fill: rgb(142, 151, 30); fill-opacity: 0.1; stroke: rgb(0, 0, 0); stroke-opacity: 0.1;"/><path class="point" transform="translate(129.82,42.63)" d="M2,0A2,2 0 1,1 0,-2A2,2 0 0,1 2,0Z" style="opacity: 1; stroke-width: 1px; fill: rgb(142, 151, 30); fill-opacity: 0.1; stroke: rgb(0, 0, 0); stroke-opacity: 0.1;"/><path class="point" transform="translate(156.69,28.71)" d="M2,0A2,2 0 1,1 0,-2A2,2 0 0,1 2,0Z" style="opacity: 1; stroke-width: 1px; fill: rgb(142, 151, 30); fill-opacity: 0.1; stroke: rgb(0, 0, 0); stroke-opacity: 0.1;"/><path class="point" transform="translate(183.04,21.04)" d="M2,0A2,2 0 1,1 0,-2A2,2 0 0,1 2,0Z" style="opacity: 1; stroke-width: 1px; fill: rgb(142, 151, 30); fill-opacity: 0.1; stroke: rgb(0, 0, 0); stroke-opacity: 0.1;"/><path class="point" transform="translate(209.09,16.73)" d="M2,0A2,2 0 1,1 0,-2A2,2 0 0,1 2,0Z" style="opacity: 1; stroke-width: 1px; fill: rgb(142, 151, 30); fill-opacity: 0.1; stroke: rgb(0, 0, 0); stroke-opacity: 0.1;"/><path class="point" transform="translate(234.98,14.3)" d="M2,0A2,2 0 1,1 0,-2A2,2 0 0,1 2,0Z" style="opacity: 1; stroke-width: 1px; fill: rgb(142, 151, 30); fill-opacity: 0.1; stroke: rgb(0, 0, 0); stroke-opacity: 0.1;"/><path class="point" transform="translate(260.78,12.94)" d="M2,0A2,2 0 1,1 0,-2A2,2 0 0,1 2,0Z" style="opacity: 1; stroke-width: 1px; fill: rgb(142, 151, 30); fill-opacity: 0.1; stroke: rgb(0, 0, 0); stroke-opacity: 0.1;"/><path class="point" transform="translate(286.54,12.22)" d="M2,0A2,2 0 1,1 0,-2A2,2 0 0,1 2,0Z" style="opacity: 1; stroke-width: 1px; fill: rgb(142, 151, 30); fill-opacity: 0.1; stroke: rgb(0, 0, 0); stroke-opacity: 0.1;"/><path class="point" transform="translate(312.27,11.9)" d="M2,0A2,2 0 1,1 0,-2A2,2 0 0,1 2,0Z" style="opacity: 1; stroke-width: 1px; fill: rgb(142, 151, 30); fill-opacity: 0.1; stroke: rgb(0, 0, 0); stroke-opacity: 0.1;"/><path class="point" transform="translate(338.01,11.9)" d="M2,0A2,2 0 1,1 0,-2A2,2 0 0,1 2,0Z" style="opacity: 1; stroke-width: 1px; fill: rgb(142, 151, 30); fill-opacity: 0.1; stroke: rgb(0, 0, 0); stroke-opacity: 0.1;"/><path class="point" transform="translate(363.76,12.21)" d="M2,0A2,2 0 1,1 0,-2A2,2 0 0,1 2,0Z" style="opacity: 1; stroke-width: 1px; fill: rgb(142, 151, 30); fill-opacity: 0.1; stroke: rgb(0, 0, 0); stroke-opacity: 0.1;"/><path class="point" transform="translate(389.56,12.93)" d="M2,0A2,2 0 1,1 0,-2A2,2 0 0,1 2,0Z" style="opacity: 1; stroke-width: 1px; fill: rgb(142, 151, 30); fill-opacity: 0.1; stroke: rgb(0, 0, 0); stroke-opacity: 0.1;"/><path class="point" transform="translate(415.45,14.29)" d="M2,0A2,2 0 1,1 0,-2A2,2 0 0,1 2,0Z" style="opacity: 1; stroke-width: 1px; fill: rgb(142, 151, 30); fill-opacity: 0.1; stroke: rgb(0, 0, 0); stroke-opacity: 0.1;"/><path class="point" transform="translate(441.5,16.71)" d="M2,0A2,2 0 1,1 0,-2A2,2 0 0,1 2,0Z" style="opacity: 1; stroke-width: 1px; fill: rgb(142, 151, 30); fill-opacity: 0.1; stroke: rgb(0, 0, 0); stroke-opacity: 0.1;"/><path class="point" transform="translate(467.84,21.01)" d="M2,0A2,2 0 1,1 0,-2A2,2 0 0,1 2,0Z" style="opacity: 1; stroke-width: 1px; fill: rgb(142, 151, 30); fill-opacity: 0.1; stroke: rgb(0, 0, 0); stroke-opacity: 0.1;"/><path class="point" transform="translate(494.71,28.65)" d="M2,0A2,2 0 1,1 0,-2A2,2 0 0,1 2,0Z" style="opacity: 1; stroke-width: 1px; fill: rgb(142, 151, 30); fill-opacity: 0.1; stroke: rgb(0, 0, 0); stroke-opacity: 0.1;"/><path class="point" transform="translate(522.6,42.54)" d="M2,0A2,2 0 1,1 0,-2A2,2 0 0,1 2,0Z" style="opacity: 1; stroke-width: 1px; fill: rgb(142, 151, 30); fill-opacity: 0.1; stroke: rgb(0, 0, 0); stroke-opacity: 0.1;"/><path class="point" transform="translate(552.65,68.94)" d="M2,0A2,2 0 1,1 0,-2A2,2 0 0,1 2,0Z" style="opacity: 1; stroke-width: 1px; fill: rgb(142, 151, 30); fill-opacity: 0.1; stroke: rgb(0, 0, 0); stroke-opacity: 0.1;"/><path class="point" transform="translate(588.91,127.03)" d="M2,0A2,2 0 1,1 0,-2A2,2 0 0,1 2,0Z" style="opacity: 1; stroke-width: 1px; fill: rgb(142, 151, 30); fill-opacity: 0.1; stroke: rgb(0, 0, 0); stroke-opacity: 0.1;"/><path class="point" transform="translate(606.31,204.45)" d="M2,0A2,2 0 1,1 0,-2A2,2 0 0,1 2,0Z" style="opacity: 1; stroke-width: 1px; fill: rgb(142, 151, 30); fill-opacity: 0.1; stroke: rgb(0, 0, 0); stroke-opacity: 0.1;"/></g><g class="text"/></g></g></g><g class="overplot"/><path class="xlines-above crisp" d="M52.52836103820355,445.6252187226596H695.4068241469816" style="fill: none; stroke-width: 1px; stroke: rgb(0, 0, 0); stroke-opacity: 1;"/><path class="ylines-above crisp" d="M53.02836103820355,24.527559055118104V445.1252187226596" style="fill: none; stroke-width: 1px; stroke: rgb(0, 0, 0); stroke-opacity: 1;"/><g class="overlines-above"/><g class="xaxislayer-above"><path class="xtick ticks crisp" d="M0,445.1252187226596v-5" transform="translate(71.69836103820356,0)" style="stroke: rgb(0, 0, 0); stroke-opacity: 1; stroke-width: 1px;"/><path class="xtick ticks crisp" d="M0,445.1252187226596v-5" transform="translate(245.70836103820355,0)" style="stroke: rgb(0, 0, 0); stroke-opacity: 1; stroke-width: 1px;"/><path class="xtick ticks crisp" d="M0,445.1252187226596v-5" transform="translate(419.72836103820356,0)" style="stroke: rgb(0, 0, 0); stroke-opacity: 1; stroke-width: 1px;"/><path class="xtick ticks crisp" d="M0,445.1252187226596v-5" transform="translate(593.7483610382036,0)" style="stroke: rgb(0, 0, 0); stroke-opacity: 1; stroke-width: 1px;"/><g class="xtick"><text text-anchor="middle" x="0" y="459.3252187226596" transform="translate(71.69836103820356,0)" style="font-family: Helvetica; font-size: 11px; fill: rgb(0, 0, 0); fill-opacity: 1; white-space: pre;">0</text></g><g class="xtick"><text text-anchor="middle" x="0" y="459.3252187226596" transform="translate(245.70836103820355,0)" style="font-family: Helvetica; font-size: 11px; fill: rgb(0, 0, 0); fill-opacity: 1; white-space: pre;">10</text></g><g class="xtick"><text text-anchor="middle" x="0" y="459.3252187226596" transform="translate(419.72836103820356,0)" style="font-family: Helvetica; font-size: 11px; fill: rgb(0, 0, 0); fill-opacity: 1; white-space: pre;">20</text></g><g class="xtick"><text text-anchor="middle" x="0" y="459.3252187226596" transform="translate(593.7483610382036,0)" style="font-family: Helvetica; font-size: 11px; fill: rgb(0, 0, 0); fill-opacity: 1; white-space: pre;">30</text></g></g><g class="yaxislayer-above"><path class="ytick ticks crisp" d="M53.52836103820355,0h5" transform="translate(0,433.2175590551181)" style="stroke: rgb(0, 0, 0); stroke-opacity: 1; stroke-width: 1px;"/><path class="ytick ticks crisp" d="M53.52836103820355,0h5" transform="translate(0,347.6575590551181)" style="stroke: rgb(0, 0, 0); stroke-opacity: 1; stroke-width: 1px;"/><path class="ytick ticks crisp" d="M53.52836103820355,0h5" transform="translate(0,262.0975590551181)" style="stroke: rgb(0, 0, 0); stroke-opacity: 1; stroke-width: 1px;"/><path class="ytick ticks crisp" d="M53.52836103820355,0h5" transform="translate(0,176.5275590551181)" style="stroke: rgb(0, 0, 0); stroke-opacity: 1; stroke-width: 1px;"/><path class="ytick ticks crisp" d="M53.52836103820355,0h5" transform="translate(0,90.9675590551181)" style="stroke: rgb(0, 0, 0); stroke-opacity: 1; stroke-width: 1px;"/><g class="ytick"><text text-anchor="end" x="50.328361038203546" y="3.8499999999999996" transform="translate(0,433.2175590551181)" style="font-family: Helvetica; font-size: 11px; fill: rgb(0, 0, 0); fill-opacity: 1; white-space: pre;">0.0</text></g><g class="ytick"><text text-anchor="end" x="50.328361038203546" y="3.8499999999999996" transform="translate(0,347.6575590551181)" style="font-family: Helvetica; font-size: 11px; fill: rgb(0, 0, 0); fill-opacity: 1; white-space: pre;">0.1</text></g><g class="ytick"><text text-anchor="end" x="50.328361038203546" y="3.8499999999999996" transform="translate(0,262.0975590551181)" style="font-family: Helvetica; font-size: 11px; fill: rgb(0, 0, 0); fill-opacity: 1; white-space: pre;">0.2</text></g><g class="ytick"><text text-anchor="end" x="50.328361038203546" y="3.8499999999999996" transform="translate(0,176.5275590551181)" style="font-family: Helvetica; font-size: 11px; fill: rgb(0, 0, 0); fill-opacity: 1; white-space: pre;">0.3</text></g><g class="ytick"><text text-anchor="end" x="50.328361038203546" y="3.8499999999999996" transform="translate(0,90.9675590551181)" style="font-family: Helvetica; font-size: 11px; fill: rgb(0, 0, 0); fill-opacity: 1; white-space: pre;">0.4</text></g></g><g class="overaxes-above"/></g></g><g class="polarlayer"/><g class="ternarylayer"/><g class="geolayer"/><g class="funnelarealayer"/><g class="pielayer"/><g class="treemaplayer"/><g class="sunburstlayer"/><g class="glimages"/><defs id="topdefs-eed96e"><g class="clips"/></defs><g class="layer-above"><g class="imagelayer"/><g class="shapelayer"/></g><g class="infolayer"><g class="g-gtitle"/><g class="g-xtitle" transform="translate(0,-3.6252187226596106)"><text class="xtitle" x="374.4675925925926" y="500.1252187226596" text-anchor="middle" style="font-family: Helvetica; font-size: 15px; fill: rgb(0, 0, 0); opacity: 1; font-weight: normal; white-space: pre;">time</text></g><g class="g-ytitle" transform="translate(0.4853515625,0)"><text class="ytitle" transform="rotate(-90,13.528361038203549,234.82638888888886)" x="13.528361038203549" y="234.82638888888886" text-anchor="middle" style="font-family: Helvetica; font-size: 15px; fill: rgb(0, 0, 0); opacity: 1; font-weight: normal; white-space: pre;">speed</text></g></g></svg>