<svg class="main-svg" xmlns="http://www.w3.org/2000/svg" xmlns:xlink="http://www.w3.org/1999/xlink" width="700" height="500" style="" viewBox="0 0 700 500"><rect x="0" y="0" width="700" height="500" style="fill: rgb(255, 255, 255); fill-opacity: 1;"/><defs id="defs-cd115e"><g class="clips"><clipPath id="clipcd115exyplot" class="plotclip"><rect width="641.8784631087781" height="420.5976596675415"/></clipPath><clipPath class="axesclip" id="clipcd115ex"><rect x="53.52836103820355" y="0" width="641.8784631087781" height="500"/></clipPath><clipPath class="axesclip" id="clipcd115ey"><rect x="0" y="24.527559055118104" width="700" height="420.5976596675415"/></clipPath><clipPath class="axesclip" id="clipcd115exy"><rect x="53.52836103820355" y="24.527559055118104" width="641.8784631087781" height="420.5976596675415"/></clipPath></g><g class="gradients"/></defs><g class="bglayer"/><g class="layer-below"><g class="imagelayer"/><g class="shapelayer"/></g><g class="cartesianlayer"><g class="subplot xy"><g class="layer-subplot"><g class="shapelayer"/><g class="imagelayer"/></g><g class="gridlayer"><g class="x"/><g class="y"/></g><g class="zerolinelayer"/><path class="xlines-below"/><path class="ylines-below"/><g class="overlines-below"/><g class="xaxislayer-below"/><g class="yaxislayer-below"/><g class="overaxes-below"/><g class="plot" transform="translate(53.52836103820355,24.527559055118104)" clip-path="url('#clipcd115exyplot')"><g class="scatterlayer mlayer"><g class="trace scatter trace210725" style="stroke-miterlimit: 2; opacity: 1;"><g class="fills"/><g class="errorbars"/><g class="lines"><path class="js-line" d="M18.17,408.69L65.27,213.05L69.55,203.79L99.52,408.69" style="vector-effect: non-scaling-stroke; fill: none; stroke: rgb(0, 154, 250); stroke-opacity: 1; stroke-width: 1px; opacity: 1;"/></g><g class="points"/><g class="text"/></g><g class="trace scatter tracebb3249" style="stroke-miterlimit: 2; opacity: 1;"><g class="fills"/><g class="errorbars"/><g class="lines"><path class="js-line" d="M18.17,408.69L68.77,198.49L99.52,408.69" style="vector-effect: non-scaling-stroke; fill: none; stroke: rgb(0, 154, 250); stroke-opacity: 1; stroke-width: 1px; opacity: 1;"/></g><g class="points"/><g class="text"/></g><g class="trace scatter trace9a0840" style="stroke-miterlimit: 2; opacity: 1;"><g class="fills"/><g class="errorbars"/><g class="lines"/><g class="points"><path class="point" transform="translate(18.17,408.69)" d="M2,0A2,2 0 1,1 0,-2A2,2 0 0,1 2,0Z" style="opacity: 1; stroke-width: 1px; fill: rgb(0, 154, 250); fill-opacity: 0.1; stroke: rgb(0, 0, 0); stroke-opacity: 0.1;"/><path class="point" transform="translate(68.77,198.49)" d="M2,0A2,2 0 1,1 0,-2A2,2 0 0,1 2,0Z" style="opacity: 1; stroke-width: 1px; fill: rgb(0, 154, 250); fill-opacity: 0.1; stroke: rgb(0, 0, 0); stroke-opacity: 0.1;"/><path class="point" transform="translate(99.52,408.69)" d="M2,0A2,2 0 1,1 0,-2A2,2 0 0,1 2,0Z" style="opacity: 1; stroke-width: 1px; fill: rgb(0, 154, 250); fill-opacity: 0.1; stroke: rgb(0, 0, 0); stroke-opacity: 0.1;"/></g><g class="text"/></g><g class="trace scatter tracea399a8" style="stroke-miterlimit: 2; opacity: 1;"><g class="fills"/><g class="errorbars"/><g class="lines"><path class="js-line" d="M18.17,408.69L60.63,157.14L66.7,157.08L97.03,156.79L103.1,160.16L133.43,408.69" style="vector-effect: non-scaling-stroke; fill: none; stroke: rgb(227, 111, 71); stroke-opacity: 1; stroke-width: 1px; opacity: 1;"/></g><g class="points"/><g class="text"/></g><g class="trace scatter tracefea5e7" style="stroke-miterlimit: 2; opacity: 1;"><g class="fills"/><g class="errorbars"/><g class="lines"><path class="js-line" d="M18.17,408.69L60.46,157.14L102.68,156.74L133.43,408.69" style="vector-effect: non-scaling-stroke; fill: none; stroke: rgb(227, 111, 71); stroke-opacity: 1; stroke-width: 1px; opacity: 1;"/></g><g class="points"/><g class="text"/></g><g class="trace scatter trace56945b" style="stroke-miterlimit: 2; opacity: 1;"><g class="fills"/><g class="errorbars"/><g class="lines"/><g class="points"><path class="point" transform="translate(18.17,408.69)" d="M2,0A2,2 0 1,1 0,-2A2,2 0 0,1 2,0Z" style="opacity: 1; stroke-width: 1px; fill: rgb(227, 111, 71); fill-opacity: 0.1; stroke: rgb(0, 0, 0); stroke-opacity: 0.1;"/><path class="point" transform="translate(60.46,157.14)" d="M2,0A2,2 0 1,1 0,-2A2,2 0 0,1 2,0Z" style="opacity: 1; stroke-width: 1px; fill: rgb(227, 111, 71); fill-opacity: 0.1; stroke: rgb(0, 0, 0); stroke-opacity: 0.1;"/><path class="point" transform="translate(102.68,156.74)" d="M2,0A2,2 0 1,1 0,-2A2,2 0 0,1 2,0Z" style="opacity: 1; stroke-width: 1px; fill: rgb(227, 111, 71); fill-opacity: 0.1; stroke: rgb(0, 0, 0); stroke-opacity: 0.1;"/><path class="point" transform="translate(133.43,408.69)" d="M2,0A2,2 0 1,1 0,-2A2,2 0 0,1 2,0Z" style="opacity: 1; stroke-width: 1px; fill: rgb(227, 111, 71); fill-opacity: 0.1; stroke: rgb(0, 0, 0); stroke-opacity: 0.1;"/></g><g class="text"/></g><g class="trace scatter trace1f916b" style="stroke-miterlimit: 2; opacity: 1;"><g class="fills"/><g class="errorbars"/><g class="lines"><path class="js-line" d="M18.17,408.69L56.5,154.33L64.17,136.36L87.17,110.67L94.84,105.68L133.18,143.26L140.84,209.62L163.85,408.69" style="vector-effect: non-scaling-stroke; fill: none; stroke: rgb(62, 164, 78); stroke-opacity: 1; stroke-width: 1px; opacity: 1;"/></g><g class="points"/><g class="text"/></g><g class="trace scatter trace584f05" style="stroke-miterlimit: 2; opacity: 1;"><g class="fills"/><g class="errorbars"/><g class="lines"><path class="js-line" d="M18.17,408.69L58.21,143.02L93.12,104.02L133.1,142.57L163.85,408.69" style="vector-effect: non-scaling-stroke; fill: none; stroke: rgb(62, 164, 78); stroke-opacity: 1; stroke-width: 1px; opacity: 1;"/></g><g class="points"/><g class="text"/></g><g class="trace scatter traceb55ea4" style="stroke-miterlimit: 2; opacity: 1;"><g class="fills"/><g class="errorbars"/><g class="lines"/><g class="points"><path class="point" transform="translate(18.17,408.69)" d="M2,0A2,2 0 1,1 0,-2A2,2 0 0,1 2,0Z" style="opacity: 1; stroke-width: 1px; fill: rgb(62, 164, 78); fill-opacity: 0.1; stroke: rgb(0, 0, 0); stroke-opacity: 0.1;"/><path class="point" transform="translate(58.21,143.02)" d="M2,0A2,2 0 1,1 0,-2A2,2 0 0,1 2,0Z" style="opacity: 1; stroke-width: 1px; fill: rgb(62, 164, 78); fill-opacity: 0.1; stroke: rgb(0, 0, 0); stroke-opacity: 0.1;"/><path class="point" transform="translate(93.12,104.02)" d="M2,0A2,2 0 1,1 0,-2A2,2 0 0,1 2,0Z" style="opacity: 1; stroke-width: 1px; fill: rgb(62, 164, 78); fill-opacity: 0.1; stroke: rgb(0, 0, 0); stroke-opacity: 0.1;"/><path class="point" transform="translate(133.1,142.57)" d="M2,0A2,2 0 1,1 0,-2A2,2 0 0,1 2,0Z" style="opacity: 1; stroke-width: 1px; fill: rgb(62, 164, 78); fill-opacity: 0.1; stroke: rgb(0, 0, 0); stroke-opacity: 0.1;"/><path class="point" transform="translate(163.85,408.69)" d="M2,0A2,2 0 1,1 0,-2A2,2 0 0,1 2,0Z" style="opacity: 1; stroke-width: 1px; fill: rgb(62, 164, 78); fill-opacity: 0.1; stroke: rgb(0, 0, 0); stroke-opacity: 0.1;"/></g><g class="text"/></g><g class="trace scatter traceeec673" style="stroke-miterlimit: 2; opacity: 1;"><g class="fills"/><g class="errorbars"/><g class="lines"><path class="js-line" d="M18.17,408.69L54.9,152.43L64.08,125.54L82.45,96.83L91.63,84.91L119.18,84.8L128.36,91.92L155.91,127.98L165.1,164.21L192.65,408.69" style="vector-effect: non-scaling-stroke; fill: none; stroke: rgb(195, 113, 210); stroke-opacity: 1; stroke-width: 1px; opacity: 1;"/></g><g class="points"/><g class="text"/></g><g class="trace scatter tracefbdaa5" style="stroke-miterlimit: 2; opacity: 1;"><g class="fills"/><g class="errorbars"/><g class="lines"><path class="js-line" d="M18.17,408.69L57.22,136.27L90.07,84.92L122.91,84.79L161.9,135.81L192.65,408.69" style="vector-effect: non-scaling-stroke; fill: none; stroke: rgb(195, 113, 210); stroke-opacity: 1; stroke-width: 1px; opacity: 1;"/></g><g class="points"/><g class="text"/></g><g class="trace scatter traceea5278" style="stroke-miterlimit: 2; opacity: 1;"><g class="fills"/><g class="errorbars"/><g class="lines"/><g class="points"><path class="point" transform="translate(18.17,408.69)" d="M2,0A2,2 0 1,1 0,-2A2,2 0 0,1 2,0Z" style="opacity: 1; stroke-width: 1px; fill: rgb(195, 113, 210); fill-opacity: 0.1; stroke: rgb(0, 0, 0); stroke-opacity: 0.1;"/><path class="point" transform="translate(57.22,136.27)" d="M2,0A2,2 0 1,1 0,-2A2,2 0 0,1 2,0Z" style="opacity: 1; stroke-width: 1px; fill: rgb(195, 113, 210); fill-opacity: 0.1; stroke: rgb(0, 0, 0); stroke-opacity: 0.1;"/><path class="point" transform="translate(90.07,84.92)" d="M2,0A2,2 0 1,1 0,-2A2,2 0 0,1 2,0Z" style="opacity: 1; stroke-width: 1px; fill: rgb(195, 113, 210); fill-opacity: 0.1; stroke: rgb(0, 0, 0); stroke-opacity: 0.1;"/><path class="point" transform="translate(122.91,84.79)" d="M2,0A2,2 0 1,1 0,-2A2,2 0 0,1 2,0Z" style="opacity: 1; stroke-width: 1px; fill: rgb(195, 113, 210); fill-opacity: 0.1; stroke: rgb(0, 0, 0); stroke-opacity: 0.1;"/><path class="point" transform="translate(161.9,135.81)" d="M2,0A2,2 0 1,1 0,-2A2,2 0 0,1 2,0Z" style="opacity: 1; stroke-width: 1px; fill: rgb(195, 113, 210); fill-opacity: 0.1; stroke: rgb(0, 0, 0); stroke-opacity: 0.1;"/><path class="point" transform="translate(192.65,408.69)" d="M2,0A2,2 0 1,1 0,-2A2,2 0 0,1 2,0Z" style="opacity: 1; stroke-width: 1px; fill: rgb(195, 113, 210); fill-opacity: 0.1; stroke: rgb(0, 0, 0); stroke-opacity: 0.1;"/></g><g class="text"/></g><g class="trace scatter trace77dd81" style="stroke-miterlimit: 2; opacity: 1;"><g class="fills"/><g class="errorbars"/><g class="lines"><path class="js-line" d="M18.17,408.69L50.13,179.94L60.78,125.52L82.09,87.53L92.74,74.04L114.05,64.9L124.7,64.75L146.01,73.42L156.66,83.43L188.62,130.51L199.28,217.17L220.58,408.69" style="vector-effect: non-scaling-stroke; fill: none; stroke: rgb(172, 142, 24); stroke-opacity: 1; stroke-width: 1px; opacity: 1;"/></g><g class="points"/><g class="text"/></g><g class="trace scatter trace4ec4e2" style="stroke-miterlimit: 2; opacity: 1;"><g class="fills"/><g class="errorbars"/><g class="lines"><path class="js-line" d="M18.17,408.69L56.72,132.76L88.67,75.79L119.41,62.6L151.35,75.59L189.83,132.3L220.58,408.69" style="vector-effect: non-scaling-stroke; fill: none; stroke: rgb(172, 142, 24); stroke-opacity: 1; stroke-width: 1px; opacity: 1;"/></g><g class="points"/><g class="text"/></g><g class="trace scatter tracefec9a1" style="stroke-miterlimit: 2; opacity: 1;"><g class="fills"/><g class="errorbars"/><g class="lines"/><g class="points"><path class="point" transform="translate(18.17,408.69)" d="M2,0A2,2 0 1,1 0,-2A2,2 0 0,1 2,0Z" style="opacity: 1; stroke-width: 1px; fill: rgb(172, 142, 24); fill-opacity: 0.1; stroke: rgb(0, 0, 0); stroke-opacity: 0.1;"/><path class="point" transform="translate(56.72,132.76)" d="M2,0A2,2 0 1,1 0,-2A2,2 0 0,1 2,0Z" style="opacity: 1; stroke-width: 1px; fill: rgb(172, 142, 24); fill-opacity: 0.1; stroke: rgb(0, 0, 0); stroke-opacity: 0.1;"/><path class="point" transform="translate(88.67,75.79)" d="M2,0A2,2 0 1,1 0,-2A2,2 0 0,1 2,0Z" style="opacity: 1; stroke-width: 1px; fill: rgb(172, 142, 24); fill-opacity: 0.1; stroke: rgb(0, 0, 0); stroke-opacity: 0.1;"/><path class="point" transform="translate(119.41,62.6)" d="M2,0A2,2 0 1,1 0,-2A2,2 0 0,1 2,0Z" style="opacity: 1; stroke-width: 1px; fill: rgb(172, 142, 24); fill-opacity: 0.1; stroke: rgb(0, 0, 0); stroke-opacity: 0.1;"/><path class="point" transform="translate(151.35,75.59)" d="M2,0A2,2 0 1,1 0,-2A2,2 0 0,1 2,0Z" style="opacity: 1; stroke-width: 1px; fill: rgb(172, 142, 24); fill-opacity: 0.1; stroke: rgb(0, 0, 0); stroke-opacity: 0.1;"/><path class="point" transform="translate(189.83,132.3)" d="M2,0A2,2 0 1,1 0,-2A2,2 0 0,1 2,0Z" style="opacity: 1; stroke-width: 1px; fill: rgb(172, 142, 24); fill-opacity: 0.1; stroke: rgb(0, 0, 0); stroke-opacity: 0.1;"/><path class="point" transform="translate(220.58,408.69)" d="M2,0A2,2 0 1,1 0,-2A2,2 0 0,1 2,0Z" style="opacity: 1; stroke-width: 1px; fill: rgb(172, 142, 24); fill-opacity: 0.1; stroke: rgb(0, 0, 0); stroke-opacity: 0.1;"/></g><g class="text"/></g><g class="trace scatter trace307215" style="stroke-miterlimit: 2; opacity: 1;"><g class="fills"/><g class="errorbars"/><g class="lines"><path class="js-line" d="M18.17,408.69L54.46,145.35L66.56,111.69L78.66,88.72L90.76,69.25L114.95,53.61L127.05,51.77L139.15,51.74L151.25,53.96L175.44,68.64L187.54,84.06L211.74,121.77L223.84,189.71L248.03,408.69" style="vector-effect: non-scaling-stroke; fill: none; stroke: rgb(0, 170, 174); stroke-opacity: 1; stroke-width: 1px; opacity: 1;"/></g><g class="points"/><g class="text"/></g><g class="trace scatter trace4150d5" style="stroke-miterlimit: 2; opacity: 1;"><g class="fills"/><g class="errorbars"/><g class="lines"><path class="js-line" d="M18.17,408.69L56.46,130.87L87.96,71.05L117.77,51.79L147.57,51.73L179.06,70.83L217.28,130.41L248.03,408.69" style="vector-effect: non-scaling-stroke; fill: none; stroke: rgb(0, 170, 174); stroke-opacity: 1; stroke-width: 1px; opacity: 1;"/></g><g class="points"/><g class="text"/></g><g class="trace scatter tracec9707a" style="stroke-miterlimit: 2; opacity: 1;"><g class="fills"/><g class="errorbars"/><g class="lines"/><g class="points"><path class="point" transform="translate(18.17,408.69)" d="M2,0A2,2 0 1,1 0,-2A2,2 0 0,1 2,0Z" style="opacity: 1; stroke-width: 1px; fill: rgb(0, 170, 174); fill-opacity: 0.1; stroke: rgb(0, 0, 0); stroke-opacity: 0.1;"/><path class="point" transform="translate(56.46,130.87)" d="M2,0A2,2 0 1,1 0,-2A2,2 0 0,1 2,0Z" style="opacity: 1; stroke-width: 1px; fill: rgb(0, 170, 174); fill-opacity: 0.1; stroke: rgb(0, 0, 0); stroke-opacity: 0.1;"/><path class="point" transform="translate(87.96,71.05)" d="M2,0A2,2 0 1,1 0,-2A2,2 0 0,1 2,0Z" style="opacity: 1; stroke-width: 1px; fill: rgb(0, 170, 174); fill-opacity: 0.1; stroke: rgb(0, 0, 0); stroke-opacity: 0.1;"/><path class="point" transform="translate(117.77,51.79)" d="M2,0A2,2 0 1,1 0,-2A2,2 0 0,1 2,0Z" style="opacity: 1; stroke-width: 1px; fill: rgb(0, 170, 174); fill-opacity: 0.1; stroke: rgb(0, 0, 0); stroke-opacity: 0.1;"/><path class="point" transform="translate(147.57,51.73)" d="M2,0A2,2 0 1,1 0,-2A2,2 0 0,1 2,0Z" style="opacity: 1; stroke-width: 1px; fill: rgb(0, 170, 174); fill-opacity: 0.1; stroke: rgb(0, 0, 0); stroke-opacity: 0.1;"/><path class="point" transform="translate(179.06,70.83)" d="M2,0A2,2 0 1,1 0,-2A2,2 0 0,1 2,0Z" style="opacity: 1; stroke-width: 1px; fill: rgb(0, 170, 174); fill-opacity: 0.1; stroke: rgb(0, 0, 0); stroke-opacity: 0.1;"/><path class="point" transform="translate(217.28,130.41)" d="M2,0A2,2 0 1,1 0,-2A2,2 0 0,1 2,0Z" style="opacity: 1; stroke-width: 1px; fill: rgb(0, 170, 174); fill-opacity: 0.1; stroke: rgb(0, 0, 0); stroke-opacity: 0.1;"/><path class="point" transform="translate(248.03,408.69)" d="M2,0A2,2 0 1,1 0,-2A2,2 0 0,1 2,0Z" style="opacity: 1; stroke-width: 1px; fill: rgb(0, 170, 174); fill-opacity: 0.1; stroke: rgb(0, 0, 0); stroke-opacity: 0.1;"/></g><g class="text"/></g><g class="trace scatter tracefeaad8" style="stroke-miterlimit: 2; opacity: 1;"><g class="fills"/><g class="errorbars"/><g class="lines"><path class="js-line" d="M18.17,408.69L45.22,210.92L58.75,125.06L85.81,72.01L99.33,59.56L112.86,49.25L126.39,44.12L139.92,41.23L153.45,41.56L166.97,44.36L180.5,49.88L194.03,59.51L207.56,70.19L234.61,113.6L248.14,162.93L275.2,408.69" style="vector-effect: non-scaling-stroke; fill: none; stroke: rgb(237, 94, 147); stroke-opacity: 1; stroke-width: 1px; opacity: 1;"/></g><g class="points"/><g class="text"/></g><g class="trace scatter trace139acd" style="stroke-miterlimit: 2; opacity: 1;"><g class="fills"/><g class="errorbars"/><g class="lines"><path class="js-line" d="M18.17,408.69L56.32,129.84L87.59,68.52L116.93,46.15L145.78,39.97L175.11,46.05L206.36,68.28L244.45,129.37L275.2,408.69" style="vector-effect: non-scaling-stroke; fill: none; stroke: rgb(237, 94, 147); stroke-opacity: 1; stroke-width: 1px; opacity: 1;"/></g><g class="points"/><g class="text"/></g><g class="trace scatter trace9f635f" style="stroke-miterlimit: 2; opacity: 1;"><g class="fills"/><g class="errorbars"/><g class="lines"/><g class="points"><path class="point" transform="translate(18.17,408.69)" d="M2,0A2,2 0 1,1 0,-2A2,2 0 0,1 2,0Z" style="opacity: 1; stroke-width: 1px; fill: rgb(237, 94, 147); fill-opacity: 0.1; stroke: rgb(0, 0, 0); stroke-opacity: 0.1;"/><path class="point" transform="translate(56.32,129.84)" d="M2,0A2,2 0 1,1 0,-2A2,2 0 0,1 2,0Z" style="opacity: 1; stroke-width: 1px; fill: rgb(237, 94, 147); fill-opacity: 0.1; stroke: rgb(0, 0, 0); stroke-opacity: 0.1;"/><path class="point" transform="translate(87.59,68.52)" d="M2,0A2,2 0 1,1 0,-2A2,2 0 0,1 2,0Z" style="opacity: 1; stroke-width: 1px; fill: rgb(237, 94, 147); fill-opacity: 0.1; stroke: rgb(0, 0, 0); stroke-opacity: 0.1;"/><path class="point" transform="translate(116.93,46.15)" d="M2,0A2,2 0 1,1 0,-2A2,2 0 0,1 2,0Z" style="opacity: 1; stroke-width: 1px; fill: rgb(237, 94, 147); fill-opacity: 0.1; stroke: rgb(0, 0, 0); stroke-opacity: 0.1;"/><path class="point" transform="translate(145.78,39.97)" d="M2,0A2,2 0 1,1 0,-2A2,2 0 0,1 2,0Z" style="opacity: 1; stroke-width: 1px; fill: rgb(237, 94, 147); fill-opacity: 0.1; stroke: rgb(0, 0, 0); stroke-opacity: 0.1;"/><path class="point" transform="translate(175.11,46.05)" d="M2,0A2,2 0 1,1 0,-2A2,2 0 0,1 2,0Z" style="opacity: 1; stroke-width: 1px; fill: rgb(237, 94, 147); fill-opacity: 0.1; stroke: rgb(0, 0, 0); stroke-opacity: 0.1;"/><path class="point" transform="translate(206.36,68.28)" d="M2,0A2,2 0 1,1 0,-2A2,2 0 0,1 2,0Z" style="opacity: 1; stroke-width: 1px; fill: rgb(237, 94, 147); fill-opacity: 0.1; stroke: rgb(0, 0, 0); stroke-opacity: 0.1;"/><path class="point" transform="translate(244.45,129.37)" d="M2,0A2,2 0 1,1 0,-2A2,2 0 0,1 2,0Z" style="opacity: 1; stroke-width: 1px; fill: rgb(237, 94, 147); fill-opacity: 0.1; stroke: rgb(0, 0, 0); stroke-opacity: 0.1;"/><path class="point" transform="translate(275.2,408.69)" d="M2,0A2,2 0 1,1 0,-2A2,2 0 0,1 2,0Z" style="opacity: 1; stroke-width: 1px; fill: rgb(237, 94, 147); fill-opacity: 0.1; stroke: rgb(0, 0, 0); stroke-opacity: 0.1;"/></g><g class="text"/></g><g class="trace scatter trace705267" style="stroke-miterlimit: 2; opacity: 1;"><g class="fills"/><g class="errorbars"/><g class="lines"><path class="js-line" d="M18.17,408.69L53.72,146.82L71.5,97.75L89.28,64.13L107.06,48.5L124.83,36.84L142.61,29.28L160.39,25.79L178.17,23.8L195.95,23.79L213.72,26.25L231.5,30.28L249.28,37.56L267.06,49.23L284.84,63.72L302.61,91.04L320.39,120.38L338.17,246.59L355.95,408.69" style="vector-effect: non-scaling-stroke; fill: none; stroke: rgb(198, 130, 37); stroke-opacity: 1; stroke-width: 1px; opacity: 1;"/></g><g class="points"/><g class="text"/></g><g class="trace scatter trace7eccef" style="stroke-miterlimit: 2; opacity: 1;"><g class="fills"/><g class="errorbars"/><g class="lines"><path class="js-line" d="M18.17,408.69L56.17,128.78L87.21,65.95L116.1,40.54L144.1,28.65L171.73,23.8L199.37,23.78L227.36,28.59L256.24,40.41L287.26,65.7L325.2,128.32L355.95,408.69" style="vector-effect: non-scaling-stroke; fill: none; stroke: rgb(198, 130, 37); stroke-opacity: 1; stroke-width: 1px; opacity: 1;"/></g><g class="points"/><g class="text"/></g><g class="trace scatter trace2f47e5" style="stroke-miterlimit: 2; opacity: 1;"><g class="fills"/><g class="errorbars"/><g class="lines"/><g class="points"><path class="point" transform="translate(18.17,408.69)" d="M2,0A2,2 0 1,1 0,-2A2,2 0 0,1 2,0Z" style="opacity: 1; stroke-width: 1px; fill: rgb(198, 130, 37); fill-opacity: 0.1; stroke: rgb(0, 0, 0); stroke-opacity: 0.1;"/><path class="point" transform="translate(56.17,128.78)" d="M2,0A2,2 0 1,1 0,-2A2,2 0 0,1 2,0Z" style="opacity: 1; stroke-width: 1px; fill: rgb(198, 130, 37); fill-opacity: 0.1; stroke: rgb(0, 0, 0); stroke-opacity: 0.1;"/><path class="point" transform="translate(87.21,65.95)" d="M2,0A2,2 0 1,1 0,-2A2,2 0 0,1 2,0Z" style="opacity: 1; stroke-width: 1px; fill: rgb(198, 130, 37); fill-opacity: 0.1; stroke: rgb(0, 0, 0); stroke-opacity: 0.1;"/><path class="point" transform="translate(116.1,40.54)" d="M2,0A2,2 0 1,1 0,-2A2,2 0 0,1 2,0Z" style="opacity: 1; stroke-width: 1px; fill: rgb(198, 130, 37); fill-opacity: 0.1; stroke: rgb(0, 0, 0); stroke-opacity: 0.1;"/><path class="point" transform="translate(144.1,28.65)" d="M2,0A2,2 0 1,1 0,-2A2,2 0 0,1 2,0Z" style="opacity: 1; stroke-width: 1px; fill: rgb(198, 130, 37); fill-opacity: 0.1; stroke: rgb(0, 0, 0); stroke-opacity: 0.1;"/><path class="point" transform="translate(171.73,23.8)" d="M2,0A2,2 0 1,1 0,-2A2,2 0 0,1 2,0Z" style="opacity: 1; stroke-width: 1px; fill: rgb(198, 130, 37); fill-opacity: 0.1; stroke: rgb(0, 0, 0); stroke-opacity: 0.1;"/><path class="point" transform="translate(199.37,23.78)" d="M2,0A2,2 0 1,1 0,-2A2,2 0 0,1 2,0Z" style="opacity: 1; stroke-width: 1px; fill: rgb(198, 130, 37); fill-opacity: 0.1; stroke: rgb(0, 0, 0); stroke-opacity: 0.1;"/><path class="point" transform="translate(227.36,28.59)" d="M2,0A2,2 0 1,1 0,-2A2,2 0 0,1 2,0Z" style="opacity: 1; stroke-width: 1px; fill: rgb(198, 130, 37); fill-opacity: 0.1; stroke: rgb(0, 0, 0); stroke-opacity: 0.1;"/><path class="point" transform="translate(256.24,40.41)" d="M2,0A2,2 0 1,1 0,-2A2,2 0 0,1 2,0Z" style="opacity: 1; stroke-width: 1px; fill: rgb(198, 130, 37); fill-opacity: 0.1; stroke: rgb(0, 0, 0); stroke-opacity: 0.1;"/><path class="point" transform="translate(287.26,65.7)" d="M2,0A2,2 0 1,1 0,-2A2,2 0 0,1 2,0Z" style="opacity: 1; stroke-width: 1px; fill: rgb(198, 130, 37); fill-opacity: 0.1; stroke: rgb(0, 0, 0); stroke-opacity: 0.1;"/><path class="point" transform="translate(325.2,128.32)" d="M2,0A2,2 0 1,1 0,-2A2,2 0 0,1 2,0Z" style="opacity: 1; stroke-width: 1px; fill: rgb(198, 130, 37); fill-opacity: 0.1; stroke: rgb(0, 0, 0); stroke-opacity: 0.1;"/><path class="point" transform="translate(355.95,408.69)" d="M2,0A2,2 0 1,1 0,-2A2,2 0 0,1 2,0Z" style="opacity: 1; stroke-width: 1px; fill: rgb(198, 130, 37); fill-opacity: 0.1; stroke: rgb(0, 0, 0); stroke-opacity: 0.1;"/></g><g class="text"/></g><g class="trace scatter trace6ad531" style="stroke-miterlimit: 2; opacity: 1;"><g class="fills"/><g class="errorbars"/><g class="lines"><path class="js-line" d="M18.17,408.69L42.99,225.57L67.82,104.8L92.65,60.49L117.47,38.76L142.3,27.21L167.13,20.74L191.96,17.03L216.78,15.05L241.61,14.21L266.44,14.27L291.26,15.26L316.09,17.46L340.92,21.48L365.74,28.37L390.57,39.6L415.4,60.34L440.23,96.74L465.05,182.15L489.88,408.69" style="vector-effect: non-scaling-stroke; fill: none; stroke: rgb(0, 169, 141); stroke-opacity: 1; stroke-width: 1px; opacity: 1;"/></g><g class="points"/><g class="text"/></g><g class="trace scatter trace1e9402" style="stroke-miterlimit: 2; opacity: 1;"><g class="fills"/><g class="errorbars"/><g class="lines"><path class="js-line" d="M18.17,408.69L56.14,128.58L87.14,65.46L115.95,39.47L143.78,26.52L171.13,19.75L198.24,16.21L225.23,14.52L252.18,14.01L279.17,14.51L306.27,16.19L333.62,19.71L361.45,26.45L390.25,39.33L421.22,65.2L459.13,128.11L489.88,408.69" style="vector-effect: non-scaling-stroke; fill: none; stroke: rgb(0, 169, 141); stroke-opacity: 1; stroke-width: 1px; opacity: 1;"/></g><g class="points"/><g class="text"/></g><g class="trace scatter trace110688" style="stroke-miterlimit: 2; opacity: 1;"><g class="fills"/><g class="errorbars"/><g class="lines"/><g class="points"><path class="point" transform="translate(18.17,408.69)" d="M2,0A2,2 0 1,1 0,-2A2,2 0 0,1 2,0Z" style="opacity: 1; stroke-width: 1px; fill: rgb(0, 169, 141); fill-opacity: 0.1; stroke: rgb(0, 0, 0); stroke-opacity: 0.1;"/><path class="point" transform="translate(56.14,128.58)" d="M2,0A2,2 0 1,1 0,-2A2,2 0 0,1 2,0Z" style="opacity: 1; stroke-width: 1px; fill: rgb(0, 169, 141); fill-opacity: 0.1; stroke: rgb(0, 0, 0); stroke-opacity: 0.1;"/><path class="point" transform="translate(87.14,65.46)" d="M2,0A2,2 0 1,1 0,-2A2,2 0 0,1 2,0Z" style="opacity: 1; stroke-width: 1px; fill: rgb(0, 169, 141); fill-opacity: 0.1; stroke: rgb(0, 0, 0); stroke-opacity: 0.1;"/><path class="point" transform="translate(115.95,39.47)" d="M2,0A2,2 0 1,1 0,-2A2,2 0 0,1 2,0Z" style="opacity: 1; stroke-width: 1px; fill: rgb(0, 169, 141); fill-opacity: 0.1; stroke: rgb(0, 0, 0); stroke-opacity: 0.1;"/><path class="point" transform="translate(143.78,26.52)" d="M2,0A2,2 0 1,1 0,-2A2,2 0 0,1 2,0Z" style="opacity: 1; stroke-width: 1px; fill: rgb(0, 169, 141); fill-opacity: 0.1; stroke: rgb(0, 0, 0); stroke-opacity: 0.1;"/><path class="point" transform="translate(171.13,19.75)" d="M2,0A2,2 0 1,1 0,-2A2,2 0 0,1 2,0Z" style="opacity: 1; stroke-width: 1px; fill: rgb(0, 169, 141); fill-opacity: 0.1; stroke: rgb(0, 0, 0); stroke-opacity: 0.1;"/><path class="point" transform="translate(198.24,16.21)" d="M2,0A2,2 0 1,1 0,-2A2,2 0 0,1 2,0Z" style="opacity: 1; stroke-width: 1px; fill: rgb(0, 169, 141); fill-opacity: 0.1; stroke: rgb(0, 0, 0); stroke-opacity: 0.1;"/><path class="point" transform="translate(225.23,14.52)" d="M2,0A2,2 0 1,1 0,-2A2,2 0 0,1 2,0Z" style="opacity: 1; stroke-width: 1px; fill: rgb(0, 169, 141); fill-opacity: 0.1; stroke: rgb(0, 0, 0); stroke-opacity: 0.1;"/><path class="point" transform="translate(252.18,14.01)" d="M2,0A2,2 0 1,1 0,-2A2,2 0 0,1 2,0Z" style="opacity: 1; stroke-width: 1px; fill: rgb(0, 169, 141); fill-opacity: 0.1; stroke: rgb(0, 0, 0); stroke-opacity: 0.1;"/><path class="point" transform="translate(279.17,14.51)" d="M2,0A2,2 0 1,1 0,-2A2,2 0 0,1 2,0Z" style="opacity: 1; stroke-width: 1px; fill: rgb(0, 169, 141); fill-opacity: 0.1; stroke: rgb(0, 0, 0); stroke-opacity: 0.1;"/><path class="point" transform="translate(306.27,16.19)" d="M2,0A2,2 0 1,1 0,-2A2,2 0 0,1 2,0Z" style="opacity: 1; stroke-width: 1px; fill: rgb(0, 169, 141); fill-opacity: 0.1; stroke: rgb(0, 0, 0); stroke-opacity: 0.1;"/><path class="point" transform="translate(333.62,19.71)" d="M2,0A2,2 0 1,1 0,-2A2,2 0 0,1 2,0Z" style="opacity: 1; stroke-width: 1px; fill: rgb(0, 169, 141); fill-opacity: 0.1; stroke: rgb(0, 0, 0); stroke-opacity: 0.1;"/><path class="point" transform="translate(361.45,26.45)" d="M2,0A2,2 0 1,1 0,-2A2,2 0 0,1 2,0Z" style="opacity: 1; stroke-width: 1px; fill: rgb(0, 169, 141); fill-opacity: 0.1; stroke: rgb(0, 0, 0); stroke-opacity: 0.1;"/><path class="point" transform="translate(390.25,39.33)" d="M2,0A2,2 0 1,1 0,-2A2,2 0 0,1 2,0Z" style="opacity: 1; stroke-width: 1px; fill: rgb(0, 169, 141); fill-opacity: 0.1; stroke: rgb(0, 0, 0); stroke-opacity: 0.1;"/><path class="point" transform="translate(421.22,65.2)" d="M2,0A2,2 0 1,1 0,-2A2,2 0 0,1 2,0Z" style="opacity: 1; stroke-width: 1px; fill: rgb(0, 169, 141); fill-opacity: 0.1; stroke: rgb(0, 0, 0); stroke-opacity: 0.1;"/><path class="point" transform="translate(459.13,128.11)" d="M2,0A2,2 0 1,1 0,-2A2,2 0 0,1 2,0Z" style="opacity: 1; stroke-width: 1px; fill: rgb(0, 169, 141); fill-opacity: 0.1; stroke: rgb(0, 0, 0); stroke-opacity: 0.1;"/><path class="point" transform="translate(489.88,408.69)" d="M2,0A2,2 0 1,1 0,-2A2,2 0 0,1 2,0Z" style="opacity: 1; stroke-width: 1px; fill: rgb(0, 169, 141); fill-opacity: 0.1; stroke: rgb(0, 0, 0); stroke-opacity: 0.1;"/></g><g class="text"/></g><g class="trace scatter traceb7b73b" style="stroke-miterlimit: 2; opacity: 1;"><g class="fills"/><g class="errorbars"/><g class="lines"><path class="js-line" d="M18.17,408.69L50.04,173.6L81.91,76.07L113.78,41.37L145.65,25.94L177.52,18.66L209.39,14.98L241.26,13.14L273.13,12.26L336.87,11.94L368.75,12.34L400.62,13.29L432.49,15.23L464.36,19.08L496.23,26.76L528.1,42.63L559.97,73.34L591.84,126.24L623.71,408.69" style="vector-effect: non-scaling-stroke; fill: none; stroke: rgb(142, 151, 30); stroke-opacity: 1; stroke-width: 1px; opacity: 1;"/></g><g class="points"/><g class="text"/></g><g class="trace scatter traceb8ed58" style="stroke-miterlimit: 2; opacity: 1;"><g class="fills"/><g class="errorbars"/><g class="lines"><path class="js-line" d="M18.17,408.69L56.14,128.57L87.13,65.43L115.94,39.42L143.77,26.41L171.1,19.54L198.18,15.82L225.12,13.8L251.98,12.71L305.62,11.9L332.43,11.9L386.12,12.7L413.06,13.79L440.13,15.8L467.47,19.5L495.29,26.33L524.08,39.28L555.05,65.17L592.96,128.1L623.71,408.69" style="vector-effect: non-scaling-stroke; fill: none; stroke: rgb(142, 151, 30); stroke-opacity: 1; stroke-width: 1px; opacity: 1;"/></g><g class="points"/><g class="text"/></g><g class="trace scatter trace87091d" style="stroke-miterlimit: 2; opacity: 1;"><g class="fills"/><g class="errorbars"/><g class="lines"/><g class="points"><path class="point" transform="translate(18.17,408.69)" d="M2,0A2,2 0 1,1 0,-2A2,2 0 0,1 2,0Z" style="opacity: 1; stroke-width: 1px; fill: rgb(142, 151, 30); fill-opacity: 0.1; stroke: rgb(0, 0, 0); stroke-opacity: 0.1;"/><path class="point" transform="translate(56.14,128.57)" d="M2,0A2,2 0 1,1 0,-2A2,2 0 0,1 2,0Z" style="opacity: 1; stroke-width: 1px; fill: rgb(142, 151, 30); fill-opacity: 0.1; stroke: rgb(0, 0, 0); stroke-opacity: 0.1;"/><path class="point" transform="translate(87.13,65.43)" d="M2,0A2,2 0 1,1 0,-2A2,2 0 0,1 2,0Z" style="opacity: 1; stroke-width: 1px; fill: rgb(142, 151, 30); fill-opacity: 0.1; stroke: rgb(0, 0, 0); stroke-opacity: 0.1;"/><path class="point" transform="translate(115.94,39.42)" d="M2,0A2,2 0 1,1 0,-2A2,2 0 0,1 2,0Z" style="opacity: 1; stroke-width: 1px; fill: rgb(142, 151, 30); fill-opacity: 0.1; stroke: rgb(0, 0, 0); stroke-opacity: 0.1;"/><path class="point" transform="translate(143.77,26.41)" d="M2,0A2,2 0 1,1 0,-2A2,2 0 0,1 2,0Z" style="opacity: 1; stroke-width: 1px; fill: rgb(142, 151, 30); fill-opacity: 0.1; stroke: rgb(0, 0, 0); stroke-opacity: 0.1;"/><path class="point" transform="translate(171.1,19.54)" d="M2,0A2,2 0 1,1 0,-2A2,2 0 0,1 2,0Z" style="opacity: 1; stroke-width: 1px; fill: rgb(142, 151, 30); fill-opacity: 0.1; stroke: rgb(0, 0, 0); stroke-opacity: 0.1;"/><path class="point" transform="translate(198.18,15.82)" d="M2,0A2,2 0 1,1 0,-2A2,2 0 0,1 2,0Z" style="opacity: 1; stroke-width: 1px; fill: rgb(142, 151, 30); fill-opacity: 0.1; stroke: rgb(0, 0, 0); stroke-opacity: 0.1;"/><path class="point" transform="translate(225.12,13.8)" d="M2,0A2,2 0 1,1 0,-2A2,2 0 0,1 2,0Z" style="opacity: 1; stroke-width: 1px; fill: rgb(142, 151, 30); fill-opacity: 0.1; stroke: rgb(0, 0, 0); stroke-opacity: 0.1;"/><path class="point" transform="translate(251.98,12.71)" d="M2,0A2,2 0 1,1 0,-2A2,2 0 0,1 2,0Z" style="opacity: 1; stroke-width: 1px; fill: rgb(142, 151, 30); fill-opacity: 0.1; stroke: rgb(0, 0, 0); stroke-opacity: 0.1;"/><path class="point" transform="translate(278.81,12.14)" d="M2,0A2,2 0 1,1 0,-2A2,2 0 0,1 2,0Z" style="opacity: 1; stroke-width: 1px; fill: rgb(142, 151, 30); fill-opacity: 0.1; stroke: rgb(0, 0, 0); stroke-opacity: 0.1;"/><path class="point" transform="translate(305.62,11.9)" d="M2,0A2,2 0 1,1 0,-2A2,2 0 0,1 2,0Z" style="opacity: 1; stroke-width: 1px; fill: rgb(142, 151, 30); fill-opacity: 0.1; stroke: rgb(0, 0, 0); stroke-opacity: 0.1;"/><path class="point" transform="translate(332.43,11.9)" d="M2,0A2,2 0 1,1 0,-2A2,2 0 0,1 2,0Z" style="opacity: 1; stroke-width: 1px; fill: rgb(142, 151, 30); fill-opacity: 0.1; stroke: rgb(0, 0, 0); stroke-opacity: 0.1;"/><path class="point" transform="translate(359.25,12.14)" d="M2,0A2,2 0 1,1 0,-2A2,2 0 0,1 2,0Z" style="opacity: 1; stroke-width: 1px; fill: rgb(142, 151, 30); fill-opacity: 0.1; stroke: rgb(0, 0, 0); stroke-opacity: 0.1;"/><path class="point" transform="translate(386.12,12.7)" d="M2,0A2,2 0 1,1 0,-2A2,2 0 0,1 2,0Z" style="opacity: 1; stroke-width: 1px; fill: rgb(142, 151, 30); fill-opacity: 0.1; stroke: rgb(0, 0, 0); stroke-opacity: 0.1;"/><path class="point" transform="translate(413.06,13.79)" d="M2,0A2,2 0 1,1 0,-2A2,2 0 0,1 2,0Z" style="opacity: 1; stroke-width: 1px; fill: rgb(142, 151, 30); fill-opacity: 0.1; stroke: rgb(0, 0, 0); stroke-opacity: 0.1;"/><path class="point" transform="translate(440.13,15.8)" d="M2,0A2,2 0 1,1 0,-2A2,2 0 0,1 2,0Z" style="opacity: 1; stroke-width: 1px; fill: rgb(142, 151, 30); fill-opacity: 0.1; stroke: rgb(0, 0, 0); stroke-opacity: 0.1;"/><path class="point" transform="translate(467.47,19.5)" d="M2,0A2,2 0 1,1 0,-2A2,2 0 0,1 2,0Z" style="opacity: 1; stroke-width: 1px; fill: rgb(142, 151, 30); fill-opacity: 0.1; stroke: rgb(0, 0, 0); stroke-opacity: 0.1;"/><path class="point" transform="translate(495.29,26.33)" d="M2,0A2,2 0 1,1 0,-2A2,2 0 0,1 2,0Z" style="opacity: 1; stroke-width: 1px; fill: rgb(142, 151, 30); fill-opacity: 0.1; stroke: rgb(0, 0, 0); stroke-opacity: 0.1;"/><path class="point" transform="translate(524.08,39.28)" d="M2,0A2,2 0 1,1 0,-2A2,2 0 0,1 2,0Z" style="opacity: 1; stroke-width: 1px; fill: rgb(142, 151, 30); fill-opacity: 0.1; stroke: rgb(0, 0, 0); stroke-opacity: 0.1;"/><path class="point" transform="translate(555.05,65.17)" d="M2,0A2,2 0 1,1 0,-2A2,2 0 0,1 2,0Z" style="opacity: 1; stroke-width: 1px; fill: rgb(142, 151, 30); fill-opacity: 0.1; stroke: rgb(0, 0, 0); stroke-opacity: 0.1;"/><path class="point" transform="translate(592.96,128.1)" d="M2,0A2,2 0 1,1 0,-2A2,2 0 0,1 2,0Z" style="opacity: 1; stroke-width: 1px; fill: rgb(142, 151, 30); fill-opacity: 0.1; stroke: rgb(0, 0, 0); stroke-opacity: 0.1;"/><path class="point" transform="translate(623.71,408.69)" d="M2,0A2,2 0 1,1 0,-2A2,2 0 0,1 2,0Z" style="opacity: 1; stroke-width: 1px; fill: rgb(142, 151, 30); fill-opacity: 0.1; stroke: rgb(0, 0, 0); stroke-opacity: 0.1;"/></g><g class="text"/></g></g></g><g class="overplot"/><path class="xlines-above crisp" d="M52.52836103820355,445.6252187226596H695.4068241469816" style="fill: none; stroke-width: 1px; stroke: rgb(0, 0, 0); stroke-opacity: 1;"/><path class="ylines-above crisp" d="M53.02836103820355,24.527559055118104V445.1252187226596" style="fill: none; stroke-width: 1px; stroke: rgb(0, 0, 0); stroke-opacity: 1;"/><g class="overlines-above"/><g class="xaxislayer-above"><path class="xtick ticks crisp" d="M0,445.1252187226596v-5" transform="translate(71.69836103820356,0)" style="stroke: rgb(0, 0, 0); stroke-opacity: 1; stroke-width: 1px;"/><path class="xtick ticks crisp" d="M0,445.1252187226596v-5" transform="translate(225.43836103820354,0)" style="stroke: rgb(0, 0, 0); stroke-opacity: 1; stroke-width: 1px;"/><path class="xtick ticks crisp" d="M0,445.1252187226596v-5" transform="translate(379.1883610382036,0)" style="stroke: rgb(0, 0, 0); stroke-opacity: 1; stroke-width: 1px;"/><path class="xtick ticks crisp" d="M0,445.1252187226596v-5" transform="translate(532.9383610382035,0)" style="stroke: rgb(0, 0, 0); stroke-opacity: 1; stroke-width: 1px;"/><path class="xtick ticks crisp" d="M0,445.1252187226596v-5" transform="translate(686.6883610382035,0)" style="stroke: rgb(0, 0, 0); stroke-opacity: 1; stroke-width: 1px;"/><g class="xtick"><text text-anchor="middle" x="0" y="459.3252187226596" transform="translate(71.69836103820356,0)" style="font-family: Helvetica; font-size: 11px; fill: rgb(0, 0, 0); fill-opacity: 1; white-space: pre;">0</text></g><g class="xtick"><text text-anchor="middle" x="0" y="459.3252187226596" transform="translate(225.43836103820354,0)" style="font-family: Helvetica; font-size: 11px; fill: rgb(0, 0, 0); fill-opacity: 1; white-space: pre;">10</text></g><g class="xtick"><text text-anchor="middle" x="0" y="459.3252187226596" transform="translate(379.1883610382036,0)" style="font-family: Helvetica; font-size: 11px; fill: rgb(0, 0, 0); fill-opacity: 1; white-space: pre;">20</text></g><g class="xtick"><text text-anchor="middle" x="0" y="459.3252187226596" transform="translate(532.9383610382035,0)" style="font-family: Helvetica; font-size: 11px; fill: rgb(0, 0, 0); fill-opacity: 1; white-space: pre;">30</text></g><g class="xtick"><text text-anchor="middle" x="0" y="459.3252187226596" transform="translate(686.6883610382035,0)" style="font-family: Helvetica; font-size: 11px; fill: rgb(0, 0, 0); fill-opacity: 1; white-space: pre;">40</text></g></g><g class="yaxislayer-above"><path class="ytick ticks crisp" d="M53.52836103820355,0h5" transform="translate(0,433.2175590551181)" style="stroke: rgb(0, 0, 0); stroke-opacity: 1; stroke-width: 1px;"/><path class="ytick ticks crisp" d="M53.52836103820355,0h5" transform="translate(0,332.3275590551181)" style="stroke: rgb(0, 0, 0); stroke-opacity: 1; stroke-width: 1px;"/><path class="ytick ticks crisp" d="M53.52836103820355,0h5" transform="translate(0,231.4375590551181)" style="stroke: rgb(0, 0, 0); stroke-opacity: 1; stroke-width: 1px;"/><path class="ytick ticks crisp" d="M53.52836103820355,0h5" transform="translate(0,130.54755905511809)" style="stroke: rgb(0, 0, 0); stroke-opacity: 1; stroke-width: 1px;"/><path class="ytick ticks crisp" d="M53.52836103820355,0h5" transform="translate(0,29.657559055118103)" style="stroke: rgb(0, 0, 0); stroke-opacity: 1; stroke-width: 1px;"/><g class="ytick"><text text-anchor="end" x="50.328361038203546" y="3.8499999999999996" transform="translate(0,433.2175590551181)" style="font-family: Helvetica; font-size: 11px; fill: rgb(0, 0, 0); fill-opacity: 1; white-space: pre;">0.0</text></g><g class="ytick"><text text-anchor="end" x="50.328361038203546" y="3.8499999999999996" transform="translate(0,332.3275590551181)" style="font-family: Helvetica; font-size: 11px; fill: rgb(0, 0, 0); fill-opacity: 1; white-space: pre;">0.1</text></g><g class="ytick"><text text-anchor="end" x="50.328361038203546" y="3.8499999999999996" transform="translate(0,231.4375590551181)" style="font-family: Helvetica; font-size: 11px; fill: rgb(0, 0, 0); fill-opacity: 1; white-space: pre;">0.2</text></g><g class="ytick"><text text-anchor="end" x="50.328361038203546" y="3.8499999999999996" transform="translate(0,130.54755905511809)" style="font-family: Helvetica; font-size: 11px; fill: rgb(0, 0, 0); fill-opacity: 1; white-space: pre;">0.3</text></g><g class="ytick"><text text-anchor="end" x="50.328361038203546" y="3.8499999999999996" transform="translate(0,29.657559055118103)" style="font-family: Helvetica; font-size: 11px; fill: rgb(0, 0, 0); fill-opacity: 1; white-space: pre;">0.4</text></g></g><g class="overaxes-above"/></g></g><g class="polarlayer"/><g class="ternarylayer"/><g class="geolayer"/><g class="funnelarealayer"/><g class="pielayer"/><g class="treemaplayer"/><g class="sunburstlayer"/><g class="glimages"/><defs id="topdefs-cd115e"><g class="clips"/></defs><g class="layer-above"><g class="imagelayer"/><g class="shapelayer"/></g><g class="infolayer"><g class="g-gtitle"/><g class="g-xtitle" transform="translate(0,-3.6252187226596106)"><text class="xtitle" x="374.4675925925926" y="500.1252187226596" text-anchor="middle" style="font-family: Helvetica; font-size: 15px; fill: rgb(0, 0, 0); opacity: 1; font-weight: normal; white-space: pre;">time</text></g><g class="g-ytitle" transform="translate(0.4853515625,0)"><text class="ytitle" transform="rotate(-90,13.528361038203549,234.82638888888886)" x="13.528361038203549" y="234.82638888888886" text-anchor="middle" style="font-family: Helvetica; font-size: 15px; fill: rgb(0, 0, 0); opacity: 1; font-weight: normal; white-space: pre;">speed</text></g></g></svg>