<svg class="main-svg" xmlns="http://www.w3.org/2000/svg" xmlns:xlink="http://www.w3.org/1999/xlink" width="700" height="500" style="" viewBox="0 0 700 500"><rect x="0" y="0" width="700" height="500" style="fill: rgb(255, 255, 255); fill-opacity: 1;"/><defs id="defs-5eeffb"><g class="clips"><clipPath id="clip5eeffbxyplot" class="plotclip"><rect width="534.1784412365121" height="125.64395596383781"/></clipPath><clipPath id="clip5eeffbx2y2plot" class="plotclip"><rect width="534.1784412365121" height="125.64395596383781"/></clipPath><clipPath id="clip5eeffbx3y3plot" class="plotclip"><rect width="534.1784412365121" height="125.64395596383781"/></clipPath><clipPath class="axesclip" id="clip5eeffbx"><rect x="63.87142752989209" y="0" width="534.1784412365121" height="500"/></clipPath><clipPath class="axesclip" id="clip5eeffby"><rect x="0" y="24.527559055118104" width="700" height="125.64395596383781"/></clipPath><clipPath class="axesclip" id="clip5eeffbxy"><rect x="63.87142752989209" y="24.527559055118104" width="534.1784412365121" height="125.64395596383781"/></clipPath><clipPath class="axesclip" id="clip5eeffby2"><rect x="0" y="172.00441090696995" width="700" height="125.64395596383781"/></clipPath><clipPath class="axesclip" id="clip5eeffbxy2"><rect x="63.87142752989209" y="172.00441090696995" width="534.1784412365121" height="125.64395596383781"/></clipPath><clipPath class="axesclip" id="clip5eeffby3"><rect x="0" y="319.4812627588218" width="700" height="125.64395596383781"/></clipPath><clipPath class="axesclip" id="clip5eeffbxy3"><rect x="63.87142752989209" y="319.4812627588218" width="534.1784412365121" height="125.64395596383781"/></clipPath><clipPath class="axesclip" id="clip5eeffbx2"><rect x="63.87142752989209" y="0" width="534.1784412365121" height="500"/></clipPath><clipPath class="axesclip" id="clip5eeffbx2y"><rect x="63.87142752989209" y="24.527559055118104" width="534.1784412365121" height="125.64395596383781"/></clipPath><clipPath class="axesclip" id="clip5eeffbx2y2"><rect x="63.87142752989209" y="172.00441090696995" width="534.1784412365121" height="125.64395596383781"/></clipPath><clipPath class="axesclip" id="clip5eeffbx2y3"><rect x="63.87142752989209" y="319.4812627588218" width="534.1784412365121" height="125.64395596383781"/></clipPath><clipPath class="axesclip" id="clip5eeffbx3"><rect x="63.87142752989209" y="0" width="534.1784412365121" height="500"/></clipPath><clipPath class="axesclip" id="clip5eeffbx3y"><rect x="63.87142752989209" y="24.527559055118104" width="534.1784412365121" height="125.64395596383781"/></clipPath><clipPath class="axesclip" id="clip5eeffbx3y2"><rect x="63.87142752989209" y="172.00441090696995" width="534.1784412365121" height="125.64395596383781"/></clipPath><clipPath class="axesclip" id="clip5eeffbx3y3"><rect x="63.87142752989209" y="319.4812627588218" width="534.1784412365121" height="125.64395596383781"/></clipPath></g><g class="gradients"/></defs><g class="bglayer"/><g class="layer-below"><g class="imagelayer"/><g class="shapelayer"/></g><g class="cartesianlayer"><g class="subplot xy"><g class="layer-subplot"><g class="shapelayer"/><g class="imagelayer"/></g><g class="gridlayer"><g class="x"/><g class="y"/></g><g class="zerolinelayer"/><path class="xlines-below"/><path class="ylines-below"/><g class="overlines-below"/><g class="xaxislayer-below"/><g class="yaxislayer-below"/><g class="overaxes-below"/><g class="plot" transform="translate(63.87142752989209,24.527559055118104)" clip-path="url('#clip5eeffbxyplot')"><g class="scatterlayer mlayer"><g class="trace scatter tracea216c3" style="stroke-miterlimit: 2; opacity: 1;"><g class="fills"/><g class="errorbars"/><g class="lines"><path class="js-line" d="M15.12,125.64L15.12,0L115.91,0L519.06,0.45L519.06,125.64" style="vector-effect: non-scaling-stroke; fill: none; stroke: rgb(0, 154, 250); stroke-opacity: 1; stroke-width: 1px; opacity: 1;"/></g><g class="points"><path class="point" transform="translate(15.12,125.64)" d="M4,0A4,4 0 1,1 0,-4A4,4 0 0,1 4,0Z" style="opacity: 1; stroke-width: 1px; fill: rgb(0, 154, 250); fill-opacity: 1; stroke: rgb(0, 0, 0); stroke-opacity: 1;"/><path class="point" transform="translate(15.12,0)" d="M4,0A4,4 0 1,1 0,-4A4,4 0 0,1 4,0Z" style="opacity: 1; stroke-width: 1px; fill: rgb(0, 154, 250); fill-opacity: 1; stroke: rgb(0, 0, 0); stroke-opacity: 1;"/><path class="point" transform="translate(115.91,0)" d="M4,0A4,4 0 1,1 0,-4A4,4 0 0,1 4,0Z" style="opacity: 1; stroke-width: 1px; fill: rgb(0, 154, 250); fill-opacity: 1; stroke: rgb(0, 0, 0); stroke-opacity: 1;"/><path class="point" transform="translate(216.7,0)" d="M4,0A4,4 0 1,1 0,-4A4,4 0 0,1 4,0Z" style="opacity: 1; stroke-width: 1px; fill: rgb(0, 154, 250); fill-opacity: 1; stroke: rgb(0, 0, 0); stroke-opacity: 1;"/><path class="point" transform="translate(317.48,0)" d="M4,0A4,4 0 1,1 0,-4A4,4 0 0,1 4,0Z" style="opacity: 1; stroke-width: 1px; fill: rgb(0, 154, 250); fill-opacity: 1; stroke: rgb(0, 0, 0); stroke-opacity: 1;"/><path class="point" transform="translate(418.27,0)" d="M4,0A4,4 0 1,1 0,-4A4,4 0 0,1 4,0Z" style="opacity: 1; stroke-width: 1px; fill: rgb(0, 154, 250); fill-opacity: 1; stroke: rgb(0, 0, 0); stroke-opacity: 1;"/><path class="point" transform="translate(519.06,0.45)" d="M4,0A4,4 0 1,1 0,-4A4,4 0 0,1 4,0Z" style="opacity: 1; stroke-width: 1px; fill: rgb(0, 154, 250); fill-opacity: 1; stroke: rgb(0, 0, 0); stroke-opacity: 1;"/><path class="point" transform="translate(519.06,125.64)" d="M4,0A4,4 0 1,1 0,-4A4,4 0 0,1 4,0Z" style="opacity: 1; stroke-width: 1px; fill: rgb(0, 154, 250); fill-opacity: 1; stroke: rgb(0, 0, 0); stroke-opacity: 1;"/></g><g class="text"/></g></g></g><g class="overplot"/><path class="xlines-above crisp" d="M62.87142752989209,150.67151501895592H598.0498687664042" style="fill: none; stroke-width: 1px; stroke: rgb(0, 0, 0); stroke-opacity: 1;"/><path class="ylines-above crisp" d="M63.37142752989209,24.527559055118104V150.17151501895592" style="fill: none; stroke-width: 1px; stroke: rgb(0, 0, 0); stroke-opacity: 1;"/><g class="overlines-above"/><g class="xaxislayer-above"><path class="xtick ticks crisp" d="M0,150.17151501895592v-5" transform="translate(78.99142752989209,0)" style="stroke: rgb(0, 0, 0); stroke-opacity: 1; stroke-width: 1px;"/><path class="xtick ticks crisp" d="M0,150.17151501895592v-5" transform="translate(179.78142752989208,0)" style="stroke: rgb(0, 0, 0); stroke-opacity: 1; stroke-width: 1px;"/><path class="xtick ticks crisp" d="M0,150.17151501895592v-5" transform="translate(280.57142752989205,0)" style="stroke: rgb(0, 0, 0); stroke-opacity: 1; stroke-width: 1px;"/><path class="xtick ticks crisp" d="M0,150.17151501895592v-5" transform="translate(381.35142752989213,0)" style="stroke: rgb(0, 0, 0); stroke-opacity: 1; stroke-width: 1px;"/><path class="xtick ticks crisp" d="M0,150.17151501895592v-5" transform="translate(482.1414275298921,0)" style="stroke: rgb(0, 0, 0); stroke-opacity: 1; stroke-width: 1px;"/><path class="xtick ticks crisp" d="M0,150.17151501895592v-5" transform="translate(582.9314275298921,0)" style="stroke: rgb(0, 0, 0); stroke-opacity: 1; stroke-width: 1px;"/><g class="xtick"><text text-anchor="middle" x="0" y="164.3715150189559" transform="translate(78.99142752989209,0)" style="font-family: Helvetica; font-size: 11px; fill: rgb(0, 0, 0); fill-opacity: 1; white-space: pre;">0</text></g><g class="xtick"><text text-anchor="middle" x="0" y="164.3715150189559" transform="translate(179.78142752989208,0)" style="font-family: Helvetica; font-size: 11px; fill: rgb(0, 0, 0); fill-opacity: 1; white-space: pre;">1</text></g><g class="xtick"><text text-anchor="middle" x="0" y="164.3715150189559" transform="translate(280.57142752989205,0)" style="font-family: Helvetica; font-size: 11px; fill: rgb(0, 0, 0); fill-opacity: 1; white-space: pre;">2</text></g><g class="xtick"><text text-anchor="middle" x="0" y="164.3715150189559" transform="translate(381.35142752989213,0)" style="font-family: Helvetica; font-size: 11px; fill: rgb(0, 0, 0); fill-opacity: 1; white-space: pre;">3</text></g><g class="xtick"><text text-anchor="middle" x="0" y="164.3715150189559" transform="translate(482.1414275298921,0)" style="font-family: Helvetica; font-size: 11px; fill: rgb(0, 0, 0); fill-opacity: 1; white-space: pre;">4</text></g><g class="xtick"><text text-anchor="middle" x="0" y="164.3715150189559" transform="translate(582.9314275298921,0)" style="font-family: Helvetica; font-size: 11px; fill: rgb(0, 0, 0); fill-opacity: 1; white-space: pre;">5</text></g></g><g class="yaxislayer-above"><path class="ytick ticks crisp" d="M63.87142752989209,0h5" transform="translate(0,122.2475590551181)" style="stroke: rgb(0, 0, 0); stroke-opacity: 1; stroke-width: 1px;"/><path class="ytick ticks crisp" d="M63.87142752989209,0h5" transform="translate(0,94.3275590551181)" style="stroke: rgb(0, 0, 0); stroke-opacity: 1; stroke-width: 1px;"/><path class="ytick ticks crisp" d="M63.87142752989209,0h5" transform="translate(0,66.4075590551181)" style="stroke: rgb(0, 0, 0); stroke-opacity: 1; stroke-width: 1px;"/><path class="ytick ticks crisp" d="M63.87142752989209,0h5" transform="translate(0,38.487559055118105)" style="stroke: rgb(0, 0, 0); stroke-opacity: 1; stroke-width: 1px;"/><g class="ytick"><text text-anchor="end" x="60.671427529892085" y="3.8499999999999996" transform="translate(0,150.1675590551181)" style="font-family: Helvetica; font-size: 11px; fill: rgb(0, 0, 0); fill-opacity: 1; white-space: pre;">0.0</text></g><g class="ytick"><text text-anchor="end" x="60.671427529892085" y="3.8499999999999996" transform="translate(0,122.2475590551181)" style="font-family: Helvetica; font-size: 11px; fill: rgb(0, 0, 0); fill-opacity: 1; white-space: pre;">0.1</text></g><g class="ytick"><text text-anchor="end" x="60.671427529892085" y="3.8499999999999996" transform="translate(0,94.3275590551181)" style="font-family: Helvetica; font-size: 11px; fill: rgb(0, 0, 0); fill-opacity: 1; white-space: pre;">0.2</text></g><g class="ytick"><text text-anchor="end" x="60.671427529892085" y="3.8499999999999996" transform="translate(0,66.4075590551181)" style="font-family: Helvetica; font-size: 11px; fill: rgb(0, 0, 0); fill-opacity: 1; white-space: pre;">0.3</text></g><g class="ytick"><text text-anchor="end" x="60.671427529892085" y="3.8499999999999996" transform="translate(0,38.487559055118105)" style="font-family: Helvetica; font-size: 11px; fill: rgb(0, 0, 0); fill-opacity: 1; white-space: pre;">0.4</text></g></g><g class="overaxes-above"/></g><g class="subplot x2y2"><g class="layer-subplot"><g class="shapelayer"/><g class="imagelayer"/></g><g class="gridlayer"><g class="x2"/><g class="y2"/></g><g class="zerolinelayer"/><path class="xlines-below"/><path class="ylines-below"/><g class="overlines-below"/><g class="xaxislayer-below"/><g class="yaxislayer-below"/><g class="overaxes-below"/><g class="plot" transform="translate(63.87142752989209,172.00441090696995)" clip-path="url('#clip5eeffbx2y2plot')"><g class="scatterlayer mlayer"><g class="trace scatter trace908cf0" style="stroke-miterlimit: 2; opacity: 1;"><g class="fills"/><g class="errorbars"/><g class="lines"><path class="js-line" d="M15.12,0L65.51,98.88L166.3,98.88L468.67,99.39" style="vector-effect: non-scaling-stroke; fill: none; stroke: rgb(0, 154, 250); stroke-opacity: 1; stroke-width: 1px; opacity: 1;"/></g><g class="points"><path class="point" transform="translate(15.12,0)" d="M4,0A4,4 0 1,1 0,-4A4,4 0 0,1 4,0Z" style="opacity: 1; stroke-width: 1px; fill: rgb(0, 154, 250); fill-opacity: 1; stroke: rgb(0, 0, 0); stroke-opacity: 1;"/><path class="point" transform="translate(65.51,98.88)" d="M4,0A4,4 0 1,1 0,-4A4,4 0 0,1 4,0Z" style="opacity: 1; stroke-width: 1px; fill: rgb(0, 154, 250); fill-opacity: 1; stroke: rgb(0, 0, 0); stroke-opacity: 1;"/><path class="point" transform="translate(166.3,98.88)" d="M4,0A4,4 0 1,1 0,-4A4,4 0 0,1 4,0Z" style="opacity: 1; stroke-width: 1px; fill: rgb(0, 154, 250); fill-opacity: 1; stroke: rgb(0, 0, 0); stroke-opacity: 1;"/><path class="point" transform="translate(267.09,98.88)" d="M4,0A4,4 0 1,1 0,-4A4,4 0 0,1 4,0Z" style="opacity: 1; stroke-width: 1px; fill: rgb(0, 154, 250); fill-opacity: 1; stroke: rgb(0, 0, 0); stroke-opacity: 1;"/><path class="point" transform="translate(367.88,98.88)" d="M4,0A4,4 0 1,1 0,-4A4,4 0 0,1 4,0Z" style="opacity: 1; stroke-width: 1px; fill: rgb(0, 154, 250); fill-opacity: 1; stroke: rgb(0, 0, 0); stroke-opacity: 1;"/><path class="point" transform="translate(468.67,99.39)" d="M4,0A4,4 0 1,1 0,-4A4,4 0 0,1 4,0Z" style="opacity: 1; stroke-width: 1px; fill: rgb(0, 154, 250); fill-opacity: 1; stroke: rgb(0, 0, 0); stroke-opacity: 1;"/></g><g class="text"/></g></g></g><g class="overplot"/><path class="xlines-above crisp" d="M62.87142752989209,298.14836687080776H598.0498687664042" style="fill: none; stroke-width: 1px; stroke: rgb(0, 0, 0); stroke-opacity: 1;"/><path class="ylines-above crisp" d="M63.37142752989209,172.00441090696995V297.64836687080776" style="fill: none; stroke-width: 1px; stroke: rgb(0, 0, 0); stroke-opacity: 1;"/><g class="overlines-above"/><g class="xaxislayer-above"><path class="x2tick ticks crisp" d="M0,297.64836687080776v-5" transform="translate(129.3814275298921,0)" style="stroke: rgb(0, 0, 0); stroke-opacity: 1; stroke-width: 1px;"/><path class="x2tick ticks crisp" d="M0,297.64836687080776v-5" transform="translate(230.1714275298921,0)" style="stroke: rgb(0, 0, 0); stroke-opacity: 1; stroke-width: 1px;"/><path class="x2tick ticks crisp" d="M0,297.64836687080776v-5" transform="translate(330.96142752989203,0)" style="stroke: rgb(0, 0, 0); stroke-opacity: 1; stroke-width: 1px;"/><path class="x2tick ticks crisp" d="M0,297.64836687080776v-5" transform="translate(431.7514275298921,0)" style="stroke: rgb(0, 0, 0); stroke-opacity: 1; stroke-width: 1px;"/><path class="x2tick ticks crisp" d="M0,297.64836687080776v-5" transform="translate(532.5414275298921,0)" style="stroke: rgb(0, 0, 0); stroke-opacity: 1; stroke-width: 1px;"/><g class="x2tick"><text text-anchor="middle" x="0" y="311.84836687080775" transform="translate(129.3814275298921,0)" style="font-family: Helvetica; font-size: 11px; fill: rgb(0, 0, 0); fill-opacity: 1; white-space: pre;">1</text></g><g class="x2tick"><text text-anchor="middle" x="0" y="311.84836687080775" transform="translate(230.1714275298921,0)" style="font-family: Helvetica; font-size: 11px; fill: rgb(0, 0, 0); fill-opacity: 1; white-space: pre;">2</text></g><g class="x2tick"><text text-anchor="middle" x="0" y="311.84836687080775" transform="translate(330.96142752989203,0)" style="font-family: Helvetica; font-size: 11px; fill: rgb(0, 0, 0); fill-opacity: 1; white-space: pre;">3</text></g><g class="x2tick"><text text-anchor="middle" x="0" y="311.84836687080775" transform="translate(431.7514275298921,0)" style="font-family: Helvetica; font-size: 11px; fill: rgb(0, 0, 0); fill-opacity: 1; white-space: pre;">4</text></g><g class="x2tick"><text text-anchor="middle" x="0" y="311.84836687080775" transform="translate(532.5414275298921,0)" style="font-family: Helvetica; font-size: 11px; fill: rgb(0, 0, 0); fill-opacity: 1; white-space: pre;">5</text></g></g><g class="yaxislayer-above"><path class="y2tick ticks crisp" d="M63.87142752989209,0h5" transform="translate(0,266.62441090696996)" style="stroke: rgb(0, 0, 0); stroke-opacity: 1; stroke-width: 1px;"/><path class="y2tick ticks crisp" d="M63.87142752989209,0h5" transform="translate(0,235.60441090696995)" style="stroke: rgb(0, 0, 0); stroke-opacity: 1; stroke-width: 1px;"/><path class="y2tick ticks crisp" d="M63.87142752989209,0h5" transform="translate(0,204.57441090696994)" style="stroke: rgb(0, 0, 0); stroke-opacity: 1; stroke-width: 1px;"/><path class="y2tick ticks crisp" d="M63.87142752989209,0h5" transform="translate(0,173.55441090696996)" style="stroke: rgb(0, 0, 0); stroke-opacity: 1; stroke-width: 1px;"/><g class="y2tick"><text text-anchor="end" x="60.671427529892085" y="3.8499999999999996" transform="translate(0,297.64441090696994)" style="font-family: Helvetica; font-size: 11px; fill: rgb(0, 0, 0); fill-opacity: 1; white-space: pre;">0.000</text></g><g class="y2tick"><text text-anchor="end" x="60.671427529892085" y="3.8499999999999996" transform="translate(0,266.62441090696996)" style="font-family: Helvetica; font-size: 11px; fill: rgb(0, 0, 0); fill-opacity: 1; white-space: pre;">0.025</text></g><g class="y2tick"><text text-anchor="end" x="60.671427529892085" y="3.8499999999999996" transform="translate(0,235.60441090696995)" style="font-family: Helvetica; font-size: 11px; fill: rgb(0, 0, 0); fill-opacity: 1; white-space: pre;">0.050</text></g><g class="y2tick"><text text-anchor="end" x="60.671427529892085" y="3.8499999999999996" transform="translate(0,204.57441090696994)" style="font-family: Helvetica; font-size: 11px; fill: rgb(0, 0, 0); fill-opacity: 1; white-space: pre;">0.075</text></g><g class="y2tick"><text text-anchor="end" x="60.671427529892085" y="3.8499999999999996" transform="translate(0,173.55441090696996)" style="font-family: Helvetica; font-size: 11px; fill: rgb(0, 0, 0); fill-opacity: 1; white-space: pre;">0.100</text></g></g><g class="overaxes-above"/></g><g class="subplot x3y3"><g class="layer-subplot"><g class="shapelayer"/><g class="imagelayer"/></g><g class="gridlayer"><g class="x3"/><g class="y3"/></g><g class="zerolinelayer"/><path class="xlines-below"/><path class="ylines-below"/><g class="overlines-below"/><g class="xaxislayer-below"/><g class="yaxislayer-below"/><g class="overaxes-below"/><g class="plot" transform="translate(63.87142752989209,319.4812627588218)" clip-path="url('#clip5eeffbx3y3plot')"><g class="scatterlayer mlayer"><g class="trace scatter traced834ef" style="stroke-miterlimit: 2; opacity: 1;"><g class="fills"/><g class="errorbars"/><g class="lines"><path class="js-line" d="M15.12,122.09L519.06,122.09" style="vector-effect: non-scaling-stroke; fill: none; stroke: rgb(0, 154, 250); stroke-opacity: 1; stroke-width: 1px; opacity: 1;"/></g><g class="points"><path class="point" transform="translate(15.12,122.09)" d="M4,0A4,4 0 1,1 0,-4A4,4 0 0,1 4,0Z" style="opacity: 1; stroke-width: 1px; fill: rgb(0, 154, 250); fill-opacity: 1; stroke: rgb(0, 0, 0); stroke-opacity: 1;"/><path class="point" transform="translate(115.91,122.09)" d="M4,0A4,4 0 1,1 0,-4A4,4 0 0,1 4,0Z" style="opacity: 1; stroke-width: 1px; fill: rgb(0, 154, 250); fill-opacity: 1; stroke: rgb(0, 0, 0); stroke-opacity: 1;"/><path class="point" transform="translate(216.7,122.09)" d="M4,0A4,4 0 1,1 0,-4A4,4 0 0,1 4,0Z" style="opacity: 1; stroke-width: 1px; fill: rgb(0, 154, 250); fill-opacity: 1; stroke: rgb(0, 0, 0); stroke-opacity: 1;"/><path class="point" transform="translate(317.48,122.09)" d="M4,0A4,4 0 1,1 0,-4A4,4 0 0,1 4,0Z" style="opacity: 1; stroke-width: 1px; fill: rgb(0, 154, 250); fill-opacity: 1; stroke: rgb(0, 0, 0); stroke-opacity: 1;"/><path class="point" transform="translate(418.27,122.09)" d="M4,0A4,4 0 1,1 0,-4A4,4 0 0,1 4,0Z" style="opacity: 1; stroke-width: 1px; fill: rgb(0, 154, 250); fill-opacity: 1; stroke: rgb(0, 0, 0); stroke-opacity: 1;"/><path class="point" transform="translate(519.06,122.09)" d="M4,0A4,4 0 1,1 0,-4A4,4 0 0,1 4,0Z" style="opacity: 1; stroke-width: 1px; fill: rgb(0, 154, 250); fill-opacity: 1; stroke: rgb(0, 0, 0); stroke-opacity: 1;"/></g><g class="text"/></g></g></g><g class="overplot"/><path class="xlines-above crisp" d="M62.87142752989209,445.6252187226596H598.0498687664042" style="fill: none; stroke-width: 1px; stroke: rgb(0, 0, 0); stroke-opacity: 1;"/><path class="ylines-above crisp" d="M63.37142752989209,319.4812627588218V445.1252187226596" style="fill: none; stroke-width: 1px; stroke: rgb(0, 0, 0); stroke-opacity: 1;"/><g class="overlines-above"/><g class="xaxislayer-above"><path class="x3tick ticks crisp" d="M0,445.1252187226596v-5" transform="translate(78.99142752989209,0)" style="stroke: rgb(0, 0, 0); stroke-opacity: 1; stroke-width: 1px;"/><path class="x3tick ticks crisp" d="M0,445.1252187226596v-5" transform="translate(179.78142752989208,0)" style="stroke: rgb(0, 0, 0); stroke-opacity: 1; stroke-width: 1px;"/><path class="x3tick ticks crisp" d="M0,445.1252187226596v-5" transform="translate(280.57142752989205,0)" style="stroke: rgb(0, 0, 0); stroke-opacity: 1; stroke-width: 1px;"/><path class="x3tick ticks crisp" d="M0,445.1252187226596v-5" transform="translate(381.35142752989213,0)" style="stroke: rgb(0, 0, 0); stroke-opacity: 1; stroke-width: 1px;"/><path class="x3tick ticks crisp" d="M0,445.1252187226596v-5" transform="translate(482.1414275298921,0)" style="stroke: rgb(0, 0, 0); stroke-opacity: 1; stroke-width: 1px;"/><path class="x3tick ticks crisp" d="M0,445.1252187226596v-5" transform="translate(582.9314275298921,0)" style="stroke: rgb(0, 0, 0); stroke-opacity: 1; stroke-width: 1px;"/><g class="x3tick"><text text-anchor="middle" x="0" y="459.3252187226596" transform="translate(78.99142752989209,0)" style="font-family: Helvetica; font-size: 11px; fill: rgb(0, 0, 0); fill-opacity: 1; white-space: pre;">0</text></g><g class="x3tick"><text text-anchor="middle" x="0" y="459.3252187226596" transform="translate(179.78142752989208,0)" style="font-family: Helvetica; font-size: 11px; fill: rgb(0, 0, 0); fill-opacity: 1; white-space: pre;">1</text></g><g class="x3tick"><text text-anchor="middle" x="0" y="459.3252187226596" transform="translate(280.57142752989205,0)" style="font-family: Helvetica; font-size: 11px; fill: rgb(0, 0, 0); fill-opacity: 1; white-space: pre;">2</text></g><g class="x3tick"><text text-anchor="middle" x="0" y="459.3252187226596" transform="translate(381.35142752989213,0)" style="font-family: Helvetica; font-size: 11px; fill: rgb(0, 0, 0); fill-opacity: 1; white-space: pre;">3</text></g><g class="x3tick"><text text-anchor="middle" x="0" y="459.3252187226596" transform="translate(482.1414275298921,0)" style="font-family: Helvetica; font-size: 11px; fill: rgb(0, 0, 0); fill-opacity: 1; white-space: pre;">4</text></g><g class="x3tick"><text text-anchor="middle" x="0" y="459.3252187226596" transform="translate(582.9314275298921,0)" style="font-family: Helvetica; font-size: 11px; fill: rgb(0, 0, 0); fill-opacity: 1; white-space: pre;">5</text></g></g><g class="yaxislayer-above"><path class="y3tick ticks crisp" d="M63.87142752989209,0h5" transform="translate(0,441.57126275882183)" style="stroke: rgb(0, 0, 0); stroke-opacity: 1; stroke-width: 1px;"/><path class="y3tick ticks crisp" d="M63.87142752989209,0h5" transform="translate(0,411.9312627588218)" style="stroke: rgb(0, 0, 0); stroke-opacity: 1; stroke-width: 1px;"/><path class="y3tick ticks crisp" d="M63.87142752989209,0h5" transform="translate(0,382.3012627588218)" style="stroke: rgb(0, 0, 0); stroke-opacity: 1; stroke-width: 1px;"/><path class="y3tick ticks crisp" d="M63.87142752989209,0h5" transform="translate(0,352.6712627588218)" style="stroke: rgb(0, 0, 0); stroke-opacity: 1; stroke-width: 1px;"/><path class="y3tick ticks crisp" d="M63.87142752989209,0h5" transform="translate(0,323.0412627588218)" style="stroke: rgb(0, 0, 0); stroke-opacity: 1; stroke-width: 1px;"/><g class="y3tick"><text text-anchor="end" x="60.671427529892085" y="3.8499999999999996" transform="translate(0,441.57126275882183)" style="font-family: Helvetica; font-size: 11px; fill: rgb(0, 0, 0); fill-opacity: 1; white-space: pre;">0.00</text></g><g class="y3tick"><text text-anchor="end" x="60.671427529892085" y="3.8499999999999996" transform="translate(0,411.9312627588218)" style="font-family: Helvetica; font-size: 11px; fill: rgb(0, 0, 0); fill-opacity: 1; white-space: pre;">0.25</text></g><g class="y3tick"><text text-anchor="end" x="60.671427529892085" y="3.8499999999999996" transform="translate(0,382.3012627588218)" style="font-family: Helvetica; font-size: 11px; fill: rgb(0, 0, 0); fill-opacity: 1; white-space: pre;">0.50</text></g><g class="y3tick"><text text-anchor="end" x="60.671427529892085" y="3.8499999999999996" transform="translate(0,352.6712627588218)" style="font-family: Helvetica; font-size: 11px; fill: rgb(0, 0, 0); fill-opacity: 1; white-space: pre;">0.75</text></g><g class="y3tick"><text text-anchor="end" x="60.671427529892085" y="3.8499999999999996" transform="translate(0,323.0412627588218)" style="font-family: Helvetica; font-size: 11px; fill: rgb(0, 0, 0); fill-opacity: 1; white-space: pre;">1.00</text></g></g><g class="overaxes-above"/></g></g><g class="polarlayer"/><g class="ternarylayer"/><g class="geolayer"/><g class="funnelarealayer"/><g class="pielayer"/><g class="treemaplayer"/><g class="sunburstlayer"/><g class="glimages"/><defs id="topdefs-5eeffb"><g class="clips"/><clipPath id="legend5eeffb"><rect width="86" height="67" x="0" y="0"/></clipPath></defs><g class="layer-above"><g class="imagelayer"/><g class="shapelayer"/></g><g class="infolayer"><g class="legend" pointer-events="all" transform="translate(614,20)"><rect class="bg" shape-rendering="crispEdges" style="stroke: rgb(68, 68, 68); stroke-opacity: 1; fill: rgb(255, 255, 255); fill-opacity: 1; stroke-width: 0px;" width="86" height="67" x="0" y="0"/><g class="scrollbox" transform="" clip-path="url('#legend5eeffb')"><g class="groups" transform=""><g class="traces" transform="translate(0,14.5)" style="opacity: 1;"><text class="legendtext" text-anchor="start" x="40" y="4.680000000000001" style="font-family: 'Open Sans', verdana, arial, sans-serif; font-size: 12px; fill: rgb(68, 68, 68); fill-opacity: 1; white-space: pre;">square</text><g class="layers" style="opacity: 1;"><g class="legendfill"/><g class="legendlines"><path class="js-line" d="M5,0h30" style="fill: none; stroke: rgb(0, 154, 250); stroke-opacity: 1; stroke-width: 1px;"/></g><g class="legendsymbols"><g class="legendpoints"><path class="scatterpts" transform="translate(20,0)" d="M4,0A4,4 0 1,1 0,-4A4,4 0 0,1 4,0Z" style="opacity: 1; stroke-width: 1px; fill: rgb(0, 154, 250); fill-opacity: 1; stroke: rgb(0, 0, 0); stroke-opacity: 1;"/></g></g></g><rect class="legendtoggle" x="0" y="-9.5" width="80.8125" height="19" style="fill: rgb(0, 0, 0); fill-opacity: 0;"/></g><g class="traces" transform="translate(0,33.5)" style="opacity: 1;"><text class="legendtext" text-anchor="start" x="40" y="4.680000000000001" style="font-family: 'Open Sans', verdana, arial, sans-serif; font-size: 12px; fill: rgb(68, 68, 68); fill-opacity: 1; white-space: pre;">square</text><g class="layers" style="opacity: 1;"><g class="legendfill"/><g class="legendlines"><path class="js-line" d="M5,0h30" style="fill: none; stroke: rgb(0, 154, 250); stroke-opacity: 1; stroke-width: 1px;"/></g><g class="legendsymbols"><g class="legendpoints"><path class="scatterpts" transform="translate(20,0)" d="M4,0A4,4 0 1,1 0,-4A4,4 0 0,1 4,0Z" style="opacity: 1; stroke-width: 1px; fill: rgb(0, 154, 250); fill-opacity: 1; stroke: rgb(0, 0, 0); stroke-opacity: 1;"/></g></g></g><rect class="legendtoggle" x="0" y="-9.5" width="80.8125" height="19" style="fill: rgb(0, 0, 0); fill-opacity: 0;"/></g><g class="traces" transform="translate(0,52.5)" style="opacity: 1;"><text class="legendtext" text-anchor="start" x="40" y="4.680000000000001" style="font-family: 'Open Sans', verdana, arial, sans-serif; font-size: 12px; fill: rgb(68, 68, 68); fill-opacity: 1; white-space: pre;">square</text><g class="layers" style="opacity: 1;"><g class="legendfill"/><g class="legendlines"><path class="js-line" d="M5,0h30" style="fill: none; stroke: rgb(0, 154, 250); stroke-opacity: 1; stroke-width: 1px;"/></g><g class="legendsymbols"><g class="legendpoints"><path class="scatterpts" transform="translate(20,0)" d="M4,0A4,4 0 1,1 0,-4A4,4 0 0,1 4,0Z" style="opacity: 1; stroke-width: 1px; fill: rgb(0, 154, 250); fill-opacity: 1; stroke: rgb(0, 0, 0); stroke-opacity: 1;"/></g></g></g><rect class="legendtoggle" x="0" y="-9.5" width="80.8125" height="19" style="fill: rgb(0, 0, 0); fill-opacity: 0;"/></g></g></g><rect class="scrollbar" rx="20" ry="3" width="0" height="0" style="fill: rgb(128, 139, 164); fill-opacity: 1;" x="0" y="0"/></g><g class="g-gtitle"/><g class="g-xtitle"/><g class="g-x2title"/><g class="g-x3title" transform="translate(0,-3.2658437226596106)"><text class="x3title" x="330.96064814814815" y="500.1252187226596" text-anchor="middle" style="font-family: Helvetica; font-size: 15px; fill: rgb(0, 0, 0); opacity: 1; font-weight: normal; white-space: pre;">Step number</text></g><g class="g-ytitle"><text class="ytitle" transform="rotate(-90,23.871427529892088,87.34953703703701)" x="23.871427529892088" y="87.34953703703701" text-anchor="middle" style="font-family: Helvetica; font-size: 15px; fill: rgb(0, 0, 0); opacity: 1; font-weight: normal; white-space: pre;">V midstance</text></g><g class="g-y2title"><text class="y2title" transform="rotate(-90,23.871427529892088,234.82638888888886)" x="23.871427529892088" y="234.82638888888886" text-anchor="middle" style="font-family: Helvetica; font-size: 15px; fill: rgb(0, 0, 0); opacity: 1; font-weight: normal; white-space: pre;">Work</text></g><g class="g-y3title"><text class="y3title" transform="rotate(-90,23.871427529892088,382.3032407407407)" x="23.871427529892088" y="382.3032407407407" text-anchor="middle" style="font-family: Helvetica; font-size: 15px; fill: rgb(0, 0, 0); opacity: 1; font-weight: normal; white-space: pre;">Terrain height</text></g></g></svg>