<svg class="main-svg" xmlns="http://www.w3.org/2000/svg" xmlns:xlink="http://www.w3.org/1999/xlink" width="700" height="500" style="" viewBox="0 0 700 500"><rect x="0" y="0" width="700" height="500" style="fill: rgb(255, 255, 255); fill-opacity: 1;"/><defs id="defs-ea0bea"><g class="clips"><clipPath id="clipea0beaxyplot" class="plotclip"><rect width="481.8254046369203" height="106.52422353455815"/></clipPath><clipPath id="clipea0beax2y2plot" class="plotclip"><rect width="481.8254046369203" height="106.52422353455815"/></clipPath><clipPath id="clipea0beax3y3plot" class="plotclip"><rect width="481.8254046369203" height="106.52422353455815"/></clipPath><clipPath class="axesclip" id="clipea0beax"><rect x="107.61160323709535" y="0" width="481.8254046369203" height="500"/></clipPath><clipPath class="axesclip" id="clipea0beay"><rect x="0" y="63.83858267716535" width="700" height="106.52422353455815"/></clipPath><clipPath class="axesclip" id="clipea0beaxy"><rect x="107.61160323709535" y="63.83858267716535" width="481.8254046369203" height="106.52422353455815"/></clipPath><clipPath class="axesclip" id="clipea0beay2"><rect x="0" y="188.87330489938756" width="700" height="106.52422353455815"/></clipPath><clipPath class="axesclip" id="clipea0beaxy2"><rect x="107.61160323709535" y="188.87330489938756" width="481.8254046369203" height="106.52422353455815"/></clipPath><clipPath class="axesclip" id="clipea0beay3"><rect x="0" y="313.9080271216098" width="700" height="106.52422353455815"/></clipPath><clipPath class="axesclip" id="clipea0beaxy3"><rect x="107.61160323709535" y="313.9080271216098" width="481.8254046369203" height="106.52422353455815"/></clipPath><clipPath class="axesclip" id="clipea0beax2"><rect x="107.61160323709535" y="0" width="481.8254046369203" height="500"/></clipPath><clipPath class="axesclip" id="clipea0beax2y"><rect x="107.61160323709535" y="63.83858267716535" width="481.8254046369203" height="106.52422353455815"/></clipPath><clipPath class="axesclip" id="clipea0beax2y2"><rect x="107.61160323709535" y="188.87330489938756" width="481.8254046369203" height="106.52422353455815"/></clipPath><clipPath class="axesclip" id="clipea0beax2y3"><rect x="107.61160323709535" y="313.9080271216098" width="481.8254046369203" height="106.52422353455815"/></clipPath><clipPath class="axesclip" id="clipea0beax3"><rect x="107.61160323709535" y="0" width="481.8254046369203" height="500"/></clipPath><clipPath class="axesclip" id="clipea0beax3y"><rect x="107.61160323709535" y="63.83858267716535" width="481.8254046369203" height="106.52422353455815"/></clipPath><clipPath class="axesclip" id="clipea0beax3y2"><rect x="107.61160323709535" y="188.87330489938756" width="481.8254046369203" height="106.52422353455815"/></clipPath><clipPath class="axesclip" id="clipea0beax3y3"><rect x="107.61160323709535" y="313.9080271216098" width="481.8254046369203" height="106.52422353455815"/></clipPath></g><g class="gradients"/></defs><g class="bglayer"/><g class="layer-below"><g class="imagelayer"/><g class="shapelayer"/></g><g class="cartesianlayer"><g class="subplot xy"><g class="layer-subplot"><g class="shapelayer"/><g class="imagelayer"/></g><g class="gridlayer"><g class="x"/><g class="y"/></g><g class="zerolinelayer"/><path class="xlines-below"/><path class="ylines-below"/><g class="overlines-below"/><g class="xaxislayer-below"/><g class="yaxislayer-below"/><g class="overaxes-below"/><g class="plot" transform="translate(107.61160323709535,63.83858267716535)" clip-path="url('#clipea0beaxyplot')"><g class="scatterlayer mlayer"><g class="trace scatter trace8f2188" style="stroke-miterlimit: 2; opacity: 1;"><g class="fills"/><g class="errorbars"/><g class="lines"><path class="js-line" d="M13.64,106.52L13.64,0.06L104.55,0.06L468.19,0L468.19,106.52" style="vector-effect: non-scaling-stroke; fill: none; stroke: rgb(0, 154, 250); stroke-opacity: 1; stroke-width: 1px; opacity: 1;"/></g><g class="points"><path class="point" transform="translate(13.64,106.52)" d="M4,0A4,4 0 1,1 0,-4A4,4 0 0,1 4,0Z" style="opacity: 1; stroke-width: 1px; fill: rgb(0, 154, 250); fill-opacity: 1; stroke: rgb(0, 0, 0); stroke-opacity: 1;"/><path class="point" transform="translate(13.64,0.06)" d="M4,0A4,4 0 1,1 0,-4A4,4 0 0,1 4,0Z" style="opacity: 1; stroke-width: 1px; fill: rgb(0, 154, 250); fill-opacity: 1; stroke: rgb(0, 0, 0); stroke-opacity: 1;"/><path class="point" transform="translate(104.55,0.06)" d="M4,0A4,4 0 1,1 0,-4A4,4 0 0,1 4,0Z" style="opacity: 1; stroke-width: 1px; fill: rgb(0, 154, 250); fill-opacity: 1; stroke: rgb(0, 0, 0); stroke-opacity: 1;"/><path class="point" transform="translate(195.46,0.06)" d="M4,0A4,4 0 1,1 0,-4A4,4 0 0,1 4,0Z" style="opacity: 1; stroke-width: 1px; fill: rgb(0, 154, 250); fill-opacity: 1; stroke: rgb(0, 0, 0); stroke-opacity: 1;"/><path class="point" transform="translate(286.37,0.06)" d="M4,0A4,4 0 1,1 0,-4A4,4 0 0,1 4,0Z" style="opacity: 1; stroke-width: 1px; fill: rgb(0, 154, 250); fill-opacity: 1; stroke: rgb(0, 0, 0); stroke-opacity: 1;"/><path class="point" transform="translate(377.28,0.06)" d="M4,0A4,4 0 1,1 0,-4A4,4 0 0,1 4,0Z" style="opacity: 1; stroke-width: 1px; fill: rgb(0, 154, 250); fill-opacity: 1; stroke: rgb(0, 0, 0); stroke-opacity: 1;"/><path class="point" transform="translate(468.19,0)" d="M4,0A4,4 0 1,1 0,-4A4,4 0 0,1 4,0Z" style="opacity: 1; stroke-width: 1px; fill: rgb(0, 154, 250); fill-opacity: 1; stroke: rgb(0, 0, 0); stroke-opacity: 1;"/><path class="point" transform="translate(468.19,106.52)" d="M4,0A4,4 0 1,1 0,-4A4,4 0 0,1 4,0Z" style="opacity: 1; stroke-width: 1px; fill: rgb(0, 154, 250); fill-opacity: 1; stroke: rgb(0, 0, 0); stroke-opacity: 1;"/></g><g class="text"/></g></g></g><g class="overplot"/><path class="xlines-above crisp" d="M106.61160323709535,170.8628062117235H589.4370078740156" style="fill: none; stroke-width: 1px; stroke: rgb(0, 0, 0); stroke-opacity: 1;"/><path class="ylines-above crisp" d="M107.11160323709535,63.83858267716535V170.3628062117235" style="fill: none; stroke-width: 1px; stroke: rgb(0, 0, 0); stroke-opacity: 1;"/><g class="overlines-above"/><g class="xaxislayer-above"><path class="xtick ticks crisp" d="M0,170.3628062117235v-5" transform="translate(121.25160323709535,0)" style="stroke: rgb(0, 0, 0); stroke-opacity: 1; stroke-width: 1px;"/><path class="xtick ticks crisp" d="M0,170.3628062117235v-5" transform="translate(212.16160323709533,0)" style="stroke: rgb(0, 0, 0); stroke-opacity: 1; stroke-width: 1px;"/><path class="xtick ticks crisp" d="M0,170.3628062117235v-5" transform="translate(303.07160323709536,0)" style="stroke: rgb(0, 0, 0); stroke-opacity: 1; stroke-width: 1px;"/><path class="xtick ticks crisp" d="M0,170.3628062117235v-5" transform="translate(393.9816032370953,0)" style="stroke: rgb(0, 0, 0); stroke-opacity: 1; stroke-width: 1px;"/><path class="xtick ticks crisp" d="M0,170.3628062117235v-5" transform="translate(484.8916032370953,0)" style="stroke: rgb(0, 0, 0); stroke-opacity: 1; stroke-width: 1px;"/><path class="xtick ticks crisp" d="M0,170.3628062117235v-5" transform="translate(575.8016032370954,0)" style="stroke: rgb(0, 0, 0); stroke-opacity: 1; stroke-width: 1px;"/><g class="xtick"><text text-anchor="middle" x="0" y="184.56280621172348" transform="translate(121.25160323709535,0)" style="font-family: Helvetica; font-size: 11px; fill: rgb(0, 0, 0); fill-opacity: 1; white-space: pre;">0</text></g><g class="xtick"><text text-anchor="middle" x="0" y="184.56280621172348" transform="translate(212.16160323709533,0)" style="font-family: Helvetica; font-size: 11px; fill: rgb(0, 0, 0); fill-opacity: 1; white-space: pre;">1</text></g><g class="xtick"><text text-anchor="middle" x="0" y="184.56280621172348" transform="translate(303.07160323709536,0)" style="font-family: Helvetica; font-size: 11px; fill: rgb(0, 0, 0); fill-opacity: 1; white-space: pre;">2</text></g><g class="xtick"><text text-anchor="middle" x="0" y="184.56280621172348" transform="translate(393.9816032370953,0)" style="font-family: Helvetica; font-size: 11px; fill: rgb(0, 0, 0); fill-opacity: 1; white-space: pre;">3</text></g><g class="xtick"><text text-anchor="middle" x="0" y="184.56280621172348" transform="translate(484.8916032370953,0)" style="font-family: Helvetica; font-size: 11px; fill: rgb(0, 0, 0); fill-opacity: 1; white-space: pre;">4</text></g><g class="xtick"><text text-anchor="middle" x="0" y="184.56280621172348" transform="translate(575.8016032370954,0)" style="font-family: Helvetica; font-size: 11px; fill: rgb(0, 0, 0); fill-opacity: 1; white-space: pre;">5</text></g></g><g class="yaxislayer-above"><path class="ytick ticks crisp" d="M107.61160323709535,0h5" transform="translate(0,146.69858267716535)" style="stroke: rgb(0, 0, 0); stroke-opacity: 1; stroke-width: 1px;"/><path class="ytick ticks crisp" d="M107.61160323709535,0h5" transform="translate(0,123.04858267716534)" style="stroke: rgb(0, 0, 0); stroke-opacity: 1; stroke-width: 1px;"/><path class="ytick ticks crisp" d="M107.61160323709535,0h5" transform="translate(0,99.38858267716535)" style="stroke: rgb(0, 0, 0); stroke-opacity: 1; stroke-width: 1px;"/><path class="ytick ticks crisp" d="M107.61160323709535,0h5" transform="translate(0,75.72858267716535)" style="stroke: rgb(0, 0, 0); stroke-opacity: 1; stroke-width: 1px;"/><g class="ytick"><text text-anchor="end" x="104.41160323709535" y="3.8499999999999996" transform="translate(0,170.35858267716534)" style="font-family: Helvetica; font-size: 11px; fill: rgb(0, 0, 0); fill-opacity: 1; white-space: pre;">0.0</text></g><g class="ytick"><text text-anchor="end" x="104.41160323709535" y="3.8499999999999996" transform="translate(0,146.69858267716535)" style="font-family: Helvetica; font-size: 11px; fill: rgb(0, 0, 0); fill-opacity: 1; white-space: pre;">0.1</text></g><g class="ytick"><text text-anchor="end" x="104.41160323709535" y="3.8499999999999996" transform="translate(0,123.04858267716534)" style="font-family: Helvetica; font-size: 11px; fill: rgb(0, 0, 0); fill-opacity: 1; white-space: pre;">0.2</text></g><g class="ytick"><text text-anchor="end" x="104.41160323709535" y="3.8499999999999996" transform="translate(0,99.38858267716535)" style="font-family: Helvetica; font-size: 11px; fill: rgb(0, 0, 0); fill-opacity: 1; white-space: pre;">0.3</text></g><g class="ytick"><text text-anchor="end" x="104.41160323709535" y="3.8499999999999996" transform="translate(0,75.72858267716535)" style="font-family: Helvetica; font-size: 11px; fill: rgb(0, 0, 0); fill-opacity: 1; white-space: pre;">0.4</text></g></g><g class="overaxes-above"/></g><g class="subplot x2y2"><g class="layer-subplot"><g class="shapelayer"/><g class="imagelayer"/></g><g class="gridlayer"><g class="x2"/><g class="y2"/></g><g class="zerolinelayer"/><path class="xlines-below"/><path class="ylines-below"/><g class="overlines-below"/><g class="xaxislayer-below"/><g class="yaxislayer-below"/><g class="overaxes-below"/><g class="plot" transform="translate(107.61160323709535,188.87330489938756)" clip-path="url('#clipea0beax2y2plot')"><g class="scatterlayer mlayer"><g class="trace scatter traceb26e3b" style="stroke-miterlimit: 2; opacity: 1;"><g class="fills"/><g class="errorbars"/><g class="lines"><path class="js-line" d="M13.64,0L59.09,83.83L150,83.83L422.73,83.77" style="vector-effect: non-scaling-stroke; fill: none; stroke: rgb(0, 154, 250); stroke-opacity: 1; stroke-width: 1px; opacity: 1;"/></g><g class="points"><path class="point" transform="translate(13.64,0)" d="M4,0A4,4 0 1,1 0,-4A4,4 0 0,1 4,0Z" style="opacity: 1; stroke-width: 1px; fill: rgb(0, 154, 250); fill-opacity: 1; stroke: rgb(0, 0, 0); stroke-opacity: 1;"/><path class="point" transform="translate(59.09,83.83)" d="M4,0A4,4 0 1,1 0,-4A4,4 0 0,1 4,0Z" style="opacity: 1; stroke-width: 1px; fill: rgb(0, 154, 250); fill-opacity: 1; stroke: rgb(0, 0, 0); stroke-opacity: 1;"/><path class="point" transform="translate(150,83.83)" d="M4,0A4,4 0 1,1 0,-4A4,4 0 0,1 4,0Z" style="opacity: 1; stroke-width: 1px; fill: rgb(0, 154, 250); fill-opacity: 1; stroke: rgb(0, 0, 0); stroke-opacity: 1;"/><path class="point" transform="translate(240.91,83.83)" d="M4,0A4,4 0 1,1 0,-4A4,4 0 0,1 4,0Z" style="opacity: 1; stroke-width: 1px; fill: rgb(0, 154, 250); fill-opacity: 1; stroke: rgb(0, 0, 0); stroke-opacity: 1;"/><path class="point" transform="translate(331.82,83.83)" d="M4,0A4,4 0 1,1 0,-4A4,4 0 0,1 4,0Z" style="opacity: 1; stroke-width: 1px; fill: rgb(0, 154, 250); fill-opacity: 1; stroke: rgb(0, 0, 0); stroke-opacity: 1;"/><path class="point" transform="translate(422.73,83.77)" d="M4,0A4,4 0 1,1 0,-4A4,4 0 0,1 4,0Z" style="opacity: 1; stroke-width: 1px; fill: rgb(0, 154, 250); fill-opacity: 1; stroke: rgb(0, 0, 0); stroke-opacity: 1;"/></g><g class="text"/></g></g></g><g class="overplot"/><path class="xlines-above crisp" d="M106.61160323709535,295.8975284339457H589.4370078740156" style="fill: none; stroke-width: 1px; stroke: rgb(0, 0, 0); stroke-opacity: 1;"/><path class="ylines-above crisp" d="M107.11160323709535,188.87330489938756V295.3975284339457" style="fill: none; stroke-width: 1px; stroke: rgb(0, 0, 0); stroke-opacity: 1;"/><g class="overlines-above"/><g class="xaxislayer-above"><path class="x2tick ticks crisp" d="M0,295.3975284339457v-5" transform="translate(166.70160323709536,0)" style="stroke: rgb(0, 0, 0); stroke-opacity: 1; stroke-width: 1px;"/><path class="x2tick ticks crisp" d="M0,295.3975284339457v-5" transform="translate(257.6116032370953,0)" style="stroke: rgb(0, 0, 0); stroke-opacity: 1; stroke-width: 1px;"/><path class="x2tick ticks crisp" d="M0,295.3975284339457v-5" transform="translate(348.52160323709535,0)" style="stroke: rgb(0, 0, 0); stroke-opacity: 1; stroke-width: 1px;"/><path class="x2tick ticks crisp" d="M0,295.3975284339457v-5" transform="translate(439.4316032370954,0)" style="stroke: rgb(0, 0, 0); stroke-opacity: 1; stroke-width: 1px;"/><path class="x2tick ticks crisp" d="M0,295.3975284339457v-5" transform="translate(530.3416032370953,0)" style="stroke: rgb(0, 0, 0); stroke-opacity: 1; stroke-width: 1px;"/><g class="x2tick"><text text-anchor="middle" x="0" y="309.5975284339457" transform="translate(166.70160323709536,0)" style="font-family: Helvetica; font-size: 11px; fill: rgb(0, 0, 0); fill-opacity: 1; white-space: pre;">1</text></g><g class="x2tick"><text text-anchor="middle" x="0" y="309.5975284339457" transform="translate(257.6116032370953,0)" style="font-family: Helvetica; font-size: 11px; fill: rgb(0, 0, 0); fill-opacity: 1; white-space: pre;">2</text></g><g class="x2tick"><text text-anchor="middle" x="0" y="309.5975284339457" transform="translate(348.52160323709535,0)" style="font-family: Helvetica; font-size: 11px; fill: rgb(0, 0, 0); fill-opacity: 1; white-space: pre;">3</text></g><g class="x2tick"><text text-anchor="middle" x="0" y="309.5975284339457" transform="translate(439.4316032370954,0)" style="font-family: Helvetica; font-size: 11px; fill: rgb(0, 0, 0); fill-opacity: 1; white-space: pre;">4</text></g><g class="x2tick"><text text-anchor="middle" x="0" y="309.5975284339457" transform="translate(530.3416032370953,0)" style="font-family: Helvetica; font-size: 11px; fill: rgb(0, 0, 0); fill-opacity: 1; white-space: pre;">5</text></g></g><g class="yaxislayer-above"><path class="y2tick ticks crisp" d="M107.61160323709535,0h5" transform="translate(0,269.0933048993876)" style="stroke: rgb(0, 0, 0); stroke-opacity: 1; stroke-width: 1px;"/><path class="y2tick ticks crisp" d="M107.61160323709535,0h5" transform="translate(0,242.79330489938758)" style="stroke: rgb(0, 0, 0); stroke-opacity: 1; stroke-width: 1px;"/><path class="y2tick ticks crisp" d="M107.61160323709535,0h5" transform="translate(0,216.49330489938757)" style="stroke: rgb(0, 0, 0); stroke-opacity: 1; stroke-width: 1px;"/><path class="y2tick ticks crisp" d="M107.61160323709535,0h5" transform="translate(0,190.19330489938756)" style="stroke: rgb(0, 0, 0); stroke-opacity: 1; stroke-width: 1px;"/><g class="y2tick"><text text-anchor="end" x="104.41160323709535" y="3.8499999999999996" transform="translate(0,295.39330489938754)" style="font-family: Helvetica; font-size: 11px; fill: rgb(0, 0, 0); fill-opacity: 1; white-space: pre;">0.000</text></g><g class="y2tick"><text text-anchor="end" x="104.41160323709535" y="3.8499999999999996" transform="translate(0,269.0933048993876)" style="font-family: Helvetica; font-size: 11px; fill: rgb(0, 0, 0); fill-opacity: 1; white-space: pre;">0.025</text></g><g class="y2tick"><text text-anchor="end" x="104.41160323709535" y="3.8499999999999996" transform="translate(0,242.79330489938758)" style="font-family: Helvetica; font-size: 11px; fill: rgb(0, 0, 0); fill-opacity: 1; white-space: pre;">0.050</text></g><g class="y2tick"><text text-anchor="end" x="104.41160323709535" y="3.8499999999999996" transform="translate(0,216.49330489938757)" style="font-family: Helvetica; font-size: 11px; fill: rgb(0, 0, 0); fill-opacity: 1; white-space: pre;">0.075</text></g><g class="y2tick"><text text-anchor="end" x="104.41160323709535" y="3.8499999999999996" transform="translate(0,190.19330489938756)" style="font-family: Helvetica; font-size: 11px; fill: rgb(0, 0, 0); fill-opacity: 1; white-space: pre;">0.100</text></g></g><g class="overaxes-above"/></g><g class="subplot x3y3"><g class="layer-subplot"><g class="shapelayer"/><g class="imagelayer"/></g><g class="gridlayer"><g class="x3"/><g class="y3"/></g><g class="zerolinelayer"/><path class="xlines-below"/><path class="ylines-below"/><g class="overlines-below"/><g class="xaxislayer-below"/><g class="yaxislayer-below"/><g class="overaxes-below"/><g class="plot" transform="translate(107.61160323709535,313.9080271216098)" clip-path="url('#clipea0beax3y3plot')"><g class="scatterlayer mlayer"><g class="trace scatter trace9b206e" style="stroke-miterlimit: 2; opacity: 1;"><g class="fills"/><g class="errorbars"/><g class="lines"><path class="js-line" d="M13.64,103.51L468.19,103.51" style="vector-effect: non-scaling-stroke; fill: none; stroke: rgb(0, 154, 250); stroke-opacity: 1; stroke-width: 1px; opacity: 1;"/></g><g class="points"><path class="point" transform="translate(13.64,103.51)" d="M4,0A4,4 0 1,1 0,-4A4,4 0 0,1 4,0Z" style="opacity: 1; stroke-width: 1px; fill: rgb(0, 154, 250); fill-opacity: 1; stroke: rgb(0, 0, 0); stroke-opacity: 1;"/><path class="point" transform="translate(104.55,103.51)" d="M4,0A4,4 0 1,1 0,-4A4,4 0 0,1 4,0Z" style="opacity: 1; stroke-width: 1px; fill: rgb(0, 154, 250); fill-opacity: 1; stroke: rgb(0, 0, 0); stroke-opacity: 1;"/><path class="point" transform="translate(195.46,103.51)" d="M4,0A4,4 0 1,1 0,-4A4,4 0 0,1 4,0Z" style="opacity: 1; stroke-width: 1px; fill: rgb(0, 154, 250); fill-opacity: 1; stroke: rgb(0, 0, 0); stroke-opacity: 1;"/><path class="point" transform="translate(286.37,103.51)" d="M4,0A4,4 0 1,1 0,-4A4,4 0 0,1 4,0Z" style="opacity: 1; stroke-width: 1px; fill: rgb(0, 154, 250); fill-opacity: 1; stroke: rgb(0, 0, 0); stroke-opacity: 1;"/><path class="point" transform="translate(377.28,103.51)" d="M4,0A4,4 0 1,1 0,-4A4,4 0 0,1 4,0Z" style="opacity: 1; stroke-width: 1px; fill: rgb(0, 154, 250); fill-opacity: 1; stroke: rgb(0, 0, 0); stroke-opacity: 1;"/><path class="point" transform="translate(468.19,103.51)" d="M4,0A4,4 0 1,1 0,-4A4,4 0 0,1 4,0Z" style="opacity: 1; stroke-width: 1px; fill: rgb(0, 154, 250); fill-opacity: 1; stroke: rgb(0, 0, 0); stroke-opacity: 1;"/></g><g class="text"/></g></g></g><g class="overplot"/><path class="xlines-above crisp" d="M106.61160323709535,420.9322506561679H589.4370078740156" style="fill: none; stroke-width: 1px; stroke: rgb(0, 0, 0); stroke-opacity: 1;"/><path class="ylines-above crisp" d="M107.11160323709535,313.9080271216098V420.4322506561679" style="fill: none; stroke-width: 1px; stroke: rgb(0, 0, 0); stroke-opacity: 1;"/><g class="overlines-above"/><g class="xaxislayer-above"><path class="x3tick ticks crisp" d="M0,420.4322506561679v-5" transform="translate(121.25160323709535,0)" style="stroke: rgb(0, 0, 0); stroke-opacity: 1; stroke-width: 1px;"/><path class="x3tick ticks crisp" d="M0,420.4322506561679v-5" transform="translate(212.16160323709533,0)" style="stroke: rgb(0, 0, 0); stroke-opacity: 1; stroke-width: 1px;"/><path class="x3tick ticks crisp" d="M0,420.4322506561679v-5" transform="translate(303.07160323709536,0)" style="stroke: rgb(0, 0, 0); stroke-opacity: 1; stroke-width: 1px;"/><path class="x3tick ticks crisp" d="M0,420.4322506561679v-5" transform="translate(393.9816032370953,0)" style="stroke: rgb(0, 0, 0); stroke-opacity: 1; stroke-width: 1px;"/><path class="x3tick ticks crisp" d="M0,420.4322506561679v-5" transform="translate(484.8916032370953,0)" style="stroke: rgb(0, 0, 0); stroke-opacity: 1; stroke-width: 1px;"/><path class="x3tick ticks crisp" d="M0,420.4322506561679v-5" transform="translate(575.8016032370954,0)" style="stroke: rgb(0, 0, 0); stroke-opacity: 1; stroke-width: 1px;"/><g class="x3tick"><text text-anchor="middle" x="0" y="434.6322506561679" transform="translate(121.25160323709535,0)" style="font-family: Helvetica; font-size: 11px; fill: rgb(0, 0, 0); fill-opacity: 1; white-space: pre;">0</text></g><g class="x3tick"><text text-anchor="middle" x="0" y="434.6322506561679" transform="translate(212.16160323709533,0)" style="font-family: Helvetica; font-size: 11px; fill: rgb(0, 0, 0); fill-opacity: 1; white-space: pre;">1</text></g><g class="x3tick"><text text-anchor="middle" x="0" y="434.6322506561679" transform="translate(303.07160323709536,0)" style="font-family: Helvetica; font-size: 11px; fill: rgb(0, 0, 0); fill-opacity: 1; white-space: pre;">2</text></g><g class="x3tick"><text text-anchor="middle" x="0" y="434.6322506561679" transform="translate(393.9816032370953,0)" style="font-family: Helvetica; font-size: 11px; fill: rgb(0, 0, 0); fill-opacity: 1; white-space: pre;">3</text></g><g class="x3tick"><text text-anchor="middle" x="0" y="434.6322506561679" transform="translate(484.8916032370953,0)" style="font-family: Helvetica; font-size: 11px; fill: rgb(0, 0, 0); fill-opacity: 1; white-space: pre;">4</text></g><g class="x3tick"><text text-anchor="middle" x="0" y="434.6322506561679" transform="translate(575.8016032370954,0)" style="font-family: Helvetica; font-size: 11px; fill: rgb(0, 0, 0); fill-opacity: 1; white-space: pre;">5</text></g></g><g class="yaxislayer-above"><path class="y3tick ticks crisp" d="M107.61160323709535,0h5" transform="translate(0,417.4180271216098)" style="stroke: rgb(0, 0, 0); stroke-opacity: 1; stroke-width: 1px;"/><path class="y3tick ticks crisp" d="M107.61160323709535,0h5" transform="translate(0,392.2980271216098)" style="stroke: rgb(0, 0, 0); stroke-opacity: 1; stroke-width: 1px;"/><path class="y3tick ticks crisp" d="M107.61160323709535,0h5" transform="translate(0,367.1680271216098)" style="stroke: rgb(0, 0, 0); stroke-opacity: 1; stroke-width: 1px;"/><path class="y3tick ticks crisp" d="M107.61160323709535,0h5" transform="translate(0,342.0480271216098)" style="stroke: rgb(0, 0, 0); stroke-opacity: 1; stroke-width: 1px;"/><path class="y3tick ticks crisp" d="M107.61160323709535,0h5" transform="translate(0,316.9180271216098)" style="stroke: rgb(0, 0, 0); stroke-opacity: 1; stroke-width: 1px;"/><g class="y3tick"><text text-anchor="end" x="104.41160323709535" y="3.8499999999999996" transform="translate(0,417.4180271216098)" style="font-family: Helvetica; font-size: 11px; fill: rgb(0, 0, 0); fill-opacity: 1; white-space: pre;">0.00</text></g><g class="y3tick"><text text-anchor="end" x="104.41160323709535" y="3.8499999999999996" transform="translate(0,392.2980271216098)" style="font-family: Helvetica; font-size: 11px; fill: rgb(0, 0, 0); fill-opacity: 1; white-space: pre;">0.25</text></g><g class="y3tick"><text text-anchor="end" x="104.41160323709535" y="3.8499999999999996" transform="translate(0,367.1680271216098)" style="font-family: Helvetica; font-size: 11px; fill: rgb(0, 0, 0); fill-opacity: 1; white-space: pre;">0.50</text></g><g class="y3tick"><text text-anchor="end" x="104.41160323709535" y="3.8499999999999996" transform="translate(0,342.0480271216098)" style="font-family: Helvetica; font-size: 11px; fill: rgb(0, 0, 0); fill-opacity: 1; white-space: pre;">0.75</text></g><g class="y3tick"><text text-anchor="end" x="104.41160323709535" y="3.8499999999999996" transform="translate(0,316.9180271216098)" style="font-family: Helvetica; font-size: 11px; fill: rgb(0, 0, 0); fill-opacity: 1; white-space: pre;">1.00</text></g></g><g class="overaxes-above"/></g></g><g class="polarlayer"/><g class="ternarylayer"/><g class="geolayer"/><g class="funnelarealayer"/><g class="pielayer"/><g class="treemaplayer"/><g class="sunburstlayer"/><g class="glimages"/><defs id="topdefs-ea0bea"><g class="clips"/><clipPath id="legendea0bea"><rect width="84" height="67" x="0" y="0"/></clipPath></defs><g class="layer-above"><g class="imagelayer"/><g class="shapelayer"/></g><g class="infolayer"><g class="legend" pointer-events="all" transform="translate(603.86,60)"><rect class="bg" shape-rendering="crispEdges" width="84" height="67" x="0" y="0" style="stroke: rgb(68, 68, 68); stroke-opacity: 1; fill: rgb(255, 255, 255); fill-opacity: 1; stroke-width: 0px;"/><g class="scrollbox" transform="" clip-path="url('#legendea0bea')"><g class="groups" transform=""><g class="traces" transform="translate(0,14.5)" style="opacity: 1;"><text class="legendtext" text-anchor="start" x="40" y="4.680000000000001" style="font-family: 'Open Sans', verdana, arial, sans-serif; font-size: 12px; fill: rgb(42, 63, 95); fill-opacity: 1; white-space: pre;">square</text><g class="layers" style="opacity: 1;"><g class="legendfill"/><g class="legendlines"><path class="js-line" d="M5,0h30" style="fill: none; stroke: rgb(0, 154, 250); stroke-opacity: 1; stroke-width: 1px;"/></g><g class="legendsymbols"><g class="legendpoints"><path class="scatterpts" transform="translate(20,0)" d="M4,0A4,4 0 1,1 0,-4A4,4 0 0,1 4,0Z" style="opacity: 1; stroke-width: 1px; fill: rgb(0, 154, 250); fill-opacity: 1; stroke: rgb(0, 0, 0); stroke-opacity: 1;"/></g></g></g><rect class="legendtoggle" x="0" y="-9.5" width="78.75" height="19" style="fill: rgb(0, 0, 0); fill-opacity: 0;"/></g><g class="traces" transform="translate(0,33.5)" style="opacity: 1;"><text class="legendtext" text-anchor="start" x="40" y="4.680000000000001" style="font-family: 'Open Sans', verdana, arial, sans-serif; font-size: 12px; fill: rgb(42, 63, 95); fill-opacity: 1; white-space: pre;">square</text><g class="layers" style="opacity: 1;"><g class="legendfill"/><g class="legendlines"><path class="js-line" d="M5,0h30" style="fill: none; stroke: rgb(0, 154, 250); stroke-opacity: 1; stroke-width: 1px;"/></g><g class="legendsymbols"><g class="legendpoints"><path class="scatterpts" transform="translate(20,0)" d="M4,0A4,4 0 1,1 0,-4A4,4 0 0,1 4,0Z" style="opacity: 1; stroke-width: 1px; fill: rgb(0, 154, 250); fill-opacity: 1; stroke: rgb(0, 0, 0); stroke-opacity: 1;"/></g></g></g><rect class="legendtoggle" x="0" y="-9.5" width="78.75" height="19" style="fill: rgb(0, 0, 0); fill-opacity: 0;"/></g><g class="traces" transform="translate(0,52.5)" style="opacity: 1;"><text class="legendtext" text-anchor="start" x="40" y="4.680000000000001" style="font-family: 'Open Sans', verdana, arial, sans-serif; font-size: 12px; fill: rgb(42, 63, 95); fill-opacity: 1; white-space: pre;">square</text><g class="layers" style="opacity: 1;"><g class="legendfill"/><g class="legendlines"><path class="js-line" d="M5,0h30" style="fill: none; stroke: rgb(0, 154, 250); stroke-opacity: 1; stroke-width: 1px;"/></g><g class="legendsymbols"><g class="legendpoints"><path class="scatterpts" transform="translate(20,0)" d="M4,0A4,4 0 1,1 0,-4A4,4 0 0,1 4,0Z" style="opacity: 1; stroke-width: 1px; fill: rgb(0, 154, 250); fill-opacity: 1; stroke: rgb(0, 0, 0); stroke-opacity: 1;"/></g></g></g><rect class="legendtoggle" x="0" y="-9.5" width="78.75" height="19" style="fill: rgb(0, 0, 0); fill-opacity: 0;"/></g></g></g><rect class="scrollbar" rx="20" ry="3" width="0" height="0" x="0" y="0" style="fill: rgb(128, 139, 164); fill-opacity: 1;"/></g><g class="g-gtitle"/><g class="g-xtitle"/><g class="g-x2title"/><g class="g-x3title"><text class="x3title" x="348.52430555555554" y="462.640625" text-anchor="middle" style="font-family: Helvetica; font-size: 15px; fill: rgb(0, 0, 0); opacity: 1; font-weight: normal; white-space: pre;">Step number</text></g><g class="g-ytitle"><text class="ytitle" transform="rotate(-90,63.609375,117.10069444444443)" x="63.609375" y="117.10069444444443" text-anchor="middle" style="font-family: Helvetica; font-size: 15px; fill: rgb(0, 0, 0); opacity: 1; font-weight: normal; white-space: pre;">V midstance</text></g><g class="g-y2title"><text class="y2title" transform="rotate(-90,51.375,242.13541666666663)" x="51.375" y="242.13541666666663" text-anchor="middle" style="font-family: Helvetica; font-size: 15px; fill: rgb(0, 0, 0); opacity: 1; font-weight: normal; white-space: pre;">Work</text></g><g class="g-y3title"><text class="y3title" transform="rotate(-90,57.5,367.17013888888886)" x="57.5" y="367.17013888888886" text-anchor="middle" style="font-family: Helvetica; font-size: 15px; fill: rgb(0, 0, 0); opacity: 1; font-weight: normal; white-space: pre;">Terrain height</text></g></g></svg>