<svg class="main-svg" xmlns="http://www.w3.org/2000/svg" xmlns:xlink="http://www.w3.org/1999/xlink" width="700" height="500" style="" viewBox="0 0 700 500"><rect x="0" y="0" width="700" height="500" style="fill: rgb(255, 255, 255); fill-opacity: 1;"/><defs id="defs-8af0d3"><g class="clips"><clipPath id="clip8af0d3xyplot" class="plotclip"><rect width="478.27604622338873" height="106.52422353455815"/></clipPath><clipPath id="clip8af0d3x2y2plot" class="plotclip"><rect width="478.27604622338873" height="106.52422353455815"/></clipPath><clipPath id="clip8af0d3x3y3plot" class="plotclip"><rect width="478.27604622338873" height="106.52422353455815"/></clipPath><clipPath class="axesclip" id="clip8af0d3x"><rect x="107.1872083697871" y="0" width="478.27604622338873" height="500"/></clipPath><clipPath class="axesclip" id="clip8af0d3y"><rect x="0" y="63.83858267716535" width="700" height="106.52422353455815"/></clipPath><clipPath class="axesclip" id="clip8af0d3xy"><rect x="107.1872083697871" y="63.83858267716535" width="478.27604622338873" height="106.52422353455815"/></clipPath><clipPath class="axesclip" id="clip8af0d3y2"><rect x="0" y="188.87330489938756" width="700" height="106.52422353455815"/></clipPath><clipPath class="axesclip" id="clip8af0d3xy2"><rect x="107.1872083697871" y="188.87330489938756" width="478.27604622338873" height="106.52422353455815"/></clipPath><clipPath class="axesclip" id="clip8af0d3y3"><rect x="0" y="313.9080271216098" width="700" height="106.52422353455815"/></clipPath><clipPath class="axesclip" id="clip8af0d3xy3"><rect x="107.1872083697871" y="313.9080271216098" width="478.27604622338873" height="106.52422353455815"/></clipPath><clipPath class="axesclip" id="clip8af0d3x2"><rect x="107.1872083697871" y="0" width="478.27604622338873" height="500"/></clipPath><clipPath class="axesclip" id="clip8af0d3x2y"><rect x="107.1872083697871" y="63.83858267716535" width="478.27604622338873" height="106.52422353455815"/></clipPath><clipPath class="axesclip" id="clip8af0d3x2y2"><rect x="107.1872083697871" y="188.87330489938756" width="478.27604622338873" height="106.52422353455815"/></clipPath><clipPath class="axesclip" id="clip8af0d3x2y3"><rect x="107.1872083697871" y="313.9080271216098" width="478.27604622338873" height="106.52422353455815"/></clipPath><clipPath class="axesclip" id="clip8af0d3x3"><rect x="107.1872083697871" y="0" width="478.27604622338873" height="500"/></clipPath><clipPath class="axesclip" id="clip8af0d3x3y"><rect x="107.1872083697871" y="63.83858267716535" width="478.27604622338873" height="106.52422353455815"/></clipPath><clipPath class="axesclip" id="clip8af0d3x3y2"><rect x="107.1872083697871" y="188.87330489938756" width="478.27604622338873" height="106.52422353455815"/></clipPath><clipPath class="axesclip" id="clip8af0d3x3y3"><rect x="107.1872083697871" y="313.9080271216098" width="478.27604622338873" height="106.52422353455815"/></clipPath></g><g class="gradients"/></defs><g class="bglayer"/><g class="layer-below"><g class="imagelayer"/><g class="shapelayer"/></g><g class="cartesianlayer"><g class="subplot xy"><g class="layer-subplot"><g class="shapelayer"/><g class="imagelayer"/></g><g class="gridlayer"><g class="x"/><g class="y"/></g><g class="zerolinelayer"/><path class="xlines-below"/><path class="ylines-below"/><g class="overlines-below"/><g class="xaxislayer-below"/><g class="yaxislayer-below"/><g class="overaxes-below"/><g class="plot" transform="translate(107.1872083697871,63.83858267716535)" clip-path="url('#clip8af0d3xyplot')"><g class="scatterlayer mlayer"><g class="trace scatter tracee22464" style="stroke-miterlimit: 2; opacity: 1;"><g class="fills"/><g class="errorbars"/><g class="lines"><path class="js-line" d="M13.54,106.52L13.54,10.61L103.78,10.61L464.74,10.56L464.74,106.52" style="vector-effect: non-scaling-stroke; fill: none; stroke: rgb(0, 154, 250); stroke-opacity: 1; stroke-width: 1px; opacity: 1;"/></g><g class="points"><path class="point" transform="translate(13.54,106.52)" d="M4,0A4,4 0 1,1 0,-4A4,4 0 0,1 4,0Z" style="opacity: 1; stroke-width: 1px; fill: rgb(0, 154, 250); fill-opacity: 1; stroke: rgb(0, 0, 0); stroke-opacity: 1;"/><path class="point" transform="translate(13.54,10.61)" d="M4,0A4,4 0 1,1 0,-4A4,4 0 0,1 4,0Z" style="opacity: 1; stroke-width: 1px; fill: rgb(0, 154, 250); fill-opacity: 1; stroke: rgb(0, 0, 0); stroke-opacity: 1;"/><path class="point" transform="translate(103.78,10.61)" d="M4,0A4,4 0 1,1 0,-4A4,4 0 0,1 4,0Z" style="opacity: 1; stroke-width: 1px; fill: rgb(0, 154, 250); fill-opacity: 1; stroke: rgb(0, 0, 0); stroke-opacity: 1;"/><path class="point" transform="translate(194.02,10.61)" d="M4,0A4,4 0 1,1 0,-4A4,4 0 0,1 4,0Z" style="opacity: 1; stroke-width: 1px; fill: rgb(0, 154, 250); fill-opacity: 1; stroke: rgb(0, 0, 0); stroke-opacity: 1;"/><path class="point" transform="translate(284.26,10.61)" d="M4,0A4,4 0 1,1 0,-4A4,4 0 0,1 4,0Z" style="opacity: 1; stroke-width: 1px; fill: rgb(0, 154, 250); fill-opacity: 1; stroke: rgb(0, 0, 0); stroke-opacity: 1;"/><path class="point" transform="translate(374.5,10.61)" d="M4,0A4,4 0 1,1 0,-4A4,4 0 0,1 4,0Z" style="opacity: 1; stroke-width: 1px; fill: rgb(0, 154, 250); fill-opacity: 1; stroke: rgb(0, 0, 0); stroke-opacity: 1;"/><path class="point" transform="translate(464.74,10.56)" d="M4,0A4,4 0 1,1 0,-4A4,4 0 0,1 4,0Z" style="opacity: 1; stroke-width: 1px; fill: rgb(0, 154, 250); fill-opacity: 1; stroke: rgb(0, 0, 0); stroke-opacity: 1;"/><path class="point" transform="translate(464.74,106.52)" d="M4,0A4,4 0 1,1 0,-4A4,4 0 0,1 4,0Z" style="opacity: 1; stroke-width: 1px; fill: rgb(0, 154, 250); fill-opacity: 1; stroke: rgb(0, 0, 0); stroke-opacity: 1;"/></g><g class="text"/></g><g class="trace scatter trace8c7043" style="stroke-miterlimit: 2; opacity: 1;"><g class="fills"/><g class="errorbars"/><g class="lines"><path class="js-line" d="M13.54,106.52L13.54,30.57L103.78,8.37L194.02,0.02L284.26,0L374.5,8.3L464.74,30.39L464.74,106.52" style="vector-effect: non-scaling-stroke; fill: none; stroke: rgb(227, 111, 71); stroke-opacity: 1; stroke-width: 1px; opacity: 1;"/></g><g class="points"><path class="point" transform="translate(13.54,106.52)" d="M4,0A4,4 0 1,1 0,-4A4,4 0 0,1 4,0Z" style="opacity: 1; stroke-width: 1px; fill: rgb(227, 111, 71); fill-opacity: 1; stroke: rgb(0, 0, 0); stroke-opacity: 1;"/><path class="point" transform="translate(13.54,30.57)" d="M4,0A4,4 0 1,1 0,-4A4,4 0 0,1 4,0Z" style="opacity: 1; stroke-width: 1px; fill: rgb(227, 111, 71); fill-opacity: 1; stroke: rgb(0, 0, 0); stroke-opacity: 1;"/><path class="point" transform="translate(103.78,8.37)" d="M4,0A4,4 0 1,1 0,-4A4,4 0 0,1 4,0Z" style="opacity: 1; stroke-width: 1px; fill: rgb(227, 111, 71); fill-opacity: 1; stroke: rgb(0, 0, 0); stroke-opacity: 1;"/><path class="point" transform="translate(194.02,0.02)" d="M4,0A4,4 0 1,1 0,-4A4,4 0 0,1 4,0Z" style="opacity: 1; stroke-width: 1px; fill: rgb(227, 111, 71); fill-opacity: 1; stroke: rgb(0, 0, 0); stroke-opacity: 1;"/><path class="point" transform="translate(284.26,0)" d="M4,0A4,4 0 1,1 0,-4A4,4 0 0,1 4,0Z" style="opacity: 1; stroke-width: 1px; fill: rgb(227, 111, 71); fill-opacity: 1; stroke: rgb(0, 0, 0); stroke-opacity: 1;"/><path class="point" transform="translate(374.5,8.3)" d="M4,0A4,4 0 1,1 0,-4A4,4 0 0,1 4,0Z" style="opacity: 1; stroke-width: 1px; fill: rgb(227, 111, 71); fill-opacity: 1; stroke: rgb(0, 0, 0); stroke-opacity: 1;"/><path class="point" transform="translate(464.74,30.39)" d="M4,0A4,4 0 1,1 0,-4A4,4 0 0,1 4,0Z" style="opacity: 1; stroke-width: 1px; fill: rgb(227, 111, 71); fill-opacity: 1; stroke: rgb(0, 0, 0); stroke-opacity: 1;"/><path class="point" transform="translate(464.74,106.52)" d="M4,0A4,4 0 1,1 0,-4A4,4 0 0,1 4,0Z" style="opacity: 1; stroke-width: 1px; fill: rgb(227, 111, 71); fill-opacity: 1; stroke: rgb(0, 0, 0); stroke-opacity: 1;"/></g><g class="text"/></g></g></g><g class="overplot"/><path class="xlines-above crisp" d="M106.1872083697871,170.8628062117235H585.4632545931759" style="fill: none; stroke-width: 1px; stroke: rgb(0, 0, 0); stroke-opacity: 1;"/><path class="ylines-above crisp" d="M106.6872083697871,63.83858267716535V170.3628062117235" style="fill: none; stroke-width: 1px; stroke: rgb(0, 0, 0); stroke-opacity: 1;"/><g class="overlines-above"/><g class="xaxislayer-above"><path class="xtick ticks crisp" d="M0,170.3628062117235v-5" transform="translate(120.72720836978709,0)" style="stroke: rgb(0, 0, 0); stroke-opacity: 1; stroke-width: 1px;"/><path class="xtick ticks crisp" d="M0,170.3628062117235v-5" transform="translate(210.9672083697871,0)" style="stroke: rgb(0, 0, 0); stroke-opacity: 1; stroke-width: 1px;"/><path class="xtick ticks crisp" d="M0,170.3628062117235v-5" transform="translate(301.2072083697871,0)" style="stroke: rgb(0, 0, 0); stroke-opacity: 1; stroke-width: 1px;"/><path class="xtick ticks crisp" d="M0,170.3628062117235v-5" transform="translate(391.44720836978706,0)" style="stroke: rgb(0, 0, 0); stroke-opacity: 1; stroke-width: 1px;"/><path class="xtick ticks crisp" d="M0,170.3628062117235v-5" transform="translate(481.6872083697871,0)" style="stroke: rgb(0, 0, 0); stroke-opacity: 1; stroke-width: 1px;"/><path class="xtick ticks crisp" d="M0,170.3628062117235v-5" transform="translate(571.9272083697871,0)" style="stroke: rgb(0, 0, 0); stroke-opacity: 1; stroke-width: 1px;"/><g class="xtick"><text text-anchor="middle" x="0" y="184.56280621172348" transform="translate(120.72720836978709,0)" style="font-family: Helvetica; font-size: 11px; fill: rgb(0, 0, 0); fill-opacity: 1; white-space: pre;">0</text></g><g class="xtick"><text text-anchor="middle" x="0" y="184.56280621172348" transform="translate(210.9672083697871,0)" style="font-family: Helvetica; font-size: 11px; fill: rgb(0, 0, 0); fill-opacity: 1; white-space: pre;">1</text></g><g class="xtick"><text text-anchor="middle" x="0" y="184.56280621172348" transform="translate(301.2072083697871,0)" style="font-family: Helvetica; font-size: 11px; fill: rgb(0, 0, 0); fill-opacity: 1; white-space: pre;">2</text></g><g class="xtick"><text text-anchor="middle" x="0" y="184.56280621172348" transform="translate(391.44720836978706,0)" style="font-family: Helvetica; font-size: 11px; fill: rgb(0, 0, 0); fill-opacity: 1; white-space: pre;">3</text></g><g class="xtick"><text text-anchor="middle" x="0" y="184.56280621172348" transform="translate(481.6872083697871,0)" style="font-family: Helvetica; font-size: 11px; fill: rgb(0, 0, 0); fill-opacity: 1; white-space: pre;">4</text></g><g class="xtick"><text text-anchor="middle" x="0" y="184.56280621172348" transform="translate(571.9272083697871,0)" style="font-family: Helvetica; font-size: 11px; fill: rgb(0, 0, 0); fill-opacity: 1; white-space: pre;">5</text></g></g><g class="yaxislayer-above"><path class="ytick ticks crisp" d="M107.1872083697871,0h5" transform="translate(0,149.04858267716534)" style="stroke: rgb(0, 0, 0); stroke-opacity: 1; stroke-width: 1px;"/><path class="ytick ticks crisp" d="M107.1872083697871,0h5" transform="translate(0,127.73858267716534)" style="stroke: rgb(0, 0, 0); stroke-opacity: 1; stroke-width: 1px;"/><path class="ytick ticks crisp" d="M107.1872083697871,0h5" transform="translate(0,106.41858267716535)" style="stroke: rgb(0, 0, 0); stroke-opacity: 1; stroke-width: 1px;"/><path class="ytick ticks crisp" d="M107.1872083697871,0h5" transform="translate(0,85.10858267716534)" style="stroke: rgb(0, 0, 0); stroke-opacity: 1; stroke-width: 1px;"/><g class="ytick"><text text-anchor="end" x="103.9872083697871" y="3.8499999999999996" transform="translate(0,170.35858267716534)" style="font-family: Helvetica; font-size: 11px; fill: rgb(0, 0, 0); fill-opacity: 1; white-space: pre;">0.0</text></g><g class="ytick"><text text-anchor="end" x="103.9872083697871" y="3.8499999999999996" transform="translate(0,149.04858267716534)" style="font-family: Helvetica; font-size: 11px; fill: rgb(0, 0, 0); fill-opacity: 1; white-space: pre;">0.1</text></g><g class="ytick"><text text-anchor="end" x="103.9872083697871" y="3.8499999999999996" transform="translate(0,127.73858267716534)" style="font-family: Helvetica; font-size: 11px; fill: rgb(0, 0, 0); fill-opacity: 1; white-space: pre;">0.2</text></g><g class="ytick"><text text-anchor="end" x="103.9872083697871" y="3.8499999999999996" transform="translate(0,106.41858267716535)" style="font-family: Helvetica; font-size: 11px; fill: rgb(0, 0, 0); fill-opacity: 1; white-space: pre;">0.3</text></g><g class="ytick"><text text-anchor="end" x="103.9872083697871" y="3.8499999999999996" transform="translate(0,85.10858267716534)" style="font-family: Helvetica; font-size: 11px; fill: rgb(0, 0, 0); fill-opacity: 1; white-space: pre;">0.4</text></g></g><g class="overaxes-above"/></g><g class="subplot x2y2"><g class="layer-subplot"><g class="shapelayer"/><g class="imagelayer"/></g><g class="gridlayer"><g class="x2"/><g class="y2"/></g><g class="zerolinelayer"/><path class="xlines-below"/><path class="ylines-below"/><g class="overlines-below"/><g class="xaxislayer-below"/><g class="yaxislayer-below"/><g class="overaxes-below"/><g class="plot" transform="translate(107.1872083697871,188.87330489938756)" clip-path="url('#clip8af0d3x2y2plot')"><g class="scatterlayer mlayer"><g class="trace scatter tracec85fae" style="stroke-miterlimit: 2; opacity: 1;"><g class="fills"/><g class="errorbars"/><g class="lines"><path class="js-line" d="M13.54,0L58.66,83.83L148.9,83.83L419.62,83.77" style="vector-effect: non-scaling-stroke; fill: none; stroke: rgb(0, 154, 250); stroke-opacity: 1; stroke-width: 1px; opacity: 1;"/></g><g class="points"><path class="point" transform="translate(13.54,0)" d="M4,0A4,4 0 1,1 0,-4A4,4 0 0,1 4,0Z" style="opacity: 1; stroke-width: 1px; fill: rgb(0, 154, 250); fill-opacity: 1; stroke: rgb(0, 0, 0); stroke-opacity: 1;"/><path class="point" transform="translate(58.66,83.83)" d="M4,0A4,4 0 1,1 0,-4A4,4 0 0,1 4,0Z" style="opacity: 1; stroke-width: 1px; fill: rgb(0, 154, 250); fill-opacity: 1; stroke: rgb(0, 0, 0); stroke-opacity: 1;"/><path class="point" transform="translate(148.9,83.83)" d="M4,0A4,4 0 1,1 0,-4A4,4 0 0,1 4,0Z" style="opacity: 1; stroke-width: 1px; fill: rgb(0, 154, 250); fill-opacity: 1; stroke: rgb(0, 0, 0); stroke-opacity: 1;"/><path class="point" transform="translate(239.14,83.83)" d="M4,0A4,4 0 1,1 0,-4A4,4 0 0,1 4,0Z" style="opacity: 1; stroke-width: 1px; fill: rgb(0, 154, 250); fill-opacity: 1; stroke: rgb(0, 0, 0); stroke-opacity: 1;"/><path class="point" transform="translate(329.38,83.83)" d="M4,0A4,4 0 1,1 0,-4A4,4 0 0,1 4,0Z" style="opacity: 1; stroke-width: 1px; fill: rgb(0, 154, 250); fill-opacity: 1; stroke: rgb(0, 0, 0); stroke-opacity: 1;"/><path class="point" transform="translate(419.62,83.77)" d="M4,0A4,4 0 1,1 0,-4A4,4 0 0,1 4,0Z" style="opacity: 1; stroke-width: 1px; fill: rgb(0, 154, 250); fill-opacity: 1; stroke: rgb(0, 0, 0); stroke-opacity: 1;"/></g><g class="text"/></g><g class="trace scatter trace0df253" style="stroke-miterlimit: 2; opacity: 1;"><g class="fills"/><g class="errorbars"/><g class="lines"><path class="js-line" d="M13.54,39.73L58.66,57.7L148.9,70.97L329.38,90.7L419.62,102.39" style="vector-effect: non-scaling-stroke; fill: none; stroke: rgb(227, 111, 71); stroke-opacity: 1; stroke-width: 1px; opacity: 1;"/></g><g class="points"><path class="point" transform="translate(13.54,39.73)" d="M4,0A4,4 0 1,1 0,-4A4,4 0 0,1 4,0Z" style="opacity: 1; stroke-width: 1px; fill: rgb(227, 111, 71); fill-opacity: 1; stroke: rgb(0, 0, 0); stroke-opacity: 1;"/><path class="point" transform="translate(58.66,57.7)" d="M4,0A4,4 0 1,1 0,-4A4,4 0 0,1 4,0Z" style="opacity: 1; stroke-width: 1px; fill: rgb(227, 111, 71); fill-opacity: 1; stroke: rgb(0, 0, 0); stroke-opacity: 1;"/><path class="point" transform="translate(148.9,70.97)" d="M4,0A4,4 0 1,1 0,-4A4,4 0 0,1 4,0Z" style="opacity: 1; stroke-width: 1px; fill: rgb(227, 111, 71); fill-opacity: 1; stroke: rgb(0, 0, 0); stroke-opacity: 1;"/><path class="point" transform="translate(239.14,80.5)" d="M4,0A4,4 0 1,1 0,-4A4,4 0 0,1 4,0Z" style="opacity: 1; stroke-width: 1px; fill: rgb(227, 111, 71); fill-opacity: 1; stroke: rgb(0, 0, 0); stroke-opacity: 1;"/><path class="point" transform="translate(329.38,90.7)" d="M4,0A4,4 0 1,1 0,-4A4,4 0 0,1 4,0Z" style="opacity: 1; stroke-width: 1px; fill: rgb(227, 111, 71); fill-opacity: 1; stroke: rgb(0, 0, 0); stroke-opacity: 1;"/><path class="point" transform="translate(419.62,102.39)" d="M4,0A4,4 0 1,1 0,-4A4,4 0 0,1 4,0Z" style="opacity: 1; stroke-width: 1px; fill: rgb(227, 111, 71); fill-opacity: 1; stroke: rgb(0, 0, 0); stroke-opacity: 1;"/></g><g class="text"/></g></g></g><g class="overplot"/><path class="xlines-above crisp" d="M106.1872083697871,295.8975284339457H585.4632545931759" style="fill: none; stroke-width: 1px; stroke: rgb(0, 0, 0); stroke-opacity: 1;"/><path class="ylines-above crisp" d="M106.6872083697871,188.87330489938756V295.3975284339457" style="fill: none; stroke-width: 1px; stroke: rgb(0, 0, 0); stroke-opacity: 1;"/><g class="overlines-above"/><g class="xaxislayer-above"><path class="x2tick ticks crisp" d="M0,295.3975284339457v-5" transform="translate(165.8472083697871,0)" style="stroke: rgb(0, 0, 0); stroke-opacity: 1; stroke-width: 1px;"/><path class="x2tick ticks crisp" d="M0,295.3975284339457v-5" transform="translate(256.0872083697871,0)" style="stroke: rgb(0, 0, 0); stroke-opacity: 1; stroke-width: 1px;"/><path class="x2tick ticks crisp" d="M0,295.3975284339457v-5" transform="translate(346.32720836978706,0)" style="stroke: rgb(0, 0, 0); stroke-opacity: 1; stroke-width: 1px;"/><path class="x2tick ticks crisp" d="M0,295.3975284339457v-5" transform="translate(436.56720836978707,0)" style="stroke: rgb(0, 0, 0); stroke-opacity: 1; stroke-width: 1px;"/><path class="x2tick ticks crisp" d="M0,295.3975284339457v-5" transform="translate(526.8072083697871,0)" style="stroke: rgb(0, 0, 0); stroke-opacity: 1; stroke-width: 1px;"/><g class="x2tick"><text text-anchor="middle" x="0" y="309.5975284339457" transform="translate(165.8472083697871,0)" style="font-family: Helvetica; font-size: 11px; fill: rgb(0, 0, 0); fill-opacity: 1; white-space: pre;">1</text></g><g class="x2tick"><text text-anchor="middle" x="0" y="309.5975284339457" transform="translate(256.0872083697871,0)" style="font-family: Helvetica; font-size: 11px; fill: rgb(0, 0, 0); fill-opacity: 1; white-space: pre;">2</text></g><g class="x2tick"><text text-anchor="middle" x="0" y="309.5975284339457" transform="translate(346.32720836978706,0)" style="font-family: Helvetica; font-size: 11px; fill: rgb(0, 0, 0); fill-opacity: 1; white-space: pre;">3</text></g><g class="x2tick"><text text-anchor="middle" x="0" y="309.5975284339457" transform="translate(436.56720836978707,0)" style="font-family: Helvetica; font-size: 11px; fill: rgb(0, 0, 0); fill-opacity: 1; white-space: pre;">4</text></g><g class="x2tick"><text text-anchor="middle" x="0" y="309.5975284339457" transform="translate(526.8072083697871,0)" style="font-family: Helvetica; font-size: 11px; fill: rgb(0, 0, 0); fill-opacity: 1; white-space: pre;">5</text></g></g><g class="yaxislayer-above"><path class="y2tick ticks crisp" d="M107.1872083697871,0h5" transform="translate(0,269.0933048993876)" style="stroke: rgb(0, 0, 0); stroke-opacity: 1; stroke-width: 1px;"/><path class="y2tick ticks crisp" d="M107.1872083697871,0h5" transform="translate(0,242.79330489938758)" style="stroke: rgb(0, 0, 0); stroke-opacity: 1; stroke-width: 1px;"/><path class="y2tick ticks crisp" d="M107.1872083697871,0h5" transform="translate(0,216.49330489938757)" style="stroke: rgb(0, 0, 0); stroke-opacity: 1; stroke-width: 1px;"/><path class="y2tick ticks crisp" d="M107.1872083697871,0h5" transform="translate(0,190.19330489938756)" style="stroke: rgb(0, 0, 0); stroke-opacity: 1; stroke-width: 1px;"/><g class="y2tick"><text text-anchor="end" x="103.9872083697871" y="3.8499999999999996" transform="translate(0,295.39330489938754)" style="font-family: Helvetica; font-size: 11px; fill: rgb(0, 0, 0); fill-opacity: 1; white-space: pre;">0.000</text></g><g class="y2tick"><text text-anchor="end" x="103.9872083697871" y="3.8499999999999996" transform="translate(0,269.0933048993876)" style="font-family: Helvetica; font-size: 11px; fill: rgb(0, 0, 0); fill-opacity: 1; white-space: pre;">0.025</text></g><g class="y2tick"><text text-anchor="end" x="103.9872083697871" y="3.8499999999999996" transform="translate(0,242.79330489938758)" style="font-family: Helvetica; font-size: 11px; fill: rgb(0, 0, 0); fill-opacity: 1; white-space: pre;">0.050</text></g><g class="y2tick"><text text-anchor="end" x="103.9872083697871" y="3.8499999999999996" transform="translate(0,216.49330489938757)" style="font-family: Helvetica; font-size: 11px; fill: rgb(0, 0, 0); fill-opacity: 1; white-space: pre;">0.075</text></g><g class="y2tick"><text text-anchor="end" x="103.9872083697871" y="3.8499999999999996" transform="translate(0,190.19330489938756)" style="font-family: Helvetica; font-size: 11px; fill: rgb(0, 0, 0); fill-opacity: 1; white-space: pre;">0.100</text></g></g><g class="overaxes-above"/></g><g class="subplot x3y3"><g class="layer-subplot"><g class="shapelayer"/><g class="imagelayer"/></g><g class="gridlayer"><g class="x3"/><g class="y3"/></g><g class="zerolinelayer"/><path class="xlines-below"/><path class="ylines-below"/><g class="overlines-below"/><g class="xaxislayer-below"/><g class="yaxislayer-below"/><g class="overaxes-below"/><g class="plot" transform="translate(107.1872083697871,313.9080271216098)" clip-path="url('#clip8af0d3x3y3plot')"><g class="scatterlayer mlayer"><g class="trace scatter trace3ce880" style="stroke-miterlimit: 2; opacity: 1;"><g class="fills"/><g class="errorbars"/><g class="lines"><path class="js-line" d="M13.54,103.51L464.74,103.51" style="vector-effect: non-scaling-stroke; fill: none; stroke: rgb(0, 154, 250); stroke-opacity: 1; stroke-width: 1px; opacity: 1;"/></g><g class="points"><path class="point" transform="translate(13.54,103.51)" d="M4,0A4,4 0 1,1 0,-4A4,4 0 0,1 4,0Z" style="opacity: 1; stroke-width: 1px; fill: rgb(0, 154, 250); fill-opacity: 1; stroke: rgb(0, 0, 0); stroke-opacity: 1;"/><path class="point" transform="translate(103.78,103.51)" d="M4,0A4,4 0 1,1 0,-4A4,4 0 0,1 4,0Z" style="opacity: 1; stroke-width: 1px; fill: rgb(0, 154, 250); fill-opacity: 1; stroke: rgb(0, 0, 0); stroke-opacity: 1;"/><path class="point" transform="translate(194.02,103.51)" d="M4,0A4,4 0 1,1 0,-4A4,4 0 0,1 4,0Z" style="opacity: 1; stroke-width: 1px; fill: rgb(0, 154, 250); fill-opacity: 1; stroke: rgb(0, 0, 0); stroke-opacity: 1;"/><path class="point" transform="translate(284.26,103.51)" d="M4,0A4,4 0 1,1 0,-4A4,4 0 0,1 4,0Z" style="opacity: 1; stroke-width: 1px; fill: rgb(0, 154, 250); fill-opacity: 1; stroke: rgb(0, 0, 0); stroke-opacity: 1;"/><path class="point" transform="translate(374.5,103.51)" d="M4,0A4,4 0 1,1 0,-4A4,4 0 0,1 4,0Z" style="opacity: 1; stroke-width: 1px; fill: rgb(0, 154, 250); fill-opacity: 1; stroke: rgb(0, 0, 0); stroke-opacity: 1;"/><path class="point" transform="translate(464.74,103.51)" d="M4,0A4,4 0 1,1 0,-4A4,4 0 0,1 4,0Z" style="opacity: 1; stroke-width: 1px; fill: rgb(0, 154, 250); fill-opacity: 1; stroke: rgb(0, 0, 0); stroke-opacity: 1;"/></g><g class="text"/></g><g class="trace scatter trace8f33e0" style="stroke-miterlimit: 2; opacity: 1;"><g class="fills"/><g class="errorbars"/><g class="lines"><path class="js-line" d="M13.54,103.51L464.74,103.51" style="vector-effect: non-scaling-stroke; fill: none; stroke: rgb(227, 111, 71); stroke-opacity: 1; stroke-width: 1px; opacity: 1;"/></g><g class="points"><path class="point" transform="translate(13.54,103.51)" d="M4,0A4,4 0 1,1 0,-4A4,4 0 0,1 4,0Z" style="opacity: 1; stroke-width: 1px; fill: rgb(227, 111, 71); fill-opacity: 1; stroke: rgb(0, 0, 0); stroke-opacity: 1;"/><path class="point" transform="translate(103.78,103.51)" d="M4,0A4,4 0 1,1 0,-4A4,4 0 0,1 4,0Z" style="opacity: 1; stroke-width: 1px; fill: rgb(227, 111, 71); fill-opacity: 1; stroke: rgb(0, 0, 0); stroke-opacity: 1;"/><path class="point" transform="translate(194.02,103.51)" d="M4,0A4,4 0 1,1 0,-4A4,4 0 0,1 4,0Z" style="opacity: 1; stroke-width: 1px; fill: rgb(227, 111, 71); fill-opacity: 1; stroke: rgb(0, 0, 0); stroke-opacity: 1;"/><path class="point" transform="translate(284.26,103.51)" d="M4,0A4,4 0 1,1 0,-4A4,4 0 0,1 4,0Z" style="opacity: 1; stroke-width: 1px; fill: rgb(227, 111, 71); fill-opacity: 1; stroke: rgb(0, 0, 0); stroke-opacity: 1;"/><path class="point" transform="translate(374.5,103.51)" d="M4,0A4,4 0 1,1 0,-4A4,4 0 0,1 4,0Z" style="opacity: 1; stroke-width: 1px; fill: rgb(227, 111, 71); fill-opacity: 1; stroke: rgb(0, 0, 0); stroke-opacity: 1;"/><path class="point" transform="translate(464.74,103.51)" d="M4,0A4,4 0 1,1 0,-4A4,4 0 0,1 4,0Z" style="opacity: 1; stroke-width: 1px; fill: rgb(227, 111, 71); fill-opacity: 1; stroke: rgb(0, 0, 0); stroke-opacity: 1;"/></g><g class="text"/></g></g></g><g class="overplot"/><path class="xlines-above crisp" d="M106.1872083697871,420.9322506561679H585.4632545931759" style="fill: none; stroke-width: 1px; stroke: rgb(0, 0, 0); stroke-opacity: 1;"/><path class="ylines-above crisp" d="M106.6872083697871,313.9080271216098V420.4322506561679" style="fill: none; stroke-width: 1px; stroke: rgb(0, 0, 0); stroke-opacity: 1;"/><g class="overlines-above"/><g class="xaxislayer-above"><path class="x3tick ticks crisp" d="M0,420.4322506561679v-5" transform="translate(120.72720836978709,0)" style="stroke: rgb(0, 0, 0); stroke-opacity: 1; stroke-width: 1px;"/><path class="x3tick ticks crisp" d="M0,420.4322506561679v-5" transform="translate(210.9672083697871,0)" style="stroke: rgb(0, 0, 0); stroke-opacity: 1; stroke-width: 1px;"/><path class="x3tick ticks crisp" d="M0,420.4322506561679v-5" transform="translate(301.2072083697871,0)" style="stroke: rgb(0, 0, 0); stroke-opacity: 1; stroke-width: 1px;"/><path class="x3tick ticks crisp" d="M0,420.4322506561679v-5" transform="translate(391.44720836978706,0)" style="stroke: rgb(0, 0, 0); stroke-opacity: 1; stroke-width: 1px;"/><path class="x3tick ticks crisp" d="M0,420.4322506561679v-5" transform="translate(481.6872083697871,0)" style="stroke: rgb(0, 0, 0); stroke-opacity: 1; stroke-width: 1px;"/><path class="x3tick ticks crisp" d="M0,420.4322506561679v-5" transform="translate(571.9272083697871,0)" style="stroke: rgb(0, 0, 0); stroke-opacity: 1; stroke-width: 1px;"/><g class="x3tick"><text text-anchor="middle" x="0" y="434.6322506561679" transform="translate(120.72720836978709,0)" style="font-family: Helvetica; font-size: 11px; fill: rgb(0, 0, 0); fill-opacity: 1; white-space: pre;">0</text></g><g class="x3tick"><text text-anchor="middle" x="0" y="434.6322506561679" transform="translate(210.9672083697871,0)" style="font-family: Helvetica; font-size: 11px; fill: rgb(0, 0, 0); fill-opacity: 1; white-space: pre;">1</text></g><g class="x3tick"><text text-anchor="middle" x="0" y="434.6322506561679" transform="translate(301.2072083697871,0)" style="font-family: Helvetica; font-size: 11px; fill: rgb(0, 0, 0); fill-opacity: 1; white-space: pre;">2</text></g><g class="x3tick"><text text-anchor="middle" x="0" y="434.6322506561679" transform="translate(391.44720836978706,0)" style="font-family: Helvetica; font-size: 11px; fill: rgb(0, 0, 0); fill-opacity: 1; white-space: pre;">3</text></g><g class="x3tick"><text text-anchor="middle" x="0" y="434.6322506561679" transform="translate(481.6872083697871,0)" style="font-family: Helvetica; font-size: 11px; fill: rgb(0, 0, 0); fill-opacity: 1; white-space: pre;">4</text></g><g class="x3tick"><text text-anchor="middle" x="0" y="434.6322506561679" transform="translate(571.9272083697871,0)" style="font-family: Helvetica; font-size: 11px; fill: rgb(0, 0, 0); fill-opacity: 1; white-space: pre;">5</text></g></g><g class="yaxislayer-above"><path class="y3tick ticks crisp" d="M107.1872083697871,0h5" transform="translate(0,417.4180271216098)" style="stroke: rgb(0, 0, 0); stroke-opacity: 1; stroke-width: 1px;"/><path class="y3tick ticks crisp" d="M107.1872083697871,0h5" transform="translate(0,392.2980271216098)" style="stroke: rgb(0, 0, 0); stroke-opacity: 1; stroke-width: 1px;"/><path class="y3tick ticks crisp" d="M107.1872083697871,0h5" transform="translate(0,367.1680271216098)" style="stroke: rgb(0, 0, 0); stroke-opacity: 1; stroke-width: 1px;"/><path class="y3tick ticks crisp" d="M107.1872083697871,0h5" transform="translate(0,342.0480271216098)" style="stroke: rgb(0, 0, 0); stroke-opacity: 1; stroke-width: 1px;"/><path class="y3tick ticks crisp" d="M107.1872083697871,0h5" transform="translate(0,316.9180271216098)" style="stroke: rgb(0, 0, 0); stroke-opacity: 1; stroke-width: 1px;"/><g class="y3tick"><text text-anchor="end" x="103.9872083697871" y="3.8499999999999996" transform="translate(0,417.4180271216098)" style="font-family: Helvetica; font-size: 11px; fill: rgb(0, 0, 0); fill-opacity: 1; white-space: pre;">0.00</text></g><g class="y3tick"><text text-anchor="end" x="103.9872083697871" y="3.8499999999999996" transform="translate(0,392.2980271216098)" style="font-family: Helvetica; font-size: 11px; fill: rgb(0, 0, 0); fill-opacity: 1; white-space: pre;">0.25</text></g><g class="y3tick"><text text-anchor="end" x="103.9872083697871" y="3.8499999999999996" transform="translate(0,367.1680271216098)" style="font-family: Helvetica; font-size: 11px; fill: rgb(0, 0, 0); fill-opacity: 1; white-space: pre;">0.50</text></g><g class="y3tick"><text text-anchor="end" x="103.9872083697871" y="3.8499999999999996" transform="translate(0,342.0480271216098)" style="font-family: Helvetica; font-size: 11px; fill: rgb(0, 0, 0); fill-opacity: 1; white-space: pre;">0.75</text></g><g class="y3tick"><text text-anchor="end" x="103.9872083697871" y="3.8499999999999996" transform="translate(0,316.9180271216098)" style="font-family: Helvetica; font-size: 11px; fill: rgb(0, 0, 0); fill-opacity: 1; white-space: pre;">1.00</text></g></g><g class="overaxes-above"/></g></g><g class="polarlayer"/><g class="ternarylayer"/><g class="geolayer"/><g class="funnelarealayer"/><g class="pielayer"/><g class="treemaplayer"/><g class="sunburstlayer"/><g class="glimages"/><defs id="topdefs-8af0d3"><g class="clips"/><clipPath id="legend8af0d3"><rect width="88" height="134" x="0" y="0"/></clipPath></defs><g class="layer-above"><g class="imagelayer"/><g class="shapelayer"/></g><g class="infolayer"><g class="legend" pointer-events="all" transform="translate(599.78,60)"><rect class="bg" shape-rendering="crispEdges" width="88" height="134" x="0" y="0" style="stroke: rgb(68, 68, 68); stroke-opacity: 1; fill: rgb(255, 255, 255); fill-opacity: 1; stroke-width: 0px;"/><g class="scrollbox" transform="" clip-path="url('#legend8af0d3')"><g class="groups" transform=""><g class="traces" transform="translate(0,14.5)" style="opacity: 1;"><text class="legendtext" text-anchor="start" x="40" y="4.680000000000001" style="font-family: 'Open Sans', verdana, arial, sans-serif; font-size: 12px; fill: rgb(42, 63, 95); fill-opacity: 1; white-space: pre;">square</text><g class="layers" style="opacity: 1;"><g class="legendfill"/><g class="legendlines"><path class="js-line" d="M5,0h30" style="fill: none; stroke: rgb(0, 154, 250); stroke-opacity: 1; stroke-width: 1px;"/></g><g class="legendsymbols"><g class="legendpoints"><path class="scatterpts" transform="translate(20,0)" d="M4,0A4,4 0 1,1 0,-4A4,4 0 0,1 4,0Z" style="opacity: 1; stroke-width: 1px; fill: rgb(0, 154, 250); fill-opacity: 1; stroke: rgb(0, 0, 0); stroke-opacity: 1;"/></g></g></g><rect class="legendtoggle" x="0" y="-9.5" width="82.75" height="19" style="fill: rgb(0, 0, 0); fill-opacity: 0;"/></g><g class="traces" transform="translate(0,33.5)" style="opacity: 1;"><text class="legendtext" text-anchor="start" x="40" y="4.680000000000001" style="font-family: 'Open Sans', verdana, arial, sans-serif; font-size: 12px; fill: rgb(42, 63, 95); fill-opacity: 1; white-space: pre;">square</text><g class="layers" style="opacity: 1;"><g class="legendfill"/><g class="legendlines"><path class="js-line" d="M5,0h30" style="fill: none; stroke: rgb(0, 154, 250); stroke-opacity: 1; stroke-width: 1px;"/></g><g class="legendsymbols"><g class="legendpoints"><path class="scatterpts" transform="translate(20,0)" d="M4,0A4,4 0 1,1 0,-4A4,4 0 0,1 4,0Z" style="opacity: 1; stroke-width: 1px; fill: rgb(0, 154, 250); fill-opacity: 1; stroke: rgb(0, 0, 0); stroke-opacity: 1;"/></g></g></g><rect class="legendtoggle" x="0" y="-9.5" width="82.75" height="19" style="fill: rgb(0, 0, 0); fill-opacity: 0;"/></g><g class="traces" transform="translate(0,52.5)" style="opacity: 1;"><text class="legendtext" text-anchor="start" x="40" y="4.680000000000001" style="font-family: 'Open Sans', verdana, arial, sans-serif; font-size: 12px; fill: rgb(42, 63, 95); fill-opacity: 1; white-space: pre;">square</text><g class="layers" style="opacity: 1;"><g class="legendfill"/><g class="legendlines"><path class="js-line" d="M5,0h30" style="fill: none; stroke: rgb(0, 154, 250); stroke-opacity: 1; stroke-width: 1px;"/></g><g class="legendsymbols"><g class="legendpoints"><path class="scatterpts" transform="translate(20,0)" d="M4,0A4,4 0 1,1 0,-4A4,4 0 0,1 4,0Z" style="opacity: 1; stroke-width: 1px; fill: rgb(0, 154, 250); fill-opacity: 1; stroke: rgb(0, 0, 0); stroke-opacity: 1;"/></g></g></g><rect class="legendtoggle" x="0" y="-9.5" width="82.75" height="19" style="fill: rgb(0, 0, 0); fill-opacity: 0;"/></g></g><g class="groups" transform="translate(0,10)"><g class="traces" transform="translate(0,71.5)" style="opacity: 1;"><text class="legendtext" text-anchor="start" x="40" y="4.680000000000001" style="font-family: 'Open Sans', verdana, arial, sans-serif; font-size: 12px; fill: rgb(42, 63, 95); fill-opacity: 1; white-space: pre;">optimal</text><g class="layers" style="opacity: 1;"><g class="legendfill"/><g class="legendlines"><path class="js-line" d="M5,0h30" style="fill: none; stroke: rgb(227, 111, 71); stroke-opacity: 1; stroke-width: 1px;"/></g><g class="legendsymbols"><g class="legendpoints"><path class="scatterpts" transform="translate(20,0)" d="M4,0A4,4 0 1,1 0,-4A4,4 0 0,1 4,0Z" style="opacity: 1; stroke-width: 1px; fill: rgb(227, 111, 71); fill-opacity: 1; stroke: rgb(0, 0, 0); stroke-opacity: 1;"/></g></g></g><rect class="legendtoggle" x="0" y="-9.5" width="82.75" height="19" style="fill: rgb(0, 0, 0); fill-opacity: 0;"/></g><g class="traces" transform="translate(0,90.5)" style="opacity: 1;"><text class="legendtext" text-anchor="start" x="40" y="4.680000000000001" style="font-family: 'Open Sans', verdana, arial, sans-serif; font-size: 12px; fill: rgb(42, 63, 95); fill-opacity: 1; white-space: pre;">optimal</text><g class="layers" style="opacity: 1;"><g class="legendfill"/><g class="legendlines"><path class="js-line" d="M5,0h30" style="fill: none; stroke: rgb(227, 111, 71); stroke-opacity: 1; stroke-width: 1px;"/></g><g class="legendsymbols"><g class="legendpoints"><path class="scatterpts" transform="translate(20,0)" d="M4,0A4,4 0 1,1 0,-4A4,4 0 0,1 4,0Z" style="opacity: 1; stroke-width: 1px; fill: rgb(227, 111, 71); fill-opacity: 1; stroke: rgb(0, 0, 0); stroke-opacity: 1;"/></g></g></g><rect class="legendtoggle" x="0" y="-9.5" width="82.75" height="19" style="fill: rgb(0, 0, 0); fill-opacity: 0;"/></g><g class="traces" transform="translate(0,109.5)" style="opacity: 1;"><text class="legendtext" text-anchor="start" x="40" y="4.680000000000001" style="font-family: 'Open Sans', verdana, arial, sans-serif; font-size: 12px; fill: rgb(42, 63, 95); fill-opacity: 1; white-space: pre;">optimal</text><g class="layers" style="opacity: 1;"><g class="legendfill"/><g class="legendlines"><path class="js-line" d="M5,0h30" style="fill: none; stroke: rgb(227, 111, 71); stroke-opacity: 1; stroke-width: 1px;"/></g><g class="legendsymbols"><g class="legendpoints"><path class="scatterpts" transform="translate(20,0)" d="M4,0A4,4 0 1,1 0,-4A4,4 0 0,1 4,0Z" style="opacity: 1; stroke-width: 1px; fill: rgb(227, 111, 71); fill-opacity: 1; stroke: rgb(0, 0, 0); stroke-opacity: 1;"/></g></g></g><rect class="legendtoggle" x="0" y="-9.5" width="82.75" height="19" style="fill: rgb(0, 0, 0); fill-opacity: 0;"/></g></g></g><rect class="scrollbar" rx="20" ry="3" width="0" height="0" x="0" y="0" style="fill: rgb(128, 139, 164); fill-opacity: 1;"/></g><g class="g-gtitle"/><g class="g-xtitle"/><g class="g-x2title"/><g class="g-x3title"><text class="x3title" x="346.32523148148147" y="462.640625" text-anchor="middle" style="font-family: Helvetica; font-size: 15px; fill: rgb(0, 0, 0); opacity: 1; font-weight: normal; white-space: pre;">Step number</text></g><g class="g-ytitle"><text class="ytitle" transform="rotate(-90,63.1875,117.10069444444443)" x="63.1875" y="117.10069444444443" text-anchor="middle" style="font-family: Helvetica; font-size: 15px; fill: rgb(0, 0, 0); opacity: 1; font-weight: normal; white-space: pre;">V midstance</text></g><g class="g-y2title"><text class="y2title" transform="rotate(-90,50.953125,242.13541666666663)" x="50.953125" y="242.13541666666663" text-anchor="middle" style="font-family: Helvetica; font-size: 15px; fill: rgb(0, 0, 0); opacity: 1; font-weight: normal; white-space: pre;">Work</text></g><g class="g-y3title"><text class="y3title" transform="rotate(-90,57.0625,367.17013888888886)" x="57.0625" y="367.17013888888886" text-anchor="middle" style="font-family: Helvetica; font-size: 15px; fill: rgb(0, 0, 0); opacity: 1; font-weight: normal; white-space: pre;">Terrain height</text></g></g></svg>